<svg width="17" height="17" viewBox="0 0 17 17" fill="none" xmlns="http://www.w3.org/2000/svg">
<g clip-path="url(#clip0_2461_19366)">
<path d="M8.94297 1.03125C13.068 1.03125 16.4055 4.36875 16.4055 8.4875C16.4055 12.6063 13.068 15.95 8.94297 15.95C4.81797 15.95 1.48047 12.6125 1.48047 8.49375C1.48047 4.375 4.81797 1.03125 8.94297 1.03125Z" fill="#E74D89"/>
<path d="M8.94336 16.4812C4.53086 16.4812 0.943359 12.9 0.943359 8.49375C0.943359 4.08125 4.53086 0.5 8.94336 0.5C13.3559 0.5 16.9434 4.08125 16.9434 8.4875C16.9434 12.8938 13.3559 16.4812 8.94336 16.4812ZM15.6871 9.58125C15.4559 9.50625 13.5746 8.95 11.4309 9.2875C12.3246 11.7375 12.6871 13.7375 12.7559 14.15C14.2934 13.1187 15.3871 11.4813 15.6871 9.58125ZM11.6121 14.7812C11.5121 14.1812 11.1121 12.0937 10.1559 9.60625C10.1434 9.6125 10.1246 9.61875 10.1121 9.61875C6.25586 10.9625 4.87461 13.6313 4.74961 13.8813C5.90586 14.7813 7.36211 15.3188 8.94336 15.3188C9.88711 15.325 10.7934 15.1312 11.6121 14.7812V14.7812ZM3.86836 13.0625C4.02461 12.8 5.89961 9.7 9.42461 8.55625C9.51211 8.525 9.60586 8.5 9.69336 8.475C9.52461 8.0875 9.33711 7.7 9.13711 7.31875C5.72461 8.3375 2.41211 8.29375 2.11211 8.2875C2.11211 8.35625 2.10586 8.425 2.10586 8.49375C2.11211 10.25 2.77461 11.85 3.86836 13.0625V13.0625ZM2.25586 7.1C2.56211 7.10625 5.37461 7.11875 8.57461 6.26875C7.44336 4.25625 6.21836 2.56875 6.04336 2.325C4.12461 3.225 2.69961 4.9875 2.25586 7.1ZM7.34336 1.8625C7.53086 2.1125 8.77461 3.8 9.89336 5.85625C12.3246 4.94375 13.3496 3.56875 13.4746 3.39375C12.2684 2.325 10.6809 1.675 8.94336 1.675C8.39336 1.675 7.85586 1.74375 7.34336 1.8625V1.8625ZM14.2309 4.18125C14.0871 4.375 12.9434 5.84375 10.4184 6.875C10.5746 7.2 10.7309 7.53125 10.8746 7.8625C10.9246 7.98125 10.9746 8.1 11.0246 8.2125C13.2996 7.925 15.5559 8.3875 15.7809 8.43125C15.7621 6.825 15.1871 5.34375 14.2309 4.18125V4.18125Z" fill="#B2215A"/>
</g>
<defs>
<clipPath id="clip0_2461_19366">
<rect width="16" height="16" fill="white" transform="translate(0.943359 0.5)"/>
</clipPath>
</defs>
</svg>
