<svg width="17" height="17" viewBox="0 0 17 17" fill="none" xmlns="http://www.w3.org/2000/svg">
<g clip-path="url(#clip0_2461_19362)">
<path d="M16.9434 8.5C16.9434 4.08175 13.3616 0.5 8.94336 0.5C4.52511 0.5 0.943359 4.08169 0.943359 8.5C0.943359 12.493 3.86886 15.8027 7.69336 16.4028V10.8125H5.66211V8.5H7.69336V6.7375C7.69336 4.7325 8.88773 3.625 10.715 3.625C11.5904 3.625 12.5059 3.78125 12.5059 3.78125V5.75H11.4971C10.5032 5.75 10.1934 6.36669 10.1934 6.99937V8.5H12.4121L12.0574 10.8125H10.1934V16.4028C14.0179 15.8027 16.9434 12.4931 16.9434 8.5Z" fill="#1877F2"/>
<path d="M12.0574 10.8125L12.4121 8.5H10.1934V6.99937C10.1934 6.36662 10.5033 5.75 11.4971 5.75H12.5059V3.78125C12.5059 3.78125 11.5904 3.625 10.715 3.625C8.88773 3.625 7.69336 4.7325 7.69336 6.7375V8.5H5.66211V10.8125H7.69336V16.4028C8.10687 16.4676 8.5248 16.5001 8.94336 16.5C9.36192 16.5001 9.77985 16.4676 10.1934 16.4028V10.8125H12.0574Z" fill="white"/>
</g>
<defs>
<clipPath id="clip0_2461_19362">
<rect width="16" height="16" fill="white" transform="translate(0.943359 0.5)"/>
</clipPath>
</defs>
</svg>
