<svg width="17" height="17" viewBox="0 0 17 17" fill="none" xmlns="http://www.w3.org/2000/svg">
<g clip-path="url(#clip0_2461_19367)">
<path fill-rule="evenodd" clip-rule="evenodd" d="M8.94336 0.5C4.52336 0.5 0.943359 4.08 0.943359 8.5C0.943359 12.04 3.23336 15.03 6.41336 16.09C6.81336 16.16 6.96336 15.92 6.96336 15.71C6.96336 15.52 6.95336 14.89 6.95336 14.22C4.94336 14.59 4.42336 13.73 4.26336 13.28C4.17336 13.05 3.78336 12.34 3.44336 12.15C3.16336 12 2.76336 11.63 3.43336 11.62C4.06336 11.61 4.51336 12.2 4.66336 12.44C5.38336 13.65 6.53336 13.31 6.99336 13.1C7.06336 12.58 7.27336 12.23 7.50336 12.03C5.72336 11.83 3.86336 11.14 3.86336 8.08C3.86336 7.21 4.17336 6.49 4.68336 5.93C4.60336 5.73 4.32336 4.91 4.76336 3.81C4.76336 3.81 5.43336 3.6 6.96336 4.63C7.60336 4.45 8.28336 4.36 8.96336 4.36C9.64336 4.36 10.3234 4.45 10.9634 4.63C12.4934 3.59 13.1634 3.81 13.1634 3.81C13.6034 4.91 13.3234 5.73 13.2434 5.93C13.7534 6.49 14.0634 7.2 14.0634 8.08C14.0634 11.15 12.1934 11.83 10.4134 12.03C10.7034 12.28 10.9534 12.76 10.9534 13.51C10.9534 14.58 10.9434 15.44 10.9434 15.71C10.9434 15.92 11.0934 16.17 11.4934 16.09C13.0815 15.5538 14.4615 14.5331 15.4391 13.1716C16.4168 11.81 16.9429 10.1762 16.9434 8.5C16.9434 4.08 13.3634 0.5 8.94336 0.5Z" fill="#0C0414"/>
</g>
<defs>
<clipPath id="clip0_2461_19367">
<rect width="16" height="16" fill="white" transform="translate(0.943359 0.5)"/>
</clipPath>
</defs>
</svg>
