<svg width="17" height="17" viewBox="0 0 17 17" fill="none" xmlns="http://www.w3.org/2000/svg">
<g clip-path="url(#clip0_2461_19364)">
<path d="M14.5761 14.133H12.2054V10.4203C12.2054 9.53498 12.1896 8.39529 10.9724 8.39529C9.73767 8.39529 9.54873 9.35991 9.54873 10.3559V14.1327H7.17811V6.49798H9.45392V7.54135H9.4858C9.71355 7.15192 10.0427 6.83155 10.4381 6.61436C10.8335 6.39718 11.2805 6.29131 11.7313 6.30804C14.1341 6.30804 14.5771 7.88854 14.5771 9.94466L14.5761 14.133V14.133ZM4.50311 5.45441C3.7433 5.45454 3.12723 4.83866 3.12711 4.07885C3.12698 3.31904 3.7428 2.70298 4.50261 2.70285C5.26242 2.70266 5.87848 3.31854 5.87861 4.07835C5.87868 4.44323 5.7338 4.79319 5.47584 5.05125C5.21789 5.30931 4.86799 5.45433 4.50311 5.45441M5.68848 14.133H3.3153V6.49798H5.68842V14.133L5.68848 14.133ZM15.758 0.501164H2.12405C1.47967 0.493914 0.951234 1.0101 0.943359 1.65448V15.3453C0.950984 15.99 1.47936 16.5067 2.12398 16.4999H15.758C16.404 16.5079 16.9344 15.9912 16.9434 15.3453V1.65341C16.9342 1.00779 16.4037 0.491664 15.758 0.500102" fill="#0A66C2"/>
</g>
<defs>
<clipPath id="clip0_2461_19364">
<rect width="16" height="16" fill="white" transform="translate(0.943359 0.5)"/>
</clipPath>
</defs>
</svg>
