<svg width="144" height="70" viewBox="0 0 144 70" fill="none" xmlns="http://www.w3.org/2000/svg">
<path d="M41.0883 22.9C39.525 21.8967 38.02 21.395 36.5733 21.395C35.1266 21.395 33.96 21.7917 33.0733 22.585C32.1866 23.3783 31.7433 24.3817 31.7433 25.595C31.7433 26.785 32.2216 27.8233 33.1783 28.71C34.135 29.5967 35.675 30.5533 37.7983 31.58C41.205 33.2367 43.3633 35.01 44.2733 36.9C44.6933 37.7867 44.9033 38.7317 44.9033 39.735C44.9033 41.905 43.9816 43.6083 42.1383 44.845C40.3183 46.0817 38.1716 46.7 35.6983 46.7C34.3683 46.7 32.98 46.5717 31.5333 46.315C30.0866 46.0583 29.0483 45.8017 28.4183 45.545C28.185 43.725 27.7883 41.6483 27.2283 39.315C27.6483 39.105 27.9633 39 28.1733 39C28.4066 39 28.5816 39.0117 28.6983 39.035C29.3516 40.6683 29.9583 41.905 30.5183 42.745C31.0083 43.2583 31.44 43.6783 31.8133 44.005C32.1866 44.3083 32.7933 44.6233 33.6333 44.95C34.4966 45.2767 35.535 45.44 36.7483 45.44C37.9616 45.44 39.0583 45.02 40.0383 44.18C41.0183 43.34 41.5083 42.2667 41.5083 40.96C41.5083 39.91 41.3216 39.1517 40.9483 38.685C40.575 38.2183 40.295 37.8683 40.1083 37.635C39.945 37.4017 39.6183 37.1333 39.1283 36.83C38.6383 36.5033 38.3 36.2817 38.1133 36.165C37.9266 36.0483 37.5183 35.8267 36.8883 35.5C36.2816 35.1733 35.7333 34.8817 35.2433 34.625C34.7766 34.345 34.38 34.1117 34.0533 33.925C33.7266 33.7383 33.225 33.4467 32.5483 33.05C31.8716 32.63 31.3933 32.3033 31.1133 32.07C30.8333 31.8133 30.4716 31.475 30.0283 31.055C29.585 30.635 29.27 30.25 29.0833 29.9C28.6166 28.8967 28.3833 27.9517 28.3833 27.065C28.3833 24.9183 29.2816 23.25 31.0783 22.06C32.875 20.8467 35.045 20.24 37.5883 20.24C38.6383 20.24 39.805 20.38 41.0883 20.66C42.3716 20.94 43.3633 21.2317 44.0633 21.535C43.8533 22.3517 43.655 24.055 43.4683 26.645C43.235 26.7617 42.99 26.82 42.7333 26.82C42.4766 26.82 42.255 26.7733 42.0683 26.68C42.045 26.4 41.905 25.77 41.6483 24.79C41.3916 23.7867 41.205 23.1567 41.0883 22.9ZM81.3968 46.105L77.7568 46C75.2368 46 73.1952 46.0933 71.6318 46.28C71.5152 46.14 71.4568 45.9417 71.4568 45.685L71.4918 45.405C72.8918 45.0783 73.7785 44.7283 74.1518 44.355C74.5252 43.9817 74.7468 43.1883 74.8168 41.975C74.8868 40.7617 74.9218 39.5017 74.9218 38.195C74.9218 36.865 74.8518 34.8467 74.7118 32.14L74.4318 26.4C73.3585 28.3833 71.6785 31.755 69.3918 36.515C67.1285 41.275 65.6585 44.67 64.9818 46.7H64.0018C59.4518 36.41 56.5352 30.145 55.2518 27.905L53.7818 25.385C53.6885 28.2783 53.6418 31.8133 53.6418 35.99C53.6418 40.1433 53.7818 43.1183 54.0618 44.915C54.5752 44.985 55.4851 45.02 56.7918 45.02C56.8618 45.2067 56.8968 45.4167 56.8968 45.65C56.8968 45.86 56.8618 46.0117 56.7918 46.105L52.8368 46C51.2268 46 49.8735 46.0933 48.7768 46.28C48.6601 46.14 48.6018 45.9417 48.6018 45.685L48.6368 45.405C49.7801 45.1483 50.5385 44.775 50.9118 44.285C51.3085 43.795 51.5651 43.1533 51.6818 42.36C52.2418 38.37 52.5685 32.0817 52.6618 23.495C52.0318 22.7017 51.3435 22.1417 50.5968 21.815C50.5035 21.7917 49.8501 21.6983 48.6368 21.535L48.5318 21.045C48.5318 20.8117 48.5668 20.625 48.6368 20.485L54.2368 20.345C54.5868 20.345 55.1818 20.9633 56.0218 22.2C56.8852 23.4367 57.7368 24.8133 58.5768 26.33C59.4168 27.8233 60.3852 29.7717 61.4818 32.175C62.6018 34.5783 63.5352 36.655 64.2818 38.405C65.0285 40.155 65.4485 41.1117 65.5418 41.275C65.8452 40.5983 67.2802 37.5533 69.8468 32.14C72.4135 26.7033 74.1052 22.9233 74.9218 20.8C77.2785 20.8 79.1568 20.695 80.5568 20.485C80.6735 20.695 80.7318 20.9867 80.7318 21.36C79.5652 21.6167 78.7835 22.0017 78.3868 22.515C77.9902 23.0283 77.7685 23.5767 77.7218 24.16C77.6752 24.7433 77.6518 25.84 77.6518 27.45C77.6518 29.06 77.7218 31.79 77.8618 35.64C78.0252 39.49 78.2702 42.5817 78.5968 44.915C79.0402 44.985 79.9735 45.02 81.3968 45.02C81.4668 45.1833 81.5018 45.37 81.5018 45.58C81.5018 45.79 81.4668 45.965 81.3968 46.105ZM84.4645 20.695L89.0145 20.8L93.4945 20.695C93.5412 20.835 93.5645 21.01 93.5645 21.22L93.4945 21.78C92.4678 21.78 91.6862 21.815 91.1495 21.885C90.7528 21.9317 90.5545 24.5567 90.5545 29.76V35.465C90.5545 37.6817 90.6012 39.805 90.6945 41.835C90.8112 43.865 90.9512 44.8917 91.1145 44.915C91.7212 44.985 92.7478 45.02 94.1945 45.02C94.2412 45.1833 94.2645 45.37 94.2645 45.58C94.2645 45.79 94.2412 45.965 94.1945 46.105L89.7495 46C87.2995 46 85.2928 46.0933 83.7295 46.28C83.6128 46.1633 83.5545 45.965 83.5545 45.685L83.5895 45.405C85.1062 45.0783 86.0395 44.6933 86.3895 44.25C86.5995 43.97 86.7395 43.725 86.8095 43.515C86.8795 43.305 86.9378 42.9783 86.9845 42.535C87.2645 40.715 87.4045 37.7633 87.4045 33.68V29.76C87.4045 24.5567 87.2062 21.9317 86.8095 21.885C86.2728 21.815 85.4912 21.78 84.4645 21.78C84.4178 21.6167 84.3945 21.43 84.3945 21.22C84.3945 21.01 84.4178 20.835 84.4645 20.695ZM112.865 46.105L107.125 46C104.605 46 102.517 46.0933 100.86 46.28C100.743 46.14 100.685 45.9417 100.685 45.685L100.72 45.405C102.33 45.1483 103.392 44.8217 103.905 44.425C104.418 44.005 104.757 43.3283 104.92 42.395C105.247 40.6683 105.41 37.775 105.41 33.715C105.41 29.655 105.363 26.82 105.27 25.21C105.177 23.6 105.06 22.5967 104.92 22.2C104.337 22.0833 103.625 22.025 102.785 22.025C100.825 22.025 99.2968 22.2817 98.2001 22.795L96.6601 26.645C96.1234 26.645 95.7268 26.5517 95.4701 26.365L96.0301 20.94C96.0301 20.6833 96.2284 20.555 96.6251 20.555L102.785 20.8H111.36L118.08 20.555C118.5 20.555 118.71 20.6833 118.71 20.94C118.337 22.9933 118.15 24.8717 118.15 26.575C117.963 26.6683 117.73 26.715 117.45 26.715C117.17 26.715 116.948 26.6683 116.785 26.575C116.365 24.265 116.132 23.005 116.085 22.795C114.918 22.2817 113.32 22.025 111.29 22.025C110.38 22.025 109.645 22.0833 109.085 22.2C109.015 22.41 108.922 23.3783 108.805 25.105C108.712 26.8317 108.665 29.0483 108.665 31.755V38.02C108.665 40.61 108.852 42.8617 109.225 44.775C110.298 44.9383 111.512 45.02 112.865 45.02C112.935 45.2067 112.97 45.4167 112.97 45.65C112.97 45.86 112.935 46.0117 112.865 46.105Z" fill="white"/>
</svg>
