<svg width="25" height="22" viewBox="0 0 25 22" fill="none" xmlns="http://www.w3.org/2000/svg">
<path d="M24.0742 5.41201C23.9675 7.75276 22.3357 10.958 19.1797 15.0261C15.9166 19.2754 13.1559 21.4 10.8975 21.4C9.49897 21.4 8.31463 20.1063 7.34789 17.5182C6.70176 15.1458 6.05648 12.7735 5.41064 10.4012C4.69224 7.81444 3.92208 6.51939 3.09868 6.51939C2.91915 6.51939 2.29084 6.89795 1.21515 7.65198L0.0859375 6.19445C1.26144 5.16032 2.42897 4.11717 3.58843 3.06508C5.16811 1.69727 6.35405 0.978026 7.14436 0.905276C9.01232 0.725558 10.1619 2.00477 10.5934 4.7432C11.0597 7.69763 11.3823 9.53531 11.5637 10.2546C12.102 12.7056 12.6943 13.9296 13.3417 13.9296C13.844 13.9296 14.5986 13.1348 15.6046 11.545C16.6098 9.95475 17.1481 8.74491 17.2209 7.91382C17.3638 6.54151 16.8252 5.85367 15.6046 5.85367C15.0301 5.85367 14.4377 5.98614 13.8284 6.24798C15.0078 2.37705 17.2614 0.49709 20.5878 0.60434C23.0538 0.676808 24.2163 2.27937 24.0742 5.41201Z" fill="#32B8E8"/>
</svg>
