<svg width="100" height="70" viewBox="0 0 100 70" fill="none" xmlns="http://www.w3.org/2000/svg">
<path fill-rule="evenodd" clip-rule="evenodd" d="M3.83456 0.240039C2.37443 0.647354 1.21647 1.80942 0.843623 3.24229C0.675175 3.88936 0.641683 66.1787 0.809638 66.709C1.29159 68.232 2.1454 69.1009 3.81732 69.7692C4.26897 69.9498 92.9947 69.9074 93.5155 69.7263C94.7286 69.3047 95.5738 68.5645 96.1646 67.4071L96.5486 66.6545V35.1738C96.5486 8.0766 96.5306 3.63014 96.4185 3.24032C96.0102 1.81829 94.8855 0.683823 93.4532 0.24891C92.8843 0.0764232 4.45269 0.067306 3.83456 0.240039ZM91.569 2.50405C92.5317 2.86529 93.2343 3.56607 93.5763 4.50662C93.7871 5.08617 93.8928 63.6377 93.6847 64.6616C93.5121 65.5119 92.5861 66.7824 92.1349 66.7883C92.0477 66.7893 91.9763 66.8211 91.9763 66.8588C91.9763 67.1511 91.7293 67.1528 48.5626 67.1528C24.3741 67.1528 5.80224 67.1185 5.71334 67.0734C4.56868 66.4971 4.29114 66.2482 3.85869 65.4121L3.56415 64.8427V34.902C3.56415 3.76049 3.56046 4.10078 3.9008 4.10078C3.93971 4.10078 3.97148 4.04534 3.97148 3.97709C3.97148 3.60796 5.42668 2.47226 5.9042 2.46881C6.01132 2.46807 6.16032 2.42791 6.23494 2.37937C6.53268 2.18667 91.0516 2.31013 91.569 2.50405ZM6.32556 3.846C5.77835 4.07663 5.63453 4.15795 5.44294 4.34596C5.33088 4.45586 5.23903 4.60518 5.23903 4.67812C5.23903 4.75081 5.19839 4.82424 5.1484 4.84075C4.98709 4.89471 5.02576 64.6875 5.18731 64.8491C5.25922 64.9208 5.34172 65.0507 5.37078 65.1376C5.39984 65.2246 5.60597 65.3873 5.82835 65.4994L6.23297 65.7032H48.6986C82.5039 65.7032 91.2048 65.6802 91.3641 65.59C91.6815 65.4102 92.0657 64.9758 92.2078 64.6355C92.4105 64.15 92.4046 5.45899 92.2019 4.97332C92.0209 4.54013 91.5444 4.05914 91.1198 3.88172C90.6962 3.7048 6.7452 3.66932 6.32556 3.846ZM48.222 10.6235C48.3082 10.8228 48.4099 10.986 48.4481 10.986C48.486 10.986 48.5173 11.0675 48.5173 11.1671C48.5173 11.2666 48.5579 11.3482 48.6077 11.3482C48.6577 11.3482 48.6983 11.4297 48.6983 11.5295C48.6983 11.6291 48.7298 11.7106 48.7682 11.7106C48.8067 11.7106 48.98 11.9952 49.1532 12.3432C49.3263 12.6914 49.4984 12.9767 49.5359 12.9774C49.5731 12.9782 49.6036 13.0605 49.6036 13.16C49.6036 13.2598 49.6445 13.3411 49.6942 13.3411C49.744 13.3411 49.7848 13.4227 49.7848 13.5225C49.7848 13.622 49.8154 13.7039 49.8526 13.7043C49.89 13.7048 49.9639 13.7965 50.0166 13.9081C50.2717 14.4473 50.7428 15.2922 50.8034 15.3191C50.8406 15.3358 50.8711 15.424 50.8711 15.5155C50.8711 15.6069 50.9019 15.6951 50.9391 15.7118C50.9997 15.7387 51.4708 16.5836 51.7259 17.1228C51.7786 17.2344 51.8525 17.3261 51.8899 17.3266C51.9271 17.3271 51.9577 17.4089 51.9577 17.5084C51.9577 17.6082 51.9986 17.6898 52.0483 17.6898C52.098 17.6898 52.1389 17.7711 52.1389 17.8709C52.1389 17.9704 52.1695 18.0522 52.2066 18.0527C52.2441 18.0532 52.318 18.1449 52.3707 18.2565C52.6258 18.7957 53.0969 19.6406 53.1575 19.6675C53.1947 19.6842 53.2252 19.7759 53.2252 19.8715C53.2252 19.9668 53.2558 20.0454 53.2932 20.0457C53.3306 20.0462 53.404 20.1378 53.4565 20.2495C53.731 20.8342 54.3659 21.9968 54.425 22.0229C54.4622 22.0396 54.4928 22.1313 54.4928 22.2269C54.4928 22.3223 54.5233 22.4006 54.5607 22.4011C54.5982 22.4016 54.6711 22.4933 54.723 22.6049C54.9188 23.0268 55.2651 23.6245 55.3303 23.6536C55.3678 23.6701 55.3983 23.762 55.3983 23.8574C55.3983 23.953 55.4389 24.0311 55.4887 24.0311C55.5387 24.0311 55.5793 24.1127 55.5793 24.2122C55.5793 24.312 55.6202 24.3933 55.6699 24.3933C55.9593 24.3933 55.7271 24.741 55.3756 24.8339C55.0279 24.9256 52.9814 25.3536 52.4022 25.4556C52.1744 25.4958 51.2334 23.8771 51.2334 23.4454C51.2334 23.3771 51.2029 23.3079 51.1654 23.2912C51.1282 23.2746 50.9994 23.0674 50.8798 22.8309L50.6618 22.4004H47.8691C45.137 22.4004 45.0767 22.4043 45.0767 22.5815C45.0767 22.6813 45.036 22.7628 44.986 22.7628C44.9363 22.7628 44.8957 22.8444 44.8957 22.944C44.8957 23.0435 44.8548 23.1251 44.805 23.1251C44.7553 23.1251 44.7144 23.2066 44.7144 23.3064C44.7144 23.406 44.6738 23.4875 44.624 23.4875C44.5743 23.4875 44.5334 23.541 44.5334 23.6066C44.5334 23.6719 44.4369 23.9266 44.3187 24.1726C44.2007 24.4187 44.0143 24.8177 43.9049 25.0596C43.7249 25.4564 43.6821 25.4943 43.4631 25.4492C42.6534 25.2819 42.2695 25.1991 41.9077 25.1131C41.6836 25.0599 41.3171 24.9805 41.093 24.9369C40.3363 24.7896 40.1796 24.7341 40.2289 24.6314C40.256 24.5752 40.303 24.4579 40.3338 24.3709C40.3646 24.2837 40.4256 24.2122 40.4697 24.2122C40.5138 24.2122 40.5498 24.1307 40.5498 24.0311C40.5498 23.9313 40.5904 23.85 40.6401 23.85C40.6901 23.85 40.7308 23.7717 40.7308 23.6763C40.7308 23.5807 40.7613 23.489 40.7987 23.4725C40.8576 23.4461 41.4925 22.2836 41.7671 21.6991C41.8195 21.5872 41.8932 21.4956 41.9304 21.4953C41.9678 21.4948 41.9983 21.413 41.9983 21.3132C41.9983 21.2137 42.0392 21.1321 42.0889 21.1321C42.1387 21.1321 42.1793 21.0506 42.1793 20.951C42.1793 20.8512 42.2202 20.7699 42.27 20.7699C42.3197 20.7699 42.3606 20.6915 42.3606 20.5962C42.3606 20.5006 42.3948 20.4089 42.4367 20.3924C42.4785 20.3756 42.6923 20.0156 42.912 19.5921C43.1314 19.1685 43.3417 18.8085 43.3791 18.792C43.4163 18.7752 43.4469 18.6835 43.4469 18.5879C43.4469 18.4926 43.4878 18.4145 43.5375 18.4145C43.5872 18.4145 43.6281 18.3329 43.6281 18.2331C43.6281 18.1336 43.6587 18.0517 43.6959 18.0513C43.7333 18.051 43.8067 17.9591 43.8594 17.8475C44.1337 17.2627 44.7686 16.1004 44.8277 16.0741C44.8651 16.0576 44.8957 15.9691 44.8957 15.8779C44.8957 15.7865 44.9265 15.698 44.9644 15.6815C45.0262 15.6544 45.5113 14.7849 45.7515 14.2706C45.8037 14.1587 45.8768 14.0671 45.9142 14.0668C45.9514 14.0663 45.9822 13.988 45.9822 13.8924C45.9822 13.7967 46.0127 13.7051 46.0499 13.6886C46.1071 13.6632 46.8779 12.2303 47.1988 11.5527C47.2517 11.4411 47.3254 11.3494 47.3628 11.3489C47.4002 11.3487 47.4308 11.2666 47.4308 11.1671C47.4308 11.0675 47.4714 10.986 47.5214 10.986C47.5711 10.986 47.6118 10.9044 47.6118 10.8046C47.6118 10.705 47.6477 10.6235 47.6918 10.6235C47.7359 10.6235 47.793 10.5419 47.8191 10.4424C47.8935 10.1578 48.0511 10.2287 48.222 10.6235ZM72.3438 10.5328C72.4098 10.6824 72.4948 10.8046 72.5324 10.8046C72.5701 10.8046 72.6009 10.8862 72.6009 10.986C72.6009 11.0855 72.6415 11.1671 72.6913 11.1671C72.7413 11.1671 72.7819 11.2486 72.7819 11.3482C72.7819 11.448 72.8228 11.5295 72.8725 11.5295C72.9223 11.5295 72.9629 11.6108 72.9629 11.7106C72.9629 11.8102 73.0038 11.8918 73.0535 11.8918C73.1033 11.8918 73.1442 11.9733 73.1442 12.0729C73.1442 12.1727 73.1848 12.2542 73.2346 12.2542C73.2845 12.2542 73.3252 12.3358 73.3252 12.4353C73.3252 12.5349 73.3557 12.6169 73.3931 12.6172C73.4724 12.6182 73.6874 13.0551 73.6874 13.216C73.6874 13.2766 73.7192 13.3397 73.7581 13.3564C73.8207 13.383 74.2861 14.2676 75.5384 16.7384C75.7403 17.1371 75.9361 17.4769 75.9735 17.4934C76.0107 17.5099 76.0413 17.6018 76.0413 17.6972C76.0413 17.7928 76.0822 17.8709 76.1319 17.8709C76.1816 17.8709 76.2225 17.9524 76.2225 18.052C76.2225 18.1518 76.2632 18.2331 76.3129 18.2331C76.3629 18.2331 76.4035 18.3147 76.4035 18.4145C76.4035 18.514 76.4442 18.5956 76.4942 18.5956C76.5439 18.5956 76.5845 18.6771 76.5845 18.7767C76.5845 18.8974 76.6449 18.958 76.7658 18.958C76.8838 18.958 76.9468 18.8974 76.9468 18.7843C76.9468 18.6887 76.9773 18.5971 77.0148 18.5805C77.052 18.5638 77.2071 18.3058 77.3596 18.0067C78.0683 16.6159 78.4463 15.9206 78.5086 15.893C78.5458 15.8762 78.5764 15.7845 78.5764 15.6892C78.5764 15.5936 78.6172 15.5155 78.667 15.5155C78.7167 15.5155 78.7576 15.4339 78.7576 15.3343C78.7576 15.2345 78.7882 15.1527 78.8256 15.1525C78.8628 15.152 78.9364 15.0603 78.9889 14.9485C79.2634 14.364 79.8981 13.2014 79.9572 13.1751C79.9946 13.1585 80.0252 13.0669 80.0252 12.9713C80.0252 12.8759 80.0658 12.7978 80.1155 12.7978C80.1655 12.7978 80.2062 12.7194 80.2062 12.6241C80.2062 12.5285 80.2367 12.4368 80.2741 12.4203C80.3116 12.4035 80.4261 12.2269 80.5288 12.0278C81.3693 10.3963 81.534 10.1405 81.5991 10.3677C81.6774 10.6407 81.8559 11.324 81.9264 11.62C82.0556 12.1618 82.2066 12.7404 82.2948 13.0307C82.3411 13.1837 82.3792 13.3779 82.3792 13.4621C82.3792 13.5464 82.4149 13.6864 82.4588 13.7728C82.5304 13.9145 82.6957 14.5027 82.9289 15.4474C82.9752 15.6345 83.0567 15.9605 83.1099 16.1721C83.1634 16.384 83.2291 16.6901 83.2557 16.8525C83.2826 17.0149 83.3409 17.1701 83.385 17.1977C83.4293 17.225 83.4655 17.3852 83.4655 17.5538C83.4655 17.7223 83.5064 17.8854 83.5562 17.9162C83.6059 17.947 83.6468 18.0897 83.6468 18.2331C83.6468 18.3768 83.683 18.5167 83.7273 18.5441C83.7716 18.5714 83.8298 18.7267 83.8566 18.889C83.9014 19.1618 83.947 19.3555 84.1859 20.2941C84.2334 20.4811 84.2977 20.7561 84.3285 20.9057C84.3595 21.0552 84.4196 21.259 84.4622 21.3586C84.5343 21.5269 84.72 22.2156 84.9264 23.08C84.9742 23.2791 85.052 23.5952 85.0995 23.782C85.4256 25.0643 85.4532 25.0027 84.4996 25.1242C83.8064 25.2127 82.7824 25.3511 82.0889 25.4507C81.7215 25.5034 81.7441 25.5379 81.6062 24.7105C81.4382 23.7027 81.3804 23.3752 81.1068 21.8795C81.0543 21.5931 80.9748 21.1343 80.9299 20.8603C80.8849 20.5863 80.8056 20.1378 80.7534 19.8638C80.7012 19.5898 80.6329 19.1924 80.6017 18.9807C80.5347 18.5263 80.4507 18.4953 80.2968 18.8674C80.2347 19.0169 80.1485 19.1392 80.1047 19.1392C80.0609 19.1392 80.0252 19.2207 80.0252 19.3203C80.0252 19.4201 79.9843 19.5014 79.9345 19.5014C79.8848 19.5014 79.8441 19.5829 79.8441 19.6827C79.8441 19.7823 79.8134 19.8641 79.7762 19.8646C79.7387 19.8651 79.6659 19.9567 79.6139 20.0684C79.4181 20.4902 79.0719 21.088 79.0066 21.1171C78.9692 21.1336 78.9386 21.2253 78.9386 21.3209C78.9386 21.4165 78.898 21.4946 78.848 21.4946C78.7982 21.4946 78.7576 21.5761 78.7576 21.6757C78.7576 21.7752 78.7271 21.8573 78.6896 21.8575C78.6522 21.858 78.5793 21.9497 78.5274 22.0613C78.3316 22.4834 77.9853 23.081 77.9201 23.11C77.8826 23.1266 77.8521 23.2185 77.8521 23.3138C77.8521 23.4094 77.8215 23.4878 77.7844 23.4883C77.7469 23.4885 77.6735 23.5804 77.6208 23.6921C77.5309 23.8835 76.751 25.397 76.705 25.4687C76.6584 25.5419 76.4035 25.2127 76.4035 25.0793C76.4035 25.001 76.3629 24.9369 76.3129 24.9369C76.2632 24.9369 76.2225 24.8554 76.2225 24.7558C76.2225 24.6563 76.1816 24.5747 76.1319 24.5747C76.0822 24.5747 76.0413 24.4931 76.0413 24.3933C76.0413 24.2938 76.0006 24.2122 75.9509 24.2122C75.9011 24.2122 75.8603 24.1307 75.8603 24.0311C75.8603 23.9313 75.8196 23.85 75.7696 23.85C75.7199 23.85 75.6793 23.7684 75.6793 23.6687C75.6793 23.5691 75.6384 23.4875 75.5886 23.4875C75.5389 23.4875 75.498 23.4346 75.498 23.3698C75.498 23.2029 75.2852 22.7643 75.204 22.7636C75.1665 22.7631 75.136 22.6813 75.136 22.5815C75.136 22.4819 75.0951 22.4004 75.0454 22.4004C74.9956 22.4004 74.955 22.3432 74.955 22.273C74.955 22.1222 74.5774 21.3719 74.4794 21.3285C74.4422 21.3117 74.4117 21.2509 74.4117 21.193C74.4117 21.0565 73.2385 18.6993 73.1402 18.6384C73.0989 18.6131 73.0405 18.7865 73.0104 19.0241C72.9801 19.2619 72.9183 19.599 72.8733 19.7732C72.828 19.9476 72.7654 20.2739 72.7344 20.4981C72.7033 20.7223 72.6383 21.1094 72.5898 21.3586C72.5415 21.6077 72.4652 22.0357 72.4204 22.31C72.3406 22.7964 72.2359 23.3858 72.0502 24.3933C71.9995 24.6676 71.935 25.0281 71.9064 25.1947C71.8569 25.4844 71.8407 25.4955 71.5262 25.4499C70.583 25.3137 69.7614 25.2048 69.079 25.1257C68.0792 25.0094 68.0885 25.0281 68.4301 23.8273C68.483 23.6403 68.57 23.3348 68.6232 23.1477C68.7532 22.6899 68.8689 22.2309 68.9367 21.9021C68.9677 21.7528 69.0258 21.5488 69.0662 21.4492C69.1066 21.3494 69.1879 21.0846 69.2467 20.8603C69.3056 20.6361 69.3918 20.3276 69.4381 20.1746C69.4846 20.0215 69.5225 19.8274 69.5225 19.7429C69.5225 19.6586 69.5592 19.5189 69.6043 19.4324C69.6491 19.3459 69.7333 19.0916 69.7915 18.8674C69.8493 18.6431 69.9348 18.3344 69.9813 18.1814C70.0276 18.0286 70.0658 17.8169 70.0658 17.7112C70.0658 17.6055 70.1064 17.4939 70.1562 17.4631C70.2062 17.4323 70.2468 17.2896 70.2468 17.1462C70.2468 17.0025 70.283 16.8626 70.3273 16.8352C70.3717 16.8079 70.4298 16.6526 70.4566 16.4902C70.5086 16.1746 70.6275 15.6808 70.7839 15.1306C70.8371 14.9435 70.924 14.6377 70.9772 14.451C71.0302 14.2642 71.109 13.9685 71.1521 13.7943C71.1954 13.6198 71.2742 13.3244 71.3272 13.1374C71.3804 12.9506 71.4673 12.6448 71.5203 12.458C71.5735 12.2712 71.6523 11.9755 71.6954 11.8011C71.7387 11.6269 71.8207 11.3211 71.8778 11.1217C71.9352 10.9224 72.0037 10.6474 72.03 10.5104C72.0923 10.1873 72.1941 10.1947 72.3438 10.5328ZM40.961 10.6023C41.0514 10.6661 41.1874 11.0717 41.3782 11.8464C41.4272 12.0458 41.5053 12.3341 41.5518 12.4871C41.5981 12.6401 41.6361 12.8518 41.6361 12.9572C41.6361 13.0629 41.6725 13.1719 41.7166 13.1992C41.7609 13.2266 41.8139 13.3921 41.8343 13.5668L41.8715 13.8847H39.3997H36.9281V15.4248V16.9648H38.739H40.5498V18.5032V20.0413L38.7616 20.0657L36.9735 20.0903L36.9493 22.5918L36.9252 25.0934L36.4514 25.1525C36.1908 25.1851 35.3764 25.2378 34.642 25.2696L33.3065 25.3275V17.9906C33.3065 13.9552 33.3336 10.6264 33.3668 10.5934C33.4496 10.5104 40.8431 10.5193 40.961 10.6023ZM61.5097 10.6262C62.6383 10.7147 63.1888 10.7957 63.3205 10.8928C63.3703 10.9295 63.6045 11.015 63.8411 11.083C64.0775 11.151 64.2711 11.2385 64.2711 11.2775C64.2711 11.3164 64.3526 11.3482 64.4524 11.3482C64.5519 11.3482 64.6334 11.3802 64.6334 11.4194C64.6334 11.4583 64.7558 11.5628 64.9055 11.6513C65.2402 11.8491 65.7189 12.3501 65.7194 12.5033C65.7197 12.5654 65.7529 12.6164 65.7935 12.6164C66.1984 12.6164 66.722 15.8764 66.3536 16.1044C66.3038 16.1352 66.2629 16.2263 66.2629 16.3072C66.2629 16.5077 65.8864 17.3273 65.7943 17.3273C65.7534 17.3273 65.7199 17.3835 65.7199 17.4522C65.7199 17.6373 65.073 18.2708 64.6018 18.547C64.214 18.7745 64.1379 18.9605 64.3595 19.1392C64.3903 19.164 64.5144 19.3272 64.6353 19.5014C64.756 19.6758 64.9272 19.8976 65.0156 19.9942C65.1042 20.0908 65.1766 20.2234 65.1766 20.2887C65.1766 20.354 65.2077 20.4074 65.2458 20.4074C65.2838 20.4074 65.4155 20.5705 65.5387 20.7699C65.6618 20.969 65.7886 21.1321 65.8206 21.1321C65.8526 21.1321 65.9295 21.2543 65.9915 21.4039C66.0534 21.5535 66.1302 21.6757 66.1622 21.6757C66.1942 21.6757 66.321 21.8388 66.4442 22.0382C66.5673 22.2373 66.6964 22.4004 66.7311 22.4004C66.7658 22.4004 66.8183 22.477 66.8481 22.5707C66.8776 22.664 67.0027 22.8577 67.1256 23.0009C67.2487 23.144 67.3495 23.3121 67.3495 23.3742C67.3495 23.4365 67.38 23.4875 67.4174 23.4878C67.4943 23.4878 68.0235 24.2977 67.9715 24.3354C67.9531 24.3487 67.7546 24.4128 67.5307 24.4776C67.3066 24.5422 67.0416 24.6262 66.9421 24.6641C65.3419 25.273 64.3066 25.5253 64.242 25.3221C64.181 25.1296 63.9059 24.671 63.7505 24.503C63.6884 24.4357 63.6375 24.3455 63.6375 24.3029C63.6375 24.26 63.5865 24.1701 63.5242 24.1028C63.369 23.9348 63.0937 23.476 63.0326 23.2838C63.005 23.1965 62.9464 23.1251 62.9026 23.1251C62.8585 23.1251 62.8226 23.0716 62.8226 23.0063C62.8226 22.941 62.7511 22.8082 62.6642 22.7114C62.577 22.6145 62.4069 22.3521 62.2859 22.1281C62.1653 21.9041 62.0431 21.7006 62.0143 21.6757C61.9271 21.5996 61.6375 21.0966 61.5841 20.9283C61.5565 20.8411 61.5028 20.7699 61.4649 20.7699C61.4269 20.7699 61.3452 20.6474 61.2834 20.4981C61.2216 20.3485 61.1398 20.2263 61.1019 20.2263C61.0639 20.2263 61.0103 20.1549 60.9827 20.0676C60.9273 19.8932 60.6364 19.392 60.549 19.3203C60.5187 19.2954 60.4168 19.1323 60.3227 18.958C60.1518 18.6412 60.1515 18.6441 60.1279 21.7787L60.104 24.9165L59.9016 24.9756C59.79 25.0081 59.2302 25.0761 58.6577 25.1267C58.0851 25.1774 57.3618 25.2417 57.0505 25.2696L56.4848 25.3206V17.9266V10.5328L58.4993 10.5404C59.6073 10.5446 60.962 10.5833 61.5097 10.6262ZM60.1062 15.6966V17.6898H60.6657C61.9948 17.6898 62.8226 16.8899 62.8226 15.6061C62.8226 14.3425 62.1347 13.7036 60.7743 13.7036H60.1062V15.6966ZM47.7928 16.4213C47.7928 16.5211 47.7622 16.6029 47.7251 16.6034C47.6876 16.6036 47.6137 16.6953 47.561 16.8071C47.3059 17.3463 46.8348 18.1912 46.7742 18.2181C46.737 18.2348 46.7065 18.323 46.7065 18.4145C46.7065 18.5056 46.6759 18.5941 46.6385 18.6106C46.5407 18.6542 46.1632 19.4045 46.1632 19.5553C46.1632 19.6606 46.4789 19.6827 47.974 19.6827C49.7245 19.6827 49.7848 19.6766 49.7848 19.5014C49.7848 19.4018 49.7543 19.32 49.7169 19.3195C49.6794 19.3193 49.6063 19.2274 49.5541 19.1157C49.314 18.6015 48.8288 17.7319 48.767 17.7048C48.7291 17.688 48.6983 17.5964 48.6983 17.501C48.6983 17.4054 48.6678 17.3266 48.6303 17.3258C48.5932 17.3251 48.4417 17.0804 48.2939 16.7822C48.027 16.2436 47.7928 16.0748 47.7928 16.4213ZM26.7875 32.8863C26.7875 38.8458 26.8432 39.1814 27.9307 39.8043C28.3309 40.0332 29.9568 40.1019 30.1602 39.8982C30.2176 39.841 30.3237 39.7939 30.3961 39.7939C30.5673 39.7939 31.209 39.1178 31.3305 38.8098C31.641 38.0213 31.6767 37.4144 31.6767 32.9334V28.4736L31.8806 28.4313C32.0771 28.3904 32.6945 28.3421 34.4608 28.2299L35.2983 28.1767V33.4469C35.2983 38.4742 35.2703 39.1397 35.0311 39.7488C34.7955 40.3486 34.5337 40.8811 34.4741 40.8811C34.4361 40.8811 34.3805 40.9587 34.3504 41.0533C34.2864 41.2556 33.4279 42.1494 33.2976 42.1494C33.2486 42.1494 33.1208 42.2309 33.0139 42.3307C32.9071 42.4303 32.7662 42.5118 32.7009 42.5118C32.6357 42.5118 32.5822 42.5525 32.5822 42.6023C32.5822 42.6523 32.5288 42.6929 32.4633 42.6929C32.398 42.6929 32.1759 42.7745 31.9698 42.8741C31.7636 42.9738 31.4935 43.0554 31.3696 43.0554C31.2457 43.0554 31.1221 43.0909 31.0953 43.1345C30.9571 43.3585 28.2578 43.4445 27.3761 43.253C27.0774 43.1882 26.7004 43.1126 26.5386 43.0852C26.3768 43.0579 26.2443 42.9992 26.2443 42.9549C26.2443 42.9105 26.1817 42.8741 26.1049 42.8741C25.7823 42.8741 25.0848 42.4322 24.5273 41.8744C23.7993 41.146 23.5732 40.6978 23.2952 39.4317C23.092 38.5062 23.1048 28.5131 23.3092 28.4345C23.388 28.4042 23.7242 28.377 24.0562 28.3743C24.3881 28.3714 24.8228 28.3354 25.022 28.294C25.2213 28.2529 25.7 28.2144 26.0859 28.2087L26.7875 28.1984V32.8863ZM66.7178 28.8309C66.8909 29.1789 67.0633 29.4642 67.1005 29.4652C67.1379 29.4659 67.1685 29.5448 67.1685 29.6401C67.1685 29.7357 67.199 29.8274 67.2364 29.8442C67.2968 29.871 67.7679 30.716 68.023 31.2551C68.076 31.3667 68.1496 31.4584 68.187 31.4589C68.2245 31.4594 68.255 31.5377 68.255 31.6333C68.255 31.7287 68.2855 31.8204 68.3227 31.8371C68.3601 31.8536 68.5705 32.2139 68.7899 32.6372C69.0096 33.0608 69.2236 33.4208 69.2652 33.4376C69.3071 33.4541 69.3413 33.5457 69.3413 33.6413C69.3413 33.7369 69.3822 33.8151 69.4319 33.8151C69.4817 33.8151 69.5225 33.8932 69.5225 33.9885C69.5225 34.0841 69.5531 34.1758 69.5905 34.1926C69.6277 34.2091 69.743 34.3857 69.8464 34.5851C70.452 35.7523 70.6615 36.1283 70.7221 36.1552C70.7595 36.172 70.7901 36.2636 70.7901 36.359C70.7901 36.4546 70.8206 36.533 70.8581 36.5334C70.8952 36.5339 70.9684 36.6256 71.0201 36.7372C71.2161 37.1591 71.5621 37.7569 71.6276 37.7859C71.6648 37.8025 71.6954 37.8944 71.6954 37.9897C71.6954 38.0853 71.7362 38.1634 71.786 38.1634C71.8357 38.1634 71.8766 38.245 71.8766 38.3446C71.8766 38.4441 71.9173 38.5257 71.967 38.5257C72.0167 38.5257 72.0576 38.6072 72.0576 38.707C72.0576 38.8066 72.0882 38.8884 72.1256 38.8889C72.1628 38.8891 72.2359 38.981 72.2876 39.0927C72.4837 39.5145 72.8297 40.1123 72.8952 40.1414C72.9324 40.1579 72.9629 40.2495 72.9629 40.3452C72.9629 40.4405 73.0038 40.5189 73.0535 40.5189C73.1033 40.5189 73.1442 40.6002 73.1442 40.7C73.1442 40.7995 73.1848 40.8811 73.2346 40.8811C73.2845 40.8811 73.3252 40.9163 73.3252 40.9592C73.3252 41.0021 73.486 41.3298 73.6823 41.6873C74.1962 42.623 74.2021 42.6602 73.8485 42.7311C73.6852 42.7637 73.3579 42.8297 73.1215 42.8775C72.5782 42.9876 71.9091 43.1217 71.356 43.2309C71.1193 43.2777 70.8137 43.3435 70.6768 43.3775C70.4643 43.43 70.4278 43.4107 70.4278 43.2471C70.4278 43.1417 70.3872 43.0554 70.3374 43.0554C70.2874 43.0554 70.2468 42.9738 70.2468 42.8741C70.2468 42.7745 70.2062 42.6929 70.1562 42.6929C70.1064 42.6929 70.0658 42.6449 70.0658 42.586C70.0658 42.5274 69.8341 41.9995 69.5511 41.4133L69.0364 40.3476L66.4048 40.32C63.4225 40.2887 63.3658 40.2924 63.3658 40.5292C63.3658 40.6231 63.3249 40.7 63.2752 40.7C63.2254 40.7 63.1846 40.7611 63.1846 40.8358C63.1846 40.9104 63.0218 41.3079 62.8226 41.7186C62.6233 42.1297 62.4603 42.5168 62.4603 42.5793C62.4603 42.6419 62.4197 42.6929 62.3699 42.6929C62.3199 42.6929 62.2793 42.7459 62.2793 42.8107C62.2793 43.1449 62.0522 43.4265 61.8266 43.3723C61.702 43.3425 61.4168 43.2796 61.1927 43.2326C60.9686 43.1855 60.6019 43.1035 60.3778 43.0502C59.9612 42.9512 59.2952 42.8161 58.7709 42.7245C58.5055 42.6782 58.3461 42.5118 58.567 42.5118C58.617 42.5118 58.6577 42.4337 58.6577 42.3381C58.6577 42.2428 58.6882 42.1508 58.7256 42.1343C58.7631 42.1178 58.8781 41.9411 58.9815 41.7418C59.5871 40.5743 59.7966 40.1985 59.8572 40.1714C59.8947 40.1549 59.9252 40.0633 59.9252 39.9677C59.9252 39.8723 59.9557 39.7937 59.9932 39.7934C60.0306 39.7929 60.104 39.7013 60.1564 39.5894C60.431 39.0049 61.0659 37.8424 61.125 37.816C61.1622 37.7995 61.1927 37.7113 61.1927 37.6199C61.1927 37.5284 61.2233 37.4402 61.2607 37.4235C61.3183 37.3979 61.9054 36.3205 62.2271 35.6501C62.2808 35.5384 62.3551 35.4468 62.3926 35.4463C62.4298 35.446 62.4603 35.3674 62.4603 35.2721C62.4603 35.1765 62.4908 35.0848 62.5283 35.068C62.5657 35.0515 62.7211 34.7933 62.8738 34.4944C63.4789 33.3104 63.7763 32.7718 63.8411 32.7429C63.8786 32.7264 63.9091 32.638 63.9091 32.5468C63.9091 32.4554 63.9396 32.3669 63.9768 32.3504C64.0142 32.3339 64.1398 32.1368 64.2561 31.9125C65.0579 30.3651 65.2296 30.0521 65.2897 30.0253C65.3271 30.0085 65.3576 29.9169 65.3576 29.8215C65.3576 29.7259 65.3882 29.647 65.4256 29.6463C65.4628 29.6456 65.6559 29.3196 65.8541 28.9216C66.2932 28.0412 66.3233 28.038 66.7178 28.8309ZM77.4901 33.2219C77.4901 36.7311 77.5206 38.3219 77.5918 38.4988C77.8208 39.0688 77.9085 39.2173 78.1683 39.4775C79.0477 40.3572 81.3247 40.1438 81.7687 39.14C81.8301 39.0015 81.9108 38.8881 81.9485 38.8881C81.9862 38.8881 82.017 38.774 82.017 38.6346C82.017 38.4949 82.068 38.3298 82.1303 38.2677C82.2169 38.1807 82.2504 37.0455 82.2736 33.3801C82.2918 30.5174 82.3389 28.5641 82.3908 28.5012C82.4386 28.4438 82.8526 28.3731 83.3111 28.344C83.7697 28.3149 84.5267 28.2662 84.9936 28.2354C85.6561 28.1917 85.8597 28.2063 85.9203 28.3021C86.0363 28.4855 86.0198 37.4959 85.9014 38.4744C85.7942 39.3615 85.5339 40.2392 85.2643 40.6233C85.1714 40.7557 85.0953 40.8909 85.0953 40.9242C85.0953 40.9575 85.0444 41.0371 84.9823 41.1014C84.92 41.1655 84.7419 41.3562 84.5863 41.5252C84.1046 42.0488 83.351 42.5862 82.8319 42.7765C82.6575 42.8403 82.4334 42.9246 82.3339 42.9635C81.3011 43.3693 79.4459 43.5312 78.2651 43.3191C77.5967 43.1991 76.5006 42.8674 76.4383 42.7666C76.4134 42.726 76.3136 42.6929 76.2171 42.6929C76.1203 42.6929 76.0413 42.6609 76.0413 42.622C76.0413 42.5828 75.9132 42.4751 75.7568 42.3827C75.384 42.1622 74.5927 41.351 74.5927 41.1891C74.5927 41.1194 74.5521 41.0622 74.5021 41.0622C74.4523 41.0622 74.4117 40.9841 74.4117 40.8887C74.4117 40.7931 74.379 40.7015 74.3388 40.685C73.8736 40.4918 73.5562 28.6094 74.0115 28.4345C74.0903 28.4042 74.4265 28.377 74.7585 28.3743C75.0907 28.3714 75.5253 28.3354 75.7246 28.294C75.9236 28.2529 76.4023 28.2144 76.7882 28.2087L77.4901 28.1984V33.2219ZM18.0504 28.6496C18.2496 28.7072 18.5553 28.7964 18.7296 28.8474C19.2182 28.9906 19.9065 29.3092 19.9065 29.3923C19.9065 29.4332 19.9612 29.4667 20.028 29.4667C20.2035 29.4667 20.9931 30.2374 20.9931 30.4089C20.9931 30.4885 21.0337 30.5536 21.0837 30.5536C21.1335 30.5536 21.1741 30.6351 21.1741 30.7349C21.1741 30.8345 21.2105 30.916 21.2549 30.916C21.4405 30.916 21.5538 32.6279 21.4075 33.2261C21.2472 33.8828 20.3279 35.1681 20.0137 35.1752C19.679 35.1826 19.7536 35.6269 20.0895 35.6269C20.2779 35.6269 21.3073 36.7481 21.5036 37.167C21.8668 37.9427 21.8984 38.0851 21.8984 38.9539C21.8984 39.7905 21.8361 40.1308 21.5666 40.7611C21.4147 41.1167 20.7505 41.9683 20.6249 41.9683C20.5742 41.9683 20.4454 42.0498 20.3385 42.1494C20.2316 42.2492 20.0908 42.3307 20.0252 42.3307C19.96 42.3307 19.9065 42.3714 19.9065 42.4212C19.9065 42.4709 19.8275 42.5118 19.731 42.5118C19.6342 42.5118 19.533 42.5478 19.5056 42.5919C19.4783 42.636 19.3436 42.6934 19.2059 42.7198C19.0685 42.7462 18.6708 42.8322 18.3221 42.9115C17.8118 43.0273 17.102 43.0554 14.678 43.0554H11.6674V35.823C11.6674 31.8453 11.6979 28.5591 11.7353 28.5202C11.842 28.4093 17.631 28.5281 18.0504 28.6496ZM43.6959 28.7437C44.1566 28.8588 44.5334 28.9869 44.5334 29.0286C44.5334 29.0702 44.6149 29.1042 44.7144 29.1042C44.8142 29.1042 44.8957 29.135 44.8957 29.1727C44.8957 29.2104 45.0141 29.2937 45.1587 29.3578C45.6052 29.5554 46.5252 30.5139 46.5252 30.7813C46.5252 30.8554 46.5614 30.916 46.6053 30.916C46.6892 30.916 46.6976 30.9429 46.9259 31.9579C47.1938 33.1485 47.0525 34.0405 46.4124 35.1964C46.2484 35.4931 45.1786 36.5327 45.0378 36.5327C44.7615 36.5327 44.7181 36.7629 44.9449 37.0268C45.0673 37.1692 45.1673 37.3173 45.1673 37.3557C45.1673 37.3942 45.2195 37.4797 45.2833 37.5454C45.3473 37.6112 45.4988 37.8079 45.6199 37.9821C45.7411 38.1565 45.8926 38.3532 45.9566 38.419C46.0204 38.4848 46.0726 38.5703 46.0726 38.6087C46.0726 38.6471 46.1745 38.7972 46.2989 38.9419C46.4233 39.0867 46.5252 39.2472 46.5252 39.2984C46.5252 39.3497 46.6067 39.4504 46.7065 39.5221C46.806 39.5941 46.8875 39.6949 46.8877 39.7461C46.8877 39.7974 47.0099 39.9819 47.1591 40.1564C47.3084 40.3309 47.4305 40.5154 47.4305 40.5667C47.4305 40.6179 47.5123 40.7187 47.6118 40.7907C47.7115 40.8624 47.793 40.9631 47.793 41.0144C47.7933 41.0657 47.9154 41.2502 48.0644 41.4247C48.2136 41.5991 48.3358 41.7928 48.3358 41.8549C48.336 41.9172 48.3769 41.9683 48.4267 41.9683C48.7333 41.9683 48.4749 42.3026 48.0871 42.4074C47.8507 42.4714 47.5864 42.5619 47.5 42.6084C47.4133 42.655 47.2426 42.6929 47.1205 42.6929C46.9981 42.6929 46.873 42.7338 46.8422 42.7836C46.8114 42.8334 46.7067 42.8741 46.6092 42.8741C46.5119 42.8741 46.3617 42.91 46.275 42.9541C45.4047 43.3962 44.7144 43.4238 44.7144 43.0165C44.7144 42.9381 44.6787 42.8741 44.6349 42.8741C44.5913 42.8741 44.5048 42.7518 44.443 42.6023C44.381 42.4529 44.2995 42.3307 44.2615 42.3307C44.2234 42.3307 44.1699 42.2593 44.1421 42.172C44.0813 41.9796 43.8059 41.521 43.6508 41.353C43.5885 41.2857 43.5375 41.1955 43.5375 41.1529C43.5375 41.1103 43.4865 41.0198 43.4245 40.9521C43.3191 40.8375 43.2033 40.6512 42.9575 40.2017C42.9031 40.1019 42.8381 40.0002 42.8132 39.9753C42.7236 39.8856 42.4389 39.3832 42.3896 39.2279C42.3621 39.1407 42.3084 39.0692 42.2704 39.0692C42.2325 39.0692 42.1508 38.947 42.0889 38.7975C42.0269 38.6481 41.9454 38.5257 41.9074 38.5257C41.8695 38.5257 41.8158 38.4545 41.788 38.3672C41.739 38.212 41.4541 37.7096 41.3647 37.6199C41.275 37.5302 40.9901 37.0277 40.9411 36.8725C40.7389 36.2353 40.6869 36.8577 40.7145 39.5813C40.7522 43.2998 40.9692 42.8797 38.92 43.0534C38.3971 43.0978 37.7568 43.1626 37.4973 43.1973L37.0252 43.2609L37.0229 35.9248C37.0217 31.8901 37.0508 28.5579 37.0875 28.52C37.2626 28.3396 42.8327 28.5281 43.6959 28.7437ZM57.4625 28.8097C57.5182 28.9965 57.5874 29.2922 57.6162 29.4667C57.676 29.8289 57.792 30.4166 57.9186 31.0003C58.0649 31.6755 58.204 31.6407 55.3434 31.6407H52.7726V32.8186V33.9962L54.2891 34.008C55.1232 34.0144 55.9585 34.0191 56.1452 34.0181L56.4848 34.0161V35.5897V37.163L54.6514 37.1877L52.8179 37.2121L52.7928 38.5937L52.7679 39.9753H55.6222C57.3709 39.9753 58.4767 40.0086 58.4767 40.0615C58.4767 40.1091 58.4402 40.2414 58.3959 40.356C58.3252 40.5386 58.122 41.2145 57.8299 42.24C57.7802 42.4145 57.6967 42.6693 57.6445 42.8063L57.5492 43.0554H53.3501H49.1509V35.823C49.1509 31.8453 49.178 28.5636 49.2113 28.5306C49.2445 28.4973 51.0918 28.4702 53.3163 28.4702H57.361L57.4625 28.8097ZM15.3661 32.6693C15.3585 33.3991 15.3484 34.0472 15.3434 34.1095C15.3151 34.4621 17.0119 34.2404 17.4315 33.8362C18.5028 32.8053 17.8231 31.5146 16.1465 31.3963L15.3796 31.3421L15.3661 32.6693ZM40.7281 31.6269C40.7266 31.6595 40.7165 32.5727 40.7054 33.6564L40.6855 35.6269H41.2019C42.0875 35.6269 42.8667 35.2272 43.1452 34.6304C43.4557 33.9654 43.5244 33.3821 43.3452 32.9359C43.0363 32.1676 42.8846 31.9835 42.3887 31.7755C42.0825 31.6474 40.7325 31.5264 40.7281 31.6269ZM66.0152 34.5397C65.9287 34.7391 65.827 34.902 65.7891 34.902C65.7509 34.902 65.7199 34.9803 65.7199 35.0757C65.7199 35.1713 65.6894 35.263 65.6519 35.2795C65.5914 35.3066 65.1202 36.1515 64.8653 36.6907C64.8124 36.8023 64.7385 36.8939 64.7013 36.8944C64.6639 36.8947 64.6334 36.9767 64.6334 37.0763C64.6334 37.1758 64.5925 37.2574 64.5427 37.2574C64.3511 37.2574 64.4607 37.5297 64.656 37.5386C65.1828 37.5627 68.0331 37.509 68.0681 37.4742C68.1232 37.4195 67.6819 36.5359 67.5984 36.5342C67.5612 36.5334 67.5307 36.4511 67.5307 36.3516C67.5307 36.2518 67.4898 36.1705 67.4401 36.1705C67.3903 36.1705 67.3495 36.0921 67.3495 35.9968C67.3495 35.9012 67.3189 35.8095 67.2817 35.793C67.2042 35.7585 66.785 35.022 66.5557 34.5171C66.3577 34.0814 66.211 34.0876 66.0152 34.5397ZM15.3762 37.1766C15.3742 37.196 15.3639 37.8747 15.3535 38.6844L15.3343 40.1564H16.2118C16.6989 40.1564 17.1141 40.1162 17.1451 40.0657C17.1759 40.0159 17.2904 39.9753 17.3995 39.975C17.6172 39.975 17.9866 39.6796 18.1637 39.364C18.2918 39.1358 18.3196 37.9821 18.1969 37.9821C18.1529 37.9821 18.0965 37.904 18.0713 37.8081C17.9736 37.4338 15.4099 36.8331 15.3762 37.1766ZM86.5439 46.9509V47.5849H48.7889H11.0337V46.9509V46.3166H48.7889H86.5439V46.9509ZM28.6653 51.3897C28.7515 51.5891 28.8532 51.7522 28.8914 51.7522C28.9293 51.7522 28.9606 51.8337 28.9606 51.9333C28.9606 52.0331 28.9911 52.1149 29.0286 52.1152C29.0658 52.1156 29.1392 52.2073 29.1914 52.3189C29.4315 52.8332 29.9166 53.7028 29.9784 53.7301C30.0161 53.7466 30.0471 53.8383 30.0471 53.9339C30.0471 54.0295 30.0878 54.1076 30.1375 54.1076C30.1875 54.1076 30.2282 54.1857 30.2282 54.2811C30.2282 54.3767 30.2587 54.4684 30.2961 54.4851C30.3565 54.512 30.8276 55.3569 31.0827 55.8961C31.1357 56.0077 31.2093 56.0993 31.2467 56.0998C31.2842 56.1003 31.3147 56.1821 31.3147 56.2817C31.3147 56.3815 31.3452 56.4633 31.3824 56.4635C31.4198 56.464 31.4932 56.5557 31.5452 56.6676C31.7856 57.1816 32.2705 58.0512 32.3325 58.0785C32.3702 58.095 32.401 58.1867 32.401 58.2823C32.401 58.3779 32.4419 58.456 32.4916 58.456C32.5414 58.456 32.5822 58.5376 32.5822 58.6371C32.5822 58.7367 32.613 58.8182 32.6507 58.8182C32.6884 58.8182 32.7731 58.9407 32.8393 59.09C33.0974 59.6735 33.1255 59.3017 33.1255 55.2852V51.2086H34.5514C35.8744 51.2086 36.2268 51.2493 37.4488 51.543C37.5608 51.5701 37.6524 51.628 37.6524 51.6721C37.6524 51.7162 37.7056 51.7522 37.7706 51.7522C37.9728 51.7522 38.523 52.3229 38.7261 52.7435C38.9271 53.1599 39.0167 54.6512 38.8407 54.6512C38.7971 54.6512 38.7377 54.7707 38.7084 54.9171C38.6567 55.1756 37.9176 56.0099 37.7406 56.0099C37.6921 56.0099 37.6524 56.071 37.6524 56.1459C37.6524 56.2206 37.6931 56.2817 37.743 56.2817C37.7928 56.2817 37.8337 56.3327 37.8337 56.395C37.8339 56.4571 37.9561 56.6508 38.1051 56.8253C38.2543 56.9997 38.3764 57.1843 38.3764 57.2355C38.3767 57.2868 38.4582 57.3876 38.5577 57.4595C38.6574 57.5312 38.739 57.632 38.7392 57.6833C38.7392 57.7345 38.8614 57.9191 39.0106 58.0935C39.1596 58.268 39.2817 58.4466 39.282 58.4905C39.282 58.5346 39.3534 58.6369 39.4406 58.7179C39.6034 58.8695 39.8607 59.278 39.809 59.3027C39.7932 59.3103 39.6891 59.3675 39.5775 59.4298C39.4662 59.4922 39.2955 59.5429 39.1982 59.5429C39.1007 59.5429 38.9961 59.5838 38.9653 59.6336C38.9345 59.6834 38.7976 59.7243 38.6611 59.7243C38.5247 59.7243 38.3742 59.7595 38.3269 59.8029C37.9827 60.1175 37.2902 59.7635 37.2902 59.2726C37.2902 59.2221 37.2544 59.1807 37.2106 59.1807C37.167 59.1807 37.0806 59.0585 37.0185 58.9089C36.9567 58.7593 36.8752 58.6371 36.837 58.6371C36.7991 58.6371 36.7454 58.5657 36.7178 58.4787C36.658 58.2897 36.3829 57.8291 36.2324 57.6655C36.1733 57.6015 36.0992 57.4677 36.0677 57.3684C36.0364 57.269 35.9726 57.1877 35.9261 57.1877C35.8795 57.1877 35.8416 57.1062 35.8416 57.0064C35.8416 56.9068 35.8037 56.8253 35.7571 56.8253C35.7108 56.8253 35.6485 56.7486 35.6187 56.6548C35.5889 56.5611 35.4843 56.3918 35.3863 56.2787L35.208 56.0727V57.8804V59.6878L34.4561 59.7967C33.4759 59.9384 33.2122 59.9337 33.09 59.7726C33.0073 59.6632 32.894 59.6558 32.4463 59.7309C32.1476 59.7809 31.6994 59.8554 31.4504 59.8965C30.915 59.9847 30.7714 59.946 30.7714 59.7144C30.7714 59.6203 30.7305 59.5429 30.6808 59.5429C30.6311 59.5429 30.5904 59.4616 30.5904 59.3618C30.5904 59.2623 30.5495 59.1807 30.4998 59.1807C30.45 59.1807 30.4092 59.1233 30.4092 59.0533C30.4092 58.9833 30.3203 58.7591 30.2114 58.5551L30.0134 58.1842H28.4006C27.0272 58.1842 26.7875 58.2044 26.7875 58.32C26.7875 58.3949 26.7469 58.456 26.6972 58.456C26.6474 58.456 26.6065 58.5376 26.6065 58.6371C26.6065 58.7367 26.5659 58.8182 26.5159 58.8182C26.4662 58.8182 26.4255 58.8714 26.4255 58.9365C26.4255 59.0013 26.3194 59.2674 26.1898 59.5276C25.9268 60.0554 25.995 60.0419 24.841 59.7975C24.0973 59.6402 23.5481 59.3618 23.9808 59.3618C24.0308 59.3618 24.0714 59.2802 24.0714 59.1807C24.0714 59.0809 24.102 58.9991 24.1394 58.9988C24.1766 58.9984 24.25 58.9067 24.3022 58.7951C24.5423 58.2808 25.0275 57.4112 25.0893 57.3839C25.1269 57.3674 25.158 57.2757 25.158 57.1801C25.158 57.0845 25.1986 57.0064 25.2484 57.0064C25.2983 57.0064 25.339 56.9248 25.339 56.8253C25.339 56.7257 25.3796 56.6442 25.4296 56.6442C25.4794 56.6442 25.52 56.566 25.52 56.4704C25.52 56.3751 25.551 56.2832 25.5887 56.2667C25.6505 56.2393 26.1357 55.3697 26.3758 54.8557C26.428 54.7438 26.5014 54.6522 26.5386 54.6517C26.576 54.6514 26.6065 54.5696 26.6065 54.4698C26.6065 54.3703 26.6474 54.2887 26.6972 54.2887C26.7469 54.2887 26.7875 54.2106 26.7875 54.115C26.7875 54.0196 26.8181 53.9277 26.8555 53.9112C26.9161 53.8844 27.3872 53.0394 27.6421 52.5003C27.695 52.3884 27.7689 52.2968 27.8061 52.2965C27.8435 52.296 27.8741 52.2142 27.8741 52.1144C27.8741 52.0149 27.915 51.9333 27.9647 51.9333C28.0144 51.9333 28.0551 51.8517 28.0551 51.7522C28.0551 51.6524 28.0859 51.5711 28.1235 51.5711C28.1612 51.5711 28.2462 51.4486 28.3122 51.2993C28.4656 50.9526 28.4774 50.9555 28.6653 51.3897ZM42.3606 52.9298C42.3606 54.8027 42.4096 55.0979 42.6322 54.5605C42.694 54.4109 42.7716 54.2887 42.8046 54.2887C42.8376 54.2887 42.9376 54.1653 43.0265 54.0145C43.1156 53.8637 43.2873 53.6414 43.4082 53.5204C43.5291 53.3994 43.6281 53.2654 43.6281 53.2228C43.6281 53.1801 43.7005 53.066 43.7889 52.9694C43.8773 52.8729 44.0488 52.6513 44.1694 52.4769C44.2901 52.3024 44.4132 52.1395 44.443 52.1144C44.4726 52.0895 44.5957 51.9266 44.7164 51.7522C45.1621 51.1078 45.2813 51.0194 45.5771 51.1137C45.7251 51.1611 46.1617 51.2934 46.5474 51.408C47.284 51.6268 47.351 51.698 47.0887 51.9843C47.0003 52.0809 46.8291 52.3024 46.7082 52.4769C46.5875 52.6513 46.4644 52.8142 46.4349 52.8393C46.4051 52.8642 46.2817 53.0271 46.1608 53.2016C46.0398 53.376 45.8482 53.6123 45.735 53.7267C45.6219 53.841 45.5293 53.9716 45.5293 54.0169C45.5293 54.0623 45.4276 54.2012 45.303 54.3257C45.1786 54.4504 45.0767 54.5889 45.0767 54.6335C45.0767 54.6783 44.954 54.8431 44.8043 55.0001C44.5381 55.2788 44.5396 55.4917 44.8095 55.7381C44.8368 55.763 44.958 55.9261 45.0786 56.1006C45.1993 56.275 45.3705 56.4966 45.4591 56.5931C45.5475 56.6897 45.6199 56.8223 45.6199 56.8876C45.6199 56.9529 45.6537 57.0064 45.6951 57.0064C45.7367 57.0064 45.828 57.1185 45.8982 57.2555C45.9687 57.3925 46.0977 57.5707 46.1851 57.6512C46.2726 57.7318 46.3445 57.8338 46.3445 57.8777C46.3445 57.9218 46.4666 58.1004 46.6159 58.2746C46.7651 58.4491 46.8872 58.6428 46.8872 58.7051C46.8877 58.9887 47.1441 58.7694 47.3886 58.2761C47.5362 57.9782 47.6876 57.7335 47.7251 57.7328C47.7622 57.7318 47.7928 57.6498 47.7928 57.55C47.7928 57.4504 47.8337 57.3688 47.8834 57.3688C47.9331 57.3688 47.974 57.2873 47.974 57.1877C47.974 57.0879 48.0147 57.0064 48.0644 57.0064C48.1144 57.0064 48.155 56.9248 48.155 56.8253C48.155 56.7257 48.1856 56.6437 48.223 56.6434C48.2602 56.6429 48.3336 56.5513 48.3858 56.4396C48.6259 55.9254 49.111 55.0558 49.1729 55.0285C49.2105 55.0119 49.2416 54.9203 49.2416 54.8247C49.2416 54.7293 49.2822 54.6512 49.332 54.6512C49.3819 54.6512 49.4226 54.5696 49.4226 54.4698C49.4226 54.3703 49.4531 54.2885 49.4906 54.288C49.528 54.2875 49.6014 54.1958 49.6538 54.0842C49.9284 53.4995 50.5633 52.3372 50.6222 52.3108C50.6596 52.2943 50.6901 52.2058 50.6901 52.1144C50.6901 52.0232 50.7207 51.9348 50.7581 51.9183C50.7955 51.9015 50.9233 51.6955 51.0425 51.4604C51.2464 51.0576 51.4144 50.9669 51.4144 51.2591C51.4144 51.3311 51.4553 51.3897 51.505 51.3897C51.5548 51.3897 51.5957 51.4713 51.5957 51.5711C51.5957 51.6706 51.6262 51.7524 51.6634 51.7529C51.7008 51.7532 51.774 51.8451 51.8262 51.9567C52.0665 52.471 52.5514 53.3405 52.6135 53.3676C52.6512 53.3844 52.6819 53.4761 52.6819 53.5714C52.6819 53.667 52.7228 53.7451 52.7726 53.7451C52.8223 53.7451 52.8632 53.8267 52.8632 53.9263C52.8632 54.0261 52.8937 54.1079 52.9309 54.1084C52.9684 54.1086 53.0417 54.2003 53.0937 54.3121C53.3341 54.8264 53.819 55.696 53.881 55.7231C53.9187 55.7396 53.9495 55.828 53.9495 55.9195C53.9495 56.0106 53.9805 56.0991 54.0182 56.1156C54.0803 56.143 54.5652 57.0125 54.8055 57.5265C54.8575 57.6384 54.9309 57.7301 54.9683 57.7306C55.0055 57.7308 55.036 57.8094 55.036 57.9048C55.036 58.0004 55.0666 58.0921 55.104 58.1086C55.1414 58.1253 55.3286 58.4385 55.5202 58.8049C55.9179 59.5653 55.8987 59.6292 55.2419 59.7356C55.0043 59.774 54.5937 59.8462 54.3295 59.896C53.8241 59.9914 53.5875 59.9549 53.5875 59.7822C53.5875 59.725 53.4244 59.3421 53.2252 58.9311L52.8632 58.1842H51.2334C49.8452 58.1842 49.6036 58.2042 49.6036 58.32C49.6036 58.3949 49.563 58.456 49.5132 58.456C49.4635 58.456 49.4226 58.5105 49.4226 58.5767C49.4226 58.6433 49.2802 58.9905 49.1064 59.348L48.7899 59.9983L48.4048 59.9438C48.1927 59.9138 47.8969 59.8556 47.7477 59.8142C47.2239 59.6701 46.839 59.6425 46.4802 59.7238C45.1744 60.0197 45.2375 60.0182 45.0149 59.7593C44.9023 59.6282 44.7861 59.4443 44.7563 59.3507C44.7267 59.2573 44.6693 59.1807 44.629 59.1807C44.5886 59.1807 44.5048 59.0585 44.443 58.9089C44.381 58.7593 44.2995 58.6371 44.2618 58.6371C44.2241 58.6371 44.1426 58.5149 44.0808 58.3653C44.019 58.2158 43.9374 58.0935 43.8998 58.0935C43.8621 58.0935 43.7806 57.9713 43.7185 57.8217C43.6567 57.6724 43.5703 57.55 43.5264 57.55C43.4828 57.55 43.4469 57.4965 43.4469 57.4312C43.4469 57.3659 43.3656 57.2249 43.2659 57.118C43.1664 57.0111 43.0849 56.8886 43.0849 56.8462C43.0849 56.8036 43.0134 56.6897 42.9263 56.5931C42.8393 56.4966 42.71 56.3056 42.6394 56.1686C42.398 55.7004 42.3606 55.9204 42.3606 57.8023V59.6853L41.523 59.7965C41.0625 59.8578 40.5734 59.9074 40.4365 59.9066L40.1875 59.9054V55.557V51.2086L40.6628 51.2034C40.9243 51.2005 41.3011 51.1645 41.5004 51.1231C41.6996 51.082 41.9747 51.0435 42.1116 51.0378L42.3606 51.0275V52.9298ZM63.8185 55.4663C63.8185 60.0453 63.8121 60.124 63.467 59.7442C63.3865 59.6558 63.137 59.4421 62.9132 59.2699C62.6891 59.0977 62.363 58.8128 62.1887 58.6371C62.0145 58.4614 61.6887 58.1756 61.4646 58.0019C61.2408 57.8282 60.8884 57.5179 60.6817 57.3127C60.4751 57.1074 60.1491 56.8221 59.9572 56.6784C59.7654 56.535 59.4657 56.2743 59.2916 56.0993C59.1172 55.9244 58.8015 55.6457 58.5897 55.4801L58.205 55.1795V57.4324V59.6853L57.3675 59.7965C56.9069 59.8578 56.4383 59.9074 56.3262 59.9066L56.1226 59.9054V55.5013V51.0972L56.3715 51.2601C56.5085 51.3498 56.7631 51.5698 56.9375 51.749C57.1118 51.9284 57.397 52.1743 57.5711 52.2958C57.7455 52.417 58.0307 52.6617 58.205 52.8393C58.3794 53.0168 58.6646 53.2612 58.8387 53.3822C59.013 53.5032 59.2576 53.7065 59.3819 53.8341C59.5065 53.9615 59.7917 54.2069 60.0158 54.3794C60.2399 54.5516 60.5256 54.7956 60.651 54.921C60.9199 55.1908 61.6131 55.7381 61.6855 55.7381C61.7134 55.7381 61.736 54.719 61.736 53.4734V51.2086L62.2113 51.2034C62.4729 51.2005 62.8496 51.1645 63.0489 51.1231C63.2481 51.082 63.5027 51.0435 63.6148 51.0378L63.8185 51.0275V55.4663ZM69.1829 51.1694C69.3696 51.202 69.5225 51.2596 69.5225 51.2978C69.5225 51.336 69.6398 51.3907 69.7831 51.4193C69.9267 51.4479 70.0998 51.5245 70.168 51.5891C70.2362 51.6539 70.4042 51.7648 70.5411 51.8355C70.8541 51.9969 70.8539 52.1112 70.5401 52.4409C70.4027 52.5853 70.1899 52.846 70.0678 53.0205C69.6905 53.5584 69.6595 53.5754 69.4359 53.3672C68.6867 52.6688 67.1884 52.7947 67.1714 53.5576C67.1675 53.735 67.7868 54.2887 67.9893 54.2887C68.0797 54.2887 68.1789 54.3294 68.2097 54.3794C68.2405 54.4292 68.3656 54.4698 68.488 54.4698C68.6101 54.4698 68.7911 54.5107 68.8899 54.5605C68.9889 54.6103 69.1507 54.6918 69.2497 54.7416C69.3487 54.7914 69.4913 54.8323 69.5666 54.8323C69.642 54.8323 69.7035 54.873 69.7035 54.9227C69.7035 54.9728 69.7597 55.0134 69.8284 55.0134C70.3877 55.0134 70.9711 56.1237 70.9711 57.1877C70.9711 58.766 70.1436 59.6582 68.3754 59.9869C67.8171 60.0907 66.7537 60.001 66.3082 59.8127C66.2087 59.7706 65.9642 59.6826 65.765 59.6171C65.566 59.5513 65.3488 59.4466 65.2828 59.384C65.2165 59.3214 65.084 59.2283 64.9885 59.177C64.8195 59.0863 64.7425 58.8182 64.8853 58.8182C64.9245 58.8182 65.0294 58.6948 65.1183 58.544C65.2074 58.3932 65.3729 58.1771 65.4862 58.0637C65.5995 57.9506 65.7635 57.7486 65.8509 57.6153L66.0098 57.3728L66.3853 57.6273C67.5009 58.3836 69.1167 57.9866 68.6948 57.0601C68.5801 56.8078 68.1799 56.603 67.1685 56.279C66.7949 56.1595 66.4691 56.0397 66.4442 56.0129C66.4193 55.9862 66.2804 55.9032 66.1356 55.8285C65.7206 55.6147 65.1766 55.0289 65.1766 54.7961C65.1766 54.7222 65.1358 54.6367 65.086 54.6059C65.036 54.5748 64.9954 54.167 64.9954 53.6946C64.9954 53.1848 65.0321 52.8393 65.086 52.8393C65.1358 52.8393 65.1766 52.7578 65.1766 52.658C65.1766 52.5584 65.2072 52.4766 65.2444 52.4764C65.2818 52.4759 65.3786 52.3591 65.4598 52.2164C65.9708 51.3173 67.5233 50.8806 69.1829 51.1694ZM84.3937 51.1699C84.5804 51.202 84.7331 51.2648 84.7331 51.3091C84.7331 51.3535 84.7905 51.3897 84.8604 51.3897C85.0077 51.3897 85.7209 51.747 85.8876 51.9042C86.0558 52.0629 86.0314 52.1363 85.6839 52.5158C85.5096 52.7063 85.3662 52.8874 85.3655 52.9187C85.3648 52.9497 85.2485 53.1062 85.1074 53.2664L84.8508 53.5574L84.6469 53.3672C84.1772 52.9295 83.3914 52.7546 82.9299 52.985C82.3231 53.2878 82.3531 53.892 82.9888 54.1645C83.1764 54.2451 83.4005 54.3466 83.487 54.3902C83.5734 54.4341 83.7064 54.4698 83.7825 54.4698C83.8586 54.4698 84.0017 54.5107 84.1007 54.5605C84.1997 54.6103 84.3615 54.6918 84.4605 54.7416C84.5592 54.7914 84.7018 54.8323 84.7772 54.8323C84.8525 54.8323 84.9143 54.873 84.9143 54.9227C84.9143 54.9728 84.9764 55.0134 85.0525 55.0134C85.2219 55.0134 86.0009 55.7778 86.0009 55.9441C86.0009 56.0101 86.0472 56.1107 86.1036 56.1674C86.7082 56.7723 85.6992 59.5429 84.8744 59.5429C84.7966 59.5429 84.7331 59.5838 84.7331 59.6336C84.7331 59.6834 84.6715 59.7243 84.5961 59.7243C84.5208 59.7243 84.3883 59.7615 84.3019 59.8073C83.9455 59.9956 82.8435 60.1188 82.4822 60.0104C82.2896 59.9527 82.0123 59.9054 81.8663 59.9054C81.72 59.9054 81.5619 59.8729 81.5146 59.8332C81.4673 59.7938 81.2656 59.7058 81.0664 59.6383C80.2271 59.3532 79.8671 58.9722 80.2062 58.7278C80.3059 58.6558 80.3872 58.5528 80.3872 58.4989C80.3872 58.4449 80.5241 58.2512 80.6916 58.0684C80.8588 57.8856 81.0607 57.6433 81.1403 57.5297C81.2326 57.3977 81.3107 57.3578 81.3565 57.4184C81.6988 57.8703 82.6691 58.1734 83.2212 58.0006C84.3528 57.6463 84.2211 56.8997 82.9523 56.4781C80.8297 55.7726 80.2062 55.1477 80.2062 53.7272C80.2062 51.8108 81.9468 50.7478 84.3937 51.1699ZM76.0524 52.024C76.2703 52.4476 76.4794 52.8076 76.5168 52.8241C76.554 52.8408 76.5845 52.9325 76.5845 53.0281C76.5845 53.1235 76.6151 53.2018 76.6525 53.2023C76.6899 53.2028 76.7636 53.2945 76.8165 53.4061C77.0717 53.9452 77.5428 54.7902 77.6031 54.8173C77.6405 54.8338 77.6711 54.9254 77.6711 55.0211C77.6711 55.1164 77.7016 55.195 77.739 55.1953C77.7762 55.1958 77.8496 55.2874 77.9018 55.399C78.1419 55.9133 78.6271 56.7829 78.6889 56.8102C78.7266 56.8267 78.7576 56.9184 78.7576 57.014C78.7576 57.1096 78.7982 57.1877 78.848 57.1877C78.898 57.1877 78.9386 57.2693 78.9386 57.3688C78.9386 57.4684 78.9692 57.5504 79.0066 57.5507C79.0438 57.5512 79.1177 57.6429 79.1706 57.7545C79.4257 58.2936 79.8966 59.1386 79.9572 59.1657C80.2906 59.3138 79.9316 59.7243 79.4686 59.7243C79.3198 59.7243 79.1297 59.7593 79.0457 59.8024C78.962 59.8453 78.6786 59.9046 78.4163 59.9342L77.939 59.9879L77.5108 59.0873L77.0825 58.1869L75.4749 58.1854L73.867 58.1842L73.5961 58.7438C73.4471 59.0516 73.3252 59.3574 73.3252 59.4232C73.3252 59.4892 73.2845 59.5429 73.2346 59.5429C73.1848 59.5429 73.1442 59.6203 73.1442 59.7144C73.1442 59.8088 73.0932 59.9051 73.0309 59.9285C72.8326 60.003 71.1762 59.694 71.0393 59.557C70.9659 59.4835 71.3132 58.7115 71.4464 58.6521C71.4838 58.6356 71.5144 58.5472 71.5144 58.456C71.5144 58.3646 71.5449 58.2764 71.5823 58.2596C71.6412 58.2335 72.2761 57.0709 72.5507 56.4862C72.6031 56.3746 72.6767 56.2829 72.7139 56.2824C72.7514 56.2819 72.7819 56.2001 72.7819 56.1006C72.7819 56.0008 72.8228 55.9195 72.8725 55.9195C72.9223 55.9195 72.9629 55.8411 72.9629 55.7457C72.9629 55.6501 72.9934 55.5585 73.0309 55.542C73.0888 55.5163 73.4362 54.889 73.8128 54.1308C73.8682 54.0192 73.9443 53.9275 73.9815 53.927C74.0189 53.9267 74.0494 53.8447 74.0494 53.7451C74.0494 53.6456 74.0903 53.564 74.1401 53.564C74.1898 53.564 74.2305 53.4825 74.2305 53.3827C74.2305 53.2831 74.2713 53.2016 74.3211 53.2016C74.3708 53.2016 74.4117 53.12 74.4117 53.0205C74.4117 52.9207 74.4422 52.8389 74.4794 52.8386C74.5169 52.8381 74.5903 52.7465 74.6422 52.6348C74.8961 52.0915 75.368 51.2468 75.45 51.1896C75.5726 51.1041 75.5938 51.1332 76.0524 52.024ZM35.2683 53.0808C35.1764 53.1725 35.1961 55.3579 35.289 55.4153C35.3335 55.4429 35.5606 55.4395 35.7931 55.4074C37.116 55.2261 37.1628 53.4031 35.8519 53.1217C35.2946 53.0022 35.3434 53.0054 35.2683 53.0808ZM28.2341 54.9454C28.1346 55.1075 28.0031 55.352 27.9416 55.489C27.8802 55.626 27.7992 55.7381 27.7615 55.7381C27.7239 55.7381 27.6931 55.8162 27.6931 55.9118C27.6931 56.0074 27.6576 56.0991 27.6145 56.1156C27.5081 56.1565 27.3899 56.553 27.4832 56.5559C28.5705 56.5912 29.5039 56.5872 29.5039 56.5468C29.5036 56.447 28.9261 55.4207 28.8532 55.3909C28.8126 55.3744 28.7796 55.3111 28.7796 55.2505C28.7796 54.7337 28.47 54.5608 28.2341 54.9454ZM51.1672 54.7643C51.1186 54.8266 50.9413 55.1425 50.7734 55.4663C50.6054 55.7903 50.4409 56.0757 50.4074 56.1006C49.9161 56.467 50.7931 56.6851 52.252 56.5594C52.3409 56.5518 52.3401 56.3058 52.2512 56.2667C52.1894 56.2393 51.7043 55.3697 51.4641 54.8557C51.3558 54.6236 51.2923 54.6039 51.1672 54.7643ZM75.3433 54.8323C75.3172 54.9319 75.2599 55.0134 75.216 55.0134C75.1719 55.0134 75.136 55.0915 75.136 55.1871C75.136 55.2825 75.105 55.3744 75.0673 55.3909C74.8661 55.4794 74.4038 56.5535 74.5649 56.5584C74.819 56.5658 76.2494 56.567 76.4215 56.5599C76.5762 56.5535 76.2991 55.8377 76.1092 55.7534C76.0718 55.7366 76.0413 55.645 76.0413 55.5494C76.0413 55.454 76.0006 55.3759 75.9509 55.3759C75.9011 55.3759 75.8603 55.2943 75.8603 55.1945C75.8603 55.095 75.8243 55.0134 75.7802 55.0134C75.7364 55.0134 75.679 54.9319 75.6529 54.8323C75.6268 54.7325 75.5574 54.6512 75.498 54.6512C75.4389 54.6512 75.3692 54.7325 75.3433 54.8323ZM97.4359 67.4426C96.8463 67.7274 96.7537 68.7788 97.2726 69.299C97.7962 69.8236 98.2971 69.8071 98.8694 69.2458C99.8333 68.3003 98.6751 66.8435 97.4359 67.4426ZM98.6236 67.7259C99.195 68.2976 99.1526 68.9821 98.5268 69.2813C97.7447 69.6551 97.0418 69.1452 97.1765 68.3015C97.2913 67.584 98.1431 67.2449 98.6236 67.7259ZM97.5898 68.421C97.5898 68.7833 97.6287 69.0551 97.6804 69.0551C97.7301 69.0551 97.771 68.9723 97.771 68.8712C97.771 68.5795 98.0235 68.5516 98.252 68.818C98.448 69.0462 98.6763 69.1344 98.6763 68.9816C98.6763 68.9412 98.5926 68.8183 98.4904 68.7084C98.3222 68.5277 98.3177 68.4952 98.4451 68.3678C98.7283 68.0844 98.4724 67.7868 97.9456 67.7868H97.5898V68.421ZM98.2237 67.9669C98.3288 68.0339 98.3367 68.0899 98.2591 68.2146C98.1217 68.4358 97.8939 68.4644 97.8427 68.2668C97.7535 67.9231 97.9331 67.7816 98.2237 67.9669Z" fill="white"/>
</svg>
