<svg width="300" height="53" viewBox="0 0 300 53" fill="none" xmlns="http://www.w3.org/2000/svg">
<path fill-rule="evenodd" clip-rule="evenodd" d="M276.487 8.17607C277.26 8.91601 277.647 9.88062 277.647 11.0715V42.1277C277.647 43.3001 277.26 44.2559 276.487 44.9959C275.716 45.7358 274.808 46.104 273.767 46.104C272.708 46.104 271.801 45.74 271.046 45.0089C270.291 44.2793 269.914 43.3189 269.914 42.1277V11.0715C269.914 9.88062 270.295 8.91601 271.059 8.17607C271.824 7.43614 272.725 7.06633 273.767 7.06633C274.808 7.06633 275.716 7.43614 276.487 8.17607ZM299.034 40.242C300.313 41.7332 300.142 43.9777 298.652 45.2569C297.98 45.8303 297.155 46.1115 296.333 46.1115C295.331 46.1115 294.336 45.6923 293.63 44.8741L277.647 26.5943L293.621 8.25302C294.924 6.78484 297.174 6.64425 298.646 7.94555C300.119 9.24653 300.255 11.4936 298.953 12.9634L287.12 26.5943L299.034 40.242ZM236.769 45.2322C236.156 44.6462 235.851 43.9212 235.851 43.055C235.851 42.1874 236.147 41.2764 236.74 40.3206L255.471 13.1985H239.031C238.17 13.1985 237.481 12.8865 236.971 12.2657C236.458 11.6417 236.202 10.9251 236.202 10.1111C236.202 9.28289 236.458 8.56471 236.971 7.96146C237.481 7.35659 238.17 7.05464 239.031 7.05464H261.481C262.504 7.05464 263.328 7.33029 263.947 7.87867C264.566 8.42997 264.876 9.16536 264.876 10.0865C264.876 10.9874 264.571 11.8985 263.96 12.8183L245.149 40.0215H261.939C262.819 40.0215 263.511 40.3205 264.015 40.915C264.518 41.5115 264.769 42.2235 264.769 43.055C264.769 43.866 264.514 44.578 264.001 45.1933C263.488 45.8066 262.803 46.1115 261.939 46.1115H239.41C238.26 46.1115 237.378 45.8196 236.769 45.2322H236.769ZM223.283 37.2693C225.073 34.792 225.967 31.2361 225.967 26.6082C225.967 21.9965 225.078 18.4485 223.297 15.9605C221.515 13.4738 218.8 12.2293 215.148 12.2293C211.513 12.2293 208.801 13.4783 207.01 15.9751C205.221 18.4702 204.327 22.0154 204.327 26.6082C204.327 31.2361 205.217 34.792 206.998 37.2693C208.78 39.7488 211.495 40.9878 215.148 40.9878C218.781 40.9878 221.494 39.7488 223.283 37.2693ZM201.1 41.668C197.791 38.018 196.137 32.9972 196.137 26.6082C196.137 20.2183 197.791 15.193 201.1 11.5358C204.408 7.87737 209.09 6.04782 215.148 6.04782C221.24 6.04782 225.932 7.87737 229.222 11.5358C232.513 15.193 234.157 20.218 234.157 26.6082C234.157 32.9972 232.513 38.018 229.222 41.668C225.932 45.3167 221.24 47.14 215.148 47.14C209.09 47.14 204.408 45.3167 201.1 41.668ZM167.963 7.0764C168.615 7.0764 169.182 7.29555 169.662 7.73224C170.143 8.17023 170.383 8.77088 170.383 9.53549V43.5917C170.383 44.3751 170.134 44.9842 169.635 45.4212C169.136 45.8605 168.551 46.0767 167.881 46.0767C167.21 46.0767 166.638 45.8634 166.167 45.4371C165.696 45.0089 165.461 44.3926 165.461 43.5917V9.53549C165.461 8.77088 165.708 8.17023 166.208 7.73224C166.706 7.29555 167.291 7.0764 167.963 7.0764ZM187.039 42.4443C187.439 42.8634 187.637 43.3365 187.637 43.866C187.637 44.4475 187.406 44.967 186.944 45.4212C186.481 45.8764 185.951 46.1043 185.353 46.1043C184.72 46.1043 184.175 45.8504 183.72 45.3397L170.935 31.6452L170.386 30.9913L170.939 30.428L183.285 19.0663C183.684 18.7212 184.112 18.5472 184.564 18.5472C185.146 18.5472 185.656 18.7748 186.102 19.2303C186.544 19.6858 186.769 20.1952 186.769 20.7592C186.769 21.2702 186.549 21.7342 186.114 22.152L176.243 31.029L187.039 42.4443ZM136.878 45.4631C136.407 45.054 136.17 44.4751 136.17 43.7296V21.2787C136.17 20.5504 136.416 19.4147 136.906 19.0053C137.395 18.5949 137.974 18.3904 138.646 18.3904C139.317 18.3904 139.892 18.5861 140.373 18.978C140.854 19.3696 141.094 19.9193 141.094 20.6303V23.0342C141.782 21.3774 142.911 20.642 144.48 19.7498C146.049 18.8576 147.875 18.4121 149.959 18.4121C152.952 18.4121 155.336 19.2855 157.114 21.0335C158.892 22.7816 159.779 25.4306 159.779 28.9803V43.7296C159.779 44.4751 159.538 45.054 159.058 45.4631C158.577 45.8722 158.003 46.078 157.332 46.078C156.66 46.078 156.083 45.8722 155.604 45.4631C155.123 45.054 154.883 44.4751 154.883 43.7296V28.9267C154.883 26.5952 154.211 25.3218 153.132 24.1017C152.053 22.8816 150.534 22.2709 148.577 22.2709C146.492 22.2709 144.733 23.018 143.3 24.5108C141.868 26.0037 141.089 28.0345 140.962 30.6007L141.094 43.7296C141.094 44.4576 140.844 45.0309 140.345 45.4501C139.847 45.868 139.262 46.078 138.591 46.078C137.921 46.078 137.349 45.8722 136.878 45.4631ZM123.327 40.6962C124.893 38.9683 125.679 36.7634 125.679 34.0868V33.2702C123.43 33.2702 121.597 33.3092 120.183 33.392C118.769 33.4731 117.519 33.6183 116.432 33.8303C115.344 34.0374 114.529 34.3462 113.983 34.7569C113.44 35.1676 113.035 35.6621 112.772 36.2468C112.509 36.827 112.379 37.5757 112.379 38.4855C112.379 40.142 112.868 41.3559 113.848 42.1309C114.826 42.904 116.16 43.2913 117.846 43.2913C119.931 43.2913 121.758 42.4267 123.327 40.6962ZM110.393 44.5215C108.616 43.155 107.729 41.2157 107.729 38.7027C107.729 37.6657 107.836 36.7543 108.054 35.9712C108.273 35.1894 108.581 34.5017 108.978 33.9098C109.377 33.318 109.939 32.8176 110.664 32.4085C111.39 31.9991 112.188 31.6611 113.06 31.3985C113.929 31.1332 115.034 30.9329 116.378 30.7981C117.717 30.6602 119.1 30.566 120.526 30.5095C121.949 30.4556 123.665 30.4296 125.679 30.4296V27.4527C125.679 25.503 125.201 24.2975 124.168 23.3706C123.133 22.4407 121.693 21.9764 119.842 21.9764C118.736 21.9764 117.632 22.0956 116.525 22.3319C115.419 22.5683 114.548 22.805 113.913 23.043C113.279 23.2806 112.373 23.7595 111.447 24.1787C111.265 24.2686 111.049 24.315 110.794 24.315C110.325 24.315 109.915 24.1189 109.572 23.7274C109.225 23.3358 109.015 22.6699 109.015 22.1972C109.015 21.6514 109.396 21.0787 109.904 20.7868C112.713 19.2043 116.059 18.4105 119.939 18.4105C123.259 18.4105 125.857 19.1855 127.732 20.7319C129.61 22.2796 130.547 24.6647 130.547 27.8881V43.8095C130.547 44.5215 130.297 45.08 129.799 45.4907C129.299 45.9011 128.724 46.1043 128.073 46.1043C127.42 46.1043 126.86 45.9098 126.398 45.5167C125.937 45.1267 125.706 44.5767 125.706 43.866V41.243C124.02 44.7926 121.228 46.5699 117.33 46.5699C114.482 46.5699 112.169 45.8855 110.393 44.5215ZM89.4753 41.8306H80.6903V28.1494H87.5179C91.2159 28.1494 93.9175 28.6322 95.6224 29.5972C97.3273 30.5615 98.1779 32.3546 98.1779 34.9777C98.1779 37.6352 97.4948 39.443 96.125 40.3988C94.7555 41.3533 92.5393 41.8306 89.4753 41.8306ZM88.1159 23.916C91.1799 23.916 93.4149 23.3881 94.8192 22.3319C96.2247 21.2757 96.927 19.5465 96.927 17.143C96.927 16.1579 96.7783 15.3134 96.4789 14.6027C96.1799 13.8933 95.7942 13.329 95.3234 12.9098C94.851 12.4904 94.2442 12.1628 93.5 11.9248C92.7575 11.6897 92.0179 11.5303 91.2841 11.4488C90.55 11.366 89.6835 11.3254 88.6864 11.3254H80.6903V23.916H88.1159ZM76.0399 45.3413C75.514 44.8218 75.251 44.1994 75.251 43.4712V9.74133C75.251 8.99425 75.514 8.36763 76.0399 7.85691C76.5656 7.34782 77.1997 7.09101 77.9438 7.09101H88.9046C93.4552 7.09101 96.8185 7.94393 98.9942 9.64555C101.17 11.3488 102.258 13.7365 102.258 16.815C102.258 19.1449 101.583 21.1306 100.232 22.7686C98.8815 24.4063 96.9458 25.39 94.4247 25.718V25.8267C97.3805 26.1559 99.6977 27.1524 101.374 28.8163C103.052 30.4848 103.89 32.7637 103.89 35.6582C103.89 37.0257 103.619 38.3215 103.074 39.5517C102.531 40.7803 101.736 41.89 100.694 42.8835C99.6516 43.8744 98.2604 44.6624 96.5195 45.2456C94.7786 45.8287 92.8023 46.1186 90.5906 46.1186H77.9438C77.1997 46.1186 76.5656 45.8605 76.0399 45.3413ZM15.583 11.1356C17.6518 9.05669 21.0063 9.05669 23.0765 11.1356L23.7729 11.8346L9.07907 26.5898L23.7729 41.3447L23.0765 42.0453C21.0063 44.1229 17.6518 44.1229 15.583 42.0453L0.191406 26.5898L15.583 11.1356ZM24.469 2.21091C26.5395 0.133636 29.894 0.133636 31.9641 2.21091L56.2417 26.5898L31.9641 50.9697C29.894 53.0489 26.5395 53.0489 24.469 50.9697L23.7729 50.2706L47.3541 26.5898L23.7729 2.91026L24.469 2.21091Z" fill="white"/>
</svg>
