<svg width="164" height="71" viewBox="0 0 164 71" fill="none" xmlns="http://www.w3.org/2000/svg">
<path fill-rule="evenodd" clip-rule="evenodd" d="M73.314 0.905865C72.8653 0.937653 71.213 1.04198 69.6424 1.13775C26.3827 3.77411 -4.59579 21.3031 1.00387 39.9768C7.75317 62.4863 62.5369 76.2178 112.299 67.8731C159.898 59.8915 178.486 35.1023 150.663 16.7105C138.106 8.40943 119.426 3.13224 95.7518 1.19685C92.7937 0.955177 75.7389 0.733885 73.314 0.905865ZM94.6095 2.1729C141.195 6.15249 168.7 25.9461 154.327 45.1472C145.106 57.4659 121.279 66.0836 92.1618 67.6315C49.5238 69.8978 12.8298 57.7874 6.82383 39.467C6.56927 38.691 6.09155 37.4061 5.76151 36.6118C3.58463 31.3672 4.38342 27.487 8.57888 22.9251C19.0394 11.5499 42.9063 3.66081 72.0085 1.95853C75.9539 1.72746 91.0762 1.87132 94.6095 2.1729ZM74.2115 4.16616C73.7179 4.19876 72.1024 4.30187 70.6215 4.39601C24.1899 7.34291 -4.83567 29.1351 13.4414 47.3276C37.4 71.175 118.644 72.3206 145.33 49.1872C145.93 48.6671 147.302 47.5684 148.379 46.7456C154.338 42.1926 156.226 39.3407 156.183 34.9588C156.031 20.0585 130.278 7.35554 94.3648 4.46733C91.3173 4.2224 76.6919 4.00396 74.2115 4.16616ZM89.7307 6.1908C144.486 8.94208 170.599 36.1851 135.827 54.2822C101.06 72.3764 31.6058 66.7585 15.165 44.5221C0.0720929 24.109 39.8078 3.68241 89.7307 6.1908ZM78.2911 7.11265C44.0192 7.95218 17.2223 19.1505 14.07 33.9506C8.61886 59.5439 83.5024 74.1117 128.878 56.2856C144.865 50.0051 152.507 41.2422 149.682 32.4321C145.247 18.6031 120.162 8.35482 87.8374 7.16685C83.6962 7.01443 82.5531 7.00832 78.2911 7.11265ZM32.9117 27.7927C34.1041 28.0739 36.0073 28.9326 36.1268 29.2439C36.1709 29.3585 35.8673 30.3011 35.4516 31.3383L34.6961 33.2243L33.9336 32.741C30.0686 30.2921 25.3126 33.1025 26.656 37.0417C27.4878 39.4792 30.4431 39.8863 33.7549 38.0194C34.0572 37.8487 34.6039 42.1021 34.3073 42.3189C30.6985 44.9549 23.9659 43.5322 22.1207 39.7433C18.8787 33.0866 25.2812 25.9963 32.9117 27.7927ZM74.3327 27.7866C75.3607 28.0287 77.1456 28.7789 77.6869 29.1967C77.9639 29.4106 77.9431 29.5035 77.299 30.9169L76.6177 32.4105L75.5268 31.8554C73.2761 30.7094 71.4725 30.5884 70.8479 31.5408C70.2649 32.4292 70.7916 32.99 73.1508 33.9934C79.7512 36.8009 77.4801 43.7971 70.0732 43.4731C67.6058 43.3651 64.4205 42.3483 64.4205 41.6685C64.4205 41.488 65.5122 38.8133 65.6509 38.6544C65.6766 38.625 66.2388 38.8606 66.9001 39.1785C69.2422 40.3037 71.0511 40.5131 71.8613 39.7527C72.7474 38.9213 72.3394 38.3601 69.974 37.1554C66.9967 35.639 66.0474 34.4311 66.056 32.1688C66.0682 28.8315 69.9789 26.7608 74.3327 27.7866ZM96.4706 27.8636C97.1638 28.0409 98.1625 28.4154 98.6904 28.6966L99.6495 29.2073L99.3325 30.0044C99.1583 30.4433 98.8613 31.1871 98.6724 31.6578C98.4839 32.1285 98.2636 32.6835 98.1828 32.8914L98.036 33.2692L97.5236 32.9044C94.2367 30.5664 89.7968 32.2247 89.814 35.7837C89.8299 39.1976 93.087 40.1989 97.0756 38.017C97.156 37.973 97.83 41.1395 97.9299 42.0284C97.9654 42.3471 95.8057 43.1735 94.1347 43.48C88.7198 44.4732 84.3408 40.8587 84.6998 35.6924C85.0988 29.9478 90.5185 26.3431 96.4706 27.8636ZM110.8 27.8652C114.651 29.0532 116.659 32.9093 115.58 37.045C113.359 45.565 100.797 45.8136 99.4985 37.3633C98.55 31.1952 104.738 25.9951 110.8 27.8652ZM45.3757 28.0319C45.8571 28.2121 46.551 28.6155 46.9169 28.9285C47.7402 29.6323 47.7121 29.6352 47.8385 28.8458L47.9426 28.1937H50.5547H53.1669L53.0824 28.5605C53.0363 28.7622 52.5191 31.6782 51.9336 35.0403C51.3482 38.4025 50.7922 41.5385 50.6979 42.0092L50.5266 42.865H47.9377H45.3483L45.4409 42.2945C45.5568 41.5829 45.5882 41.5784 44.2954 42.4445C39.0727 45.9432 34.4378 40.234 36.7416 33.1392C38.0777 29.0259 41.9329 26.7453 45.3757 28.0319ZM64.9594 28.0164C65.0312 28.0873 64.8851 29.2953 64.6351 30.7009L64.1798 33.2561L63.6919 33.149C60.5396 32.4574 59.4948 33.6698 58.5483 39.1157C58.2754 40.6847 58.0106 42.1702 57.9596 42.4167L57.867 42.865H55.2691C53.297 42.865 52.6724 42.8161 52.6761 42.6613C52.6786 42.5492 53.2517 39.2665 53.9494 35.3664L55.2177 28.2752L57.5924 28.2304L59.9672 28.1852L59.762 29.3715C59.5197 30.7746 59.54 30.835 60.0047 30.0839C61.1274 28.2695 63.9991 27.0714 64.9594 28.0164ZM129.829 28.1232C130.612 28.4501 131.381 29.2052 131.741 30.0024L132.03 30.6418L133.056 29.6576C135.863 26.9646 139.632 27.1602 140.972 30.0684C141.448 31.1003 141.356 32.437 140.438 37.8523L139.587 42.865H137.17C135.346 42.865 134.752 42.8149 134.75 42.6613C134.749 42.5492 135.093 40.3668 135.514 37.8116C136.445 32.1684 136.34 31.6398 134.36 32.0111C132.634 32.3343 131.99 33.6869 131.091 38.8712L130.413 42.7835L127.932 42.8284C126.568 42.8532 125.453 42.8532 125.455 42.8284C125.457 42.8039 125.818 40.6305 126.257 37.9986C127.208 32.2935 127.171 31.9431 125.617 31.9431C123.65 31.9431 122.799 33.4705 121.941 38.5451C121.623 40.428 121.322 42.1702 121.272 42.4167L121.182 42.865H118.748C116.535 42.865 116.314 42.839 116.32 42.5798C116.324 42.4229 116.86 39.1402 117.512 35.2849L118.697 28.2752L121.151 28.2304L123.606 28.1856L123.478 28.964C123.272 30.2151 123.292 30.2302 124.123 29.4538C125.856 27.8339 127.957 27.3436 129.829 28.1232ZM43.6924 31.6578C41.2108 32.9118 40.299 38.2798 42.3841 39.357C43.8352 40.1064 45.5172 39.1414 46.234 37.1485C47.7769 32.8596 46.5514 30.2126 43.6924 31.6578ZM106.93 31.7503C103.236 34.123 104.609 41.1456 108.414 39.3419C110.6 38.3055 111.228 33.6343 109.405 31.9606C108.819 31.4218 107.602 31.3187 106.93 31.7503ZM82.3793 38.0606C83.7855 38.7872 84.2486 40.862 83.2858 42.1229C82.0688 43.7168 79.6476 43.6532 78.6432 42.0011C77.1325 39.5151 79.7834 36.7194 82.3793 38.0606ZM148.46 59.411C148.46 59.5875 148.641 59.6555 149.113 59.6555H149.766V61.4487V63.2419H150.174H150.582V61.4487V59.6555H151.234C151.706 59.6555 151.887 59.5875 151.887 59.411C151.887 59.2093 151.588 59.1665 150.174 59.1665C148.759 59.1665 148.46 59.2093 148.46 59.411ZM152.214 61.194C152.214 63.1331 152.231 63.2419 152.54 63.2419C152.841 63.2419 152.867 63.129 152.879 61.8155L152.892 60.3891L153.382 61.8155C153.798 63.0251 153.927 63.2419 154.23 63.2419C154.53 63.2419 154.668 63.0169 155.103 61.8155L155.62 60.3891L155.63 61.8155C155.64 63.1298 155.666 63.2419 155.967 63.2419C156.276 63.2419 156.293 63.1331 156.293 61.194V59.1457L155.775 59.1971C155.277 59.246 155.239 59.3051 154.752 60.7653L154.247 62.2829L153.751 60.7653C153.272 59.2998 153.238 59.2464 152.734 59.1971L152.214 59.1457V61.194Z" fill="white"/>
</svg>
