<svg width="139" height="60" viewBox="0 0 139 60" fill="none" xmlns="http://www.w3.org/2000/svg">
<g clip-path="url(#clip0_4047_13298)">
<path d="M118.686 18.161L117.876 17.3558C107.304 6.49199 92.7859 0.367151 77.6268 0.375016C70.7273 0.369899 63.8842 1.61758 57.4305 4.05736C43.7255 2.66978 30.1345 7.59841 20.5046 17.4481L19.8892 18.0686C19.839 18.1222 19.8179 18.1968 19.8328 18.2687C19.8513 18.34 19.9058 18.3964 19.9764 18.4174L21.8381 18.961C23.6023 19.4226 30.1925 21.0125 40.7779 22.351H40.8549C41.5729 22.4433 42.3165 22.5305 43.0653 22.6126C46.9322 23.0536 51.0659 23.4178 55.3431 23.6947C56.2765 23.787 57.1997 23.8486 58.0869 23.8896H58.1485C58.5998 23.8896 59.0511 23.9306 59.487 23.9409H59.7486C65.4669 24.2332 71.4315 24.3819 77.473 24.3819H77.5807C91.233 24.3819 112.486 19.8431 116.609 18.9354L118.609 18.5046C118.683 18.4877 118.741 18.4329 118.763 18.361C118.775 18.2854 118.746 18.2092 118.686 18.161ZM85.3505 18.9559L87.0173 18.2789C87.0819 18.2536 87.1299 18.1979 87.1455 18.1302C87.1554 18.0617 87.1348 17.9924 87.0891 17.9404L86.6224 17.4686L86.5813 17.4378L86.53 17.3865C80.3757 11.1399 72.0162 6.68319 62.8821 4.78049C67.6578 3.31359 72.6258 2.56855 77.6217 2.57006C90.8175 2.57006 102.341 7.36529 112.84 17.2224L112.25 17.3558C111.737 17.4686 111.183 17.6019 110.814 17.6789L109.942 17.8584C102.936 19.2995 88.361 22.3049 77.632 22.3151H77.5037C76.0062 22.3151 74.4933 22.3151 72.9803 22.3151C78.1346 21.0843 83.8016 19.5149 85.3351 18.9559H85.3505ZM81.9912 17.4481C78.7807 18.5456 69.3134 21.551 61.7282 21.551H60.4204H59.8614C59.5947 21.551 59.3229 21.551 59.0613 21.5202H58.6716L57.7023 21.4638H57.451L56.3791 21.3766C52.1993 20.9868 49.0862 20.5355 45.5526 19.3662L45.2911 19.279C43.8365 18.8388 42.4692 18.1499 41.2498 17.2429C42.7524 15.8582 45.0603 13.9145 45.4398 13.6529L45.486 13.6222C49.1582 10.6527 53.2826 8.29094 57.7023 6.62678C67.2466 7.71916 75.3908 11.3553 81.9759 17.4481H81.9912ZM42.7576 12.2272C42.1165 12.6785 38.3316 15.4685 36.9982 16.9814L36.5366 17.4942C36.4946 17.542 36.4758 17.6058 36.4853 17.6686C36.4919 17.7297 36.5284 17.7836 36.5828 17.8122L37.4803 18.3507C37.511 18.3507 37.6854 18.4738 37.9572 18.6225C38.147 18.72 38.3829 18.8636 38.6598 19.0277C39.3929 19.4859 40.1515 19.9019 40.9318 20.2739C34.9878 19.5303 30.9772 18.6943 28.0437 18.084L27.5308 17.9763L24.4536 17.325C32.5927 9.84753 41.9985 6.04212 52.4198 6.04212C48.9938 7.76406 45.7557 9.83685 42.7576 12.2272Z" fill="white"/>
<path d="M0 40.3216C0 36.0649 2.64635 33.2544 6.60049 33.2544C9.95971 33.2544 12.1804 35.0648 12.7548 38.4291H9.67764C9.30838 36.7572 8.25189 35.9623 6.64152 35.9623C4.54393 35.9623 3.37974 37.5009 3.37974 40.1575V40.4447C3.37974 43.1321 4.52341 44.6399 6.57998 44.6399C8.29292 44.6399 9.39044 43.8654 9.69816 41.8909H12.7753C12.3701 45.6604 9.9033 47.3479 6.46202 47.3479C2.60532 47.3683 0 44.5578 0 40.3216Z" fill="white"/>
<path d="M17.374 39.1419C17.6766 38.0803 18.4305 37.4084 20.0819 37.4084H20.3025V40.1984H19.1639C17.7382 40.1984 17.374 40.8292 17.374 42.2755V47.0861H14.2559V37.47H17.374V39.1419Z" fill="white"/>
<path d="M23.077 48.7172C24.0566 48.7172 24.3797 48.3685 24.831 47.0453L21.1641 37.4702H24.4002L26.4824 43.763L28.4159 37.4702H31.1648L27.4927 48.0146C26.7388 50.0096 25.7234 51.0917 23.3899 51.0917H21.8103V48.7069L23.077 48.7172Z" fill="white"/>
<path d="M31.834 45.5171L33.7264 44.0503C34.3665 44.8063 35.3004 45.2508 36.2907 45.2709C37.0805 45.2709 37.5729 44.9683 37.5729 44.4144C37.5729 43.8605 36.6138 43.681 35.3317 43.3887C33.7213 43.04 31.9468 42.363 31.9468 40.3936C31.9468 38.5627 33.6598 37.2139 35.942 37.2139C37.6462 37.1361 39.294 37.8337 40.4244 39.1115C40.4244 39.1525 38.5883 40.4962 38.5883 40.4962C37.9694 39.7638 37.0648 39.3339 36.1061 39.3166C35.3317 39.3166 34.8598 39.6192 34.8598 40.1269C34.8598 40.7218 35.4137 40.8193 36.8805 41.1526C38.5268 41.4809 40.5064 42.1117 40.5064 44.1477C40.5064 46.0402 38.773 47.4044 36.4036 47.4044C34.6805 47.4578 33.0171 46.7708 31.834 45.5171Z" fill="white"/>
<path d="M45.3974 47.0862C43.3973 46.9426 43.0126 46.0245 42.9716 44.3167V39.6497H41.6895V37.4701H42.9716V35.5981L46.0077 34.1108V37.4701H47.7361V39.6497H45.9872V44.1936C45.9872 44.6193 46.1872 44.8039 46.618 44.8245H47.695V47.0862H45.3974Z" fill="white"/>
<path d="M49.3066 44.5577C49.3066 42.3986 51.0196 41.9114 53.0556 41.5062C54.7224 41.1575 55.6815 41.0959 55.743 40.5677V40.5062C55.743 39.9164 55.2763 39.4804 54.2044 39.4804C53.1326 39.4804 52.553 40.0343 52.4915 40.8087V40.9677H49.5426C49.5785 38.7265 51.3324 37.2598 54.2455 37.2598C57.1585 37.2598 58.7484 38.4445 58.7484 41.2139V47.081H55.7328V45.7578C55.0629 46.8188 53.8667 47.4287 52.6146 47.3477C50.5888 47.3528 49.3066 46.2502 49.3066 44.5577ZM55.743 43.3782V42.4191C55.1612 42.6672 54.5542 42.8512 53.9326 42.9679C53.0762 43.2141 52.394 43.4807 52.394 44.3167C52.394 44.9065 52.8197 45.3116 53.5941 45.3116C54.1368 45.36 54.6752 45.1819 55.0821 44.8197C55.489 44.4575 55.7282 43.9432 55.743 43.3987V43.3782Z" fill="white"/>
<path d="M63.7236 47.0859H60.6465V33.4182H63.7236V47.0859Z" fill="white"/>
<path d="M75.9032 33.5571C79.247 33.5571 80.8523 34.7418 80.8523 37.1471C80.8701 38.3991 80.0692 39.5162 78.8778 39.9012C80.4676 40.4499 81.4061 41.5116 81.4061 43.1578C81.4061 45.8503 79.6932 47.0915 75.8621 47.0915H70.2207V33.5571H75.9032ZM73.4209 39.0601H75.3903C76.8366 39.0601 77.5495 38.5113 77.5495 37.4702C77.5495 36.4291 77.0366 35.8804 75.7544 35.8804H73.4363L73.4209 39.0601ZM75.6211 44.7631C77.1597 44.7631 77.9597 44.2502 77.9597 42.9681C77.9597 41.6859 77.2264 41.1372 75.6621 41.1372H73.4209V44.7631H75.6211Z" fill="white"/>
<path d="M86.1577 39.1422C86.4603 38.0805 87.2142 37.4087 88.8656 37.4087H89.0862V40.1986H87.9476C86.5219 40.1986 86.1577 40.8295 86.1577 42.2757V47.0863H83.0293V37.4702H86.1577V39.1422Z" fill="white"/>
<path d="M93.7657 36.2189H90.5859V33.5674H93.7657V36.2189ZM93.7246 47.0761H90.6475V37.4702H93.7246V47.0761Z" fill="white"/>
<path d="M95.3496 42.2958C95.3496 39.2853 97.1446 37.2236 99.6063 37.2236C100.73 37.2004 101.795 37.7244 102.463 38.6289V33.4182H105.54V47.0859H102.504V45.9012C101.821 46.809 100.748 47.3398 99.6115 47.3321C97.1446 47.3321 95.3496 45.414 95.3496 42.2958ZM102.571 42.3727V42.1522C102.571 40.4803 101.899 39.5879 100.576 39.5879C99.3755 39.5879 98.5806 40.4649 98.5806 42.2599V42.4599C98.5806 44.2549 99.355 45.0242 100.576 45.0242C101.889 45.0088 102.571 44.0293 102.571 42.3727Z" fill="white"/>
<path d="M107.121 42.1165C107.121 39.2035 108.814 37.2444 111.403 37.2444C112.538 37.1893 113.622 37.7197 114.275 38.6496V37.4906H117.353V46.0656C117.353 50.4351 115.814 51.8968 112.321 51.8968C109.106 51.8968 107.619 50.7172 107.619 48.0708H110.367C110.501 49.2658 110.957 49.635 112.26 49.635C113.768 49.635 114.399 48.6093 114.342 46.9015V45.5168C113.653 46.4342 112.555 46.9523 111.409 46.9015C108.793 46.881 107.121 44.9885 107.121 42.1165ZM114.393 42.1165V41.8909C114.393 40.3831 113.645 39.5266 112.342 39.5266C111.039 39.5266 110.347 40.4241 110.347 41.9935V42.1576C110.347 43.6961 111.039 44.5372 112.342 44.5372C113.645 44.5372 114.393 43.6602 114.393 42.1371V42.1165Z" fill="white"/>
<path d="M118.469 42.3371C118.469 39.3061 120.469 37.2649 123.485 37.2649C126.5 37.2649 128.352 39.183 128.352 42.3576V43.1115H121.438C121.568 44.1369 122.373 44.9456 123.398 45.0794C124.423 45.2132 125.409 44.6385 125.798 43.6808L128.305 44.4347C127.654 46.1886 126.228 47.2913 123.536 47.2913C120.382 47.2913 118.469 45.3732 118.469 42.3371ZM121.443 41.3113H125.315C125.233 40.0292 124.623 39.3933 123.443 39.3933C122.356 39.4035 121.582 40.101 121.438 41.3472L121.443 41.3113Z" fill="white"/>
<path d="M129.705 45.5171L131.603 44.0503C132.242 44.8068 133.176 45.2515 134.167 45.2709C134.962 45.2709 135.454 44.9683 135.454 44.4144C135.454 43.8605 134.495 43.681 133.213 43.3887C131.603 43.04 129.828 42.363 129.828 40.3936C129.828 38.5627 131.541 37.2139 133.823 37.2139C135.528 37.1361 137.175 37.8337 138.306 39.1115C138.306 39.1525 136.47 40.4962 136.47 40.4962C135.85 39.7625 134.943 39.3324 133.982 39.3166C133.213 39.3166 132.741 39.6192 132.741 40.1269C132.741 40.7218 133.29 40.8193 134.757 41.1526C136.408 41.4809 138.383 42.1117 138.383 44.1477C138.383 46.0402 136.654 47.4044 134.311 47.4044C132.576 47.4656 130.898 46.7781 129.705 45.5171Z" fill="white"/>
<path d="M9.50326 52.2354H7.02102C6.94406 52.2359 6.87597 52.2854 6.85178 52.3584L5.36962 56.4613C5.36897 56.4733 5.36897 56.4852 5.36962 56.4972L5.27731 57.0716L5.18499 56.5023C5.18499 56.5023 5.18499 56.5023 5.18499 56.4716L3.71309 52.3687C3.6889 52.2956 3.62081 52.2461 3.54384 52.2456H0.979551C0.930584 52.2456 0.883623 52.2651 0.848999 52.2997C0.814374 52.3343 0.794922 52.3813 0.794922 52.4302V59.4C0.7977 59.4999 0.879553 59.5795 0.979551 59.5795H2.43607C2.53607 59.5795 2.61792 59.4999 2.6207 59.4V55.2971L2.52326 54.1329L2.75404 54.9125L4.45673 59.4615C4.48266 59.5326 4.55034 59.5798 4.62598 59.5795H5.64144C5.71707 59.5798 5.78475 59.5326 5.81068 59.4615L7.53901 54.8766L7.78518 54.056L7.70826 55.3433V59.4C7.70826 59.4991 7.78862 59.5795 7.88776 59.5795H9.48787C9.58701 59.5795 9.66738 59.4991 9.66738 59.4V52.42C9.66796 52.3255 9.59714 52.2458 9.50326 52.2354Z" fill="white"/>
<path d="M16.5738 57.5894V53.8045C16.5738 53.7054 16.4934 53.625 16.3943 53.625H14.7737C14.6737 53.625 14.5918 53.7045 14.589 53.8045V57.9587C14.3097 58.1568 13.9722 58.2561 13.63 58.2407C13.2813 58.2407 13.1633 58.1484 13.1171 58.051C12.9815 57.6824 12.9324 57.2876 12.9735 56.897V53.8199C12.9735 53.7208 12.8932 53.6404 12.794 53.6404H11.158C11.0589 53.6404 10.9785 53.7208 10.9785 53.8199V57.0817C10.9785 58.2612 11.117 58.8715 11.4914 59.2562C11.834 59.6157 12.3191 59.8038 12.8145 59.769C13.5672 59.7501 14.2596 59.3528 14.6557 58.7126C14.6916 59.0767 14.7583 59.4716 14.8762 59.5485C14.9066 59.5687 14.9423 59.5794 14.9788 59.5793H16.5174C16.576 59.5773 16.6306 59.5491 16.6661 59.5024C16.6918 59.4507 16.6918 59.3899 16.6661 59.3382C16.5972 58.7579 16.5664 58.1737 16.5738 57.5894Z" fill="white"/>
<path d="M20.3883 53.415C18.8497 53.415 17.7778 54.2304 17.7778 55.3946C17.7778 56.5588 18.9779 57.0255 20.1267 57.246C21.0088 57.4306 21.4858 57.5896 21.4858 57.882C21.4858 58.1743 21.1883 58.3384 20.5986 58.3384C19.8922 58.3159 19.2279 57.9977 18.7677 57.4614C18.734 57.4265 18.6879 57.4062 18.6394 57.405C18.5896 57.4016 18.5408 57.4203 18.5061 57.4563L17.5624 58.3589C17.5275 58.3926 17.5073 58.4386 17.506 58.4871C17.5039 58.5368 17.5225 58.585 17.5573 58.6205C18.4025 59.3872 19.521 59.781 20.6601 59.7129C22.6397 59.7129 23.3423 58.641 23.3423 57.6358C23.3423 56.3998 22.0294 55.9793 20.8858 55.7485C20.1472 55.5946 19.5831 55.4561 19.5831 55.1792C19.5831 54.8048 20.0601 54.7484 20.3473 54.7484C21.0206 54.7434 21.6662 55.0161 22.132 55.5023C22.1996 55.5612 22.3003 55.5612 22.3679 55.5023L23.3475 54.733C23.3896 54.6989 23.4157 54.6487 23.4193 54.5945C23.4172 54.5422 23.3952 54.4927 23.3577 54.4561C22.5456 53.7282 21.4771 53.3536 20.3883 53.415Z" fill="white"/>
<path d="M27.3803 53.456C26.5482 53.4282 25.7389 53.7305 25.1288 54.297C24.5298 54.933 24.2119 55.7832 24.2467 56.6562C24.2467 58.6256 25.3904 59.759 27.3803 59.759C28.3749 59.8193 29.3436 59.4273 30.0164 58.6922C30.046 58.6525 30.0588 58.6028 30.0523 58.5538C30.0464 58.5046 30.0204 58.46 29.9805 58.4307L28.8881 57.6306C28.8459 57.6025 28.7945 57.5915 28.7445 57.5998C28.6962 57.6112 28.654 57.6405 28.6265 57.6819C28.3466 58.0551 27.8971 58.2615 27.4316 58.2307C27.0652 58.251 26.708 58.1122 26.4515 57.8498C26.195 57.5875 26.0643 57.2271 26.093 56.8613L26.7085 57.0972C26.7287 57.1022 26.7498 57.1022 26.77 57.0972H30.1754C30.2239 57.0986 30.2709 57.0803 30.3056 57.0465C30.3404 57.0127 30.36 56.9663 30.36 56.9177V56.4869C30.4305 55.6501 30.15 54.8215 29.5856 54.1996C28.9732 53.6778 28.1836 53.4115 27.3803 53.456ZM26.4059 55.2715C26.6597 55.0272 27.0101 54.9104 27.3598 54.9535C27.6853 54.9114 28.0113 55.0277 28.2368 55.2663C28.4064 55.4662 28.5039 55.7173 28.5137 55.9792H26.1238C26.1406 55.7194 26.2394 55.4716 26.4059 55.2715Z" fill="white"/>
<path d="M36.9268 57.5896V53.8047C36.9268 53.7056 36.8465 53.6252 36.7473 53.6252H35.1369C35.0378 53.6252 34.9575 53.7056 34.9575 53.8047V57.9589C34.6752 58.155 34.3368 58.254 33.9933 58.241C33.6445 58.241 33.5266 58.1487 33.4804 58.0512C33.3448 57.6826 33.2957 57.2878 33.3368 56.8973V53.8201C33.3368 53.721 33.2565 53.6406 33.1573 53.6406H31.5213C31.4222 53.6406 31.3418 53.721 31.3418 53.8201V57.0819C31.3418 58.2615 31.4803 58.8718 31.8547 59.2564C32.1977 59.6154 32.6825 59.8033 33.1778 59.7693C33.9308 59.7513 34.6235 59.3538 35.019 58.7128C35.0549 59.0769 35.1216 59.4718 35.2447 59.5488C35.2729 59.5695 35.3071 59.5803 35.3421 59.5795H36.8807C36.9394 59.5791 36.9944 59.5507 37.0288 59.5031C37.0633 59.4555 37.073 59.3944 37.055 59.3385C36.9704 58.7594 36.9275 58.1749 36.9268 57.5896Z" fill="white"/>
<path d="M45.4251 53.4454C44.6684 53.4688 43.9752 53.8743 43.584 54.5224C43.5165 54.3099 43.4046 54.1141 43.2558 53.948C42.9413 53.5946 42.4817 53.4054 42.0095 53.4352C41.2565 53.46 40.56 53.8406 40.1324 54.4609L40.0658 53.7737C40.0555 53.6817 39.9788 53.6115 39.8863 53.6095H38.4041C38.305 53.6095 38.2246 53.6899 38.2246 53.7891V59.3997C38.2246 59.4989 38.305 59.5792 38.4041 59.5792H40.035C40.1341 59.5792 40.2145 59.4989 40.2145 59.3997V55.1584H40.2607C40.5544 55.0651 40.8602 55.015 41.1684 55.0097C41.5377 55.0097 41.6095 55.1225 41.6402 55.1738C41.7679 55.5371 41.8135 55.9242 41.7736 56.3072V59.3843C41.7764 59.4843 41.8582 59.5639 41.9582 59.5638H43.4968C43.5959 59.5638 43.6763 59.4835 43.6763 59.3843V55.143H43.743C44.0347 55.0397 44.3413 54.9843 44.6507 54.9789C44.8428 54.9515 45.0356 55.0228 45.1636 55.1686C45.273 55.5359 45.3147 55.9199 45.2867 56.3021V59.3792C45.2867 59.4783 45.367 59.5587 45.4662 59.5587H47.0765C47.1757 59.5587 47.256 59.4783 47.256 59.3792V56.0354C47.256 54.9379 47.1176 54.3122 46.7893 53.948C46.4291 53.5905 45.9313 53.4071 45.4251 53.4454Z" fill="white"/>
<path d="M53.7122 53.4556C51.7736 53.4556 50.5684 54.6659 50.5684 56.6148C50.5684 58.5636 51.7326 59.7586 53.6814 59.7586C55.6303 59.7586 56.8458 58.5534 56.8458 56.6148C56.8458 54.6762 55.6764 53.4556 53.7122 53.4556ZM52.8249 57.8354C52.5979 57.4822 52.4934 57.0641 52.5275 56.6455V56.5378C52.4911 56.1222 52.5824 55.7053 52.789 55.3429C53.019 55.098 53.3461 54.9682 53.6814 54.989C54.0168 54.9623 54.3447 55.0976 54.5635 55.3531C54.7906 55.7046 54.8968 56.1205 54.8661 56.5378V56.6455C54.9075 57.0808 54.8125 57.5181 54.5943 57.8969C54.3443 58.1342 54.0041 58.252 53.6609 58.22C53.3384 58.2248 53.0311 58.0834 52.8249 57.8354Z" fill="white"/>
<path d="M61.7585 51.0916C61.6252 51.0916 61.2456 51.0916 60.6148 51.0916C59.2455 51.0916 58.4865 51.9224 58.4865 53.4251V53.6661H57.4607C57.3616 53.6661 57.2812 53.7465 57.2812 53.8456V55.1175C57.2812 55.2175 57.3608 55.2993 57.4607 55.3021H58.3429C58.3731 55.3102 58.4049 55.3102 58.4352 55.3021L58.4865 55.2714V59.4665C58.4892 59.5665 58.5711 59.646 58.6711 59.646H60.2097C60.3097 59.646 60.3915 59.5665 60.3943 59.4665V55.5432C60.3986 55.5194 60.3986 55.4951 60.3943 55.4714L60.2763 55.2047L60.5738 55.3175H60.6353H61.6611C61.7096 55.3175 61.756 55.2979 61.7898 55.2631C61.8236 55.2284 61.8419 55.1814 61.8406 55.1329V53.861C61.8406 53.7619 61.7602 53.6815 61.6611 53.6815H60.3635L60.1943 53.7174L60.2815 53.5379C60.2863 53.5125 60.2863 53.4864 60.2815 53.461V53.2917C60.2815 52.825 60.3174 52.7789 60.8559 52.7789H61.7072C61.7562 52.7789 61.8031 52.7594 61.8378 52.7248C61.8724 52.6902 61.8918 52.6432 61.8918 52.5942V51.3223C61.9059 51.274 61.8996 51.2221 61.8744 51.1785C61.8492 51.1349 61.8074 51.1035 61.7585 51.0916Z" fill="white"/>
<path d="M69.4555 52.3584C69.427 52.2864 69.3586 52.2381 69.2812 52.2354H67.0861C67.0092 52.2359 66.9411 52.2854 66.9169 52.3584L64.3167 59.3333C64.297 59.3905 64.3066 59.4538 64.3423 59.5026C64.3762 59.5512 64.4318 59.58 64.4911 59.5795H66.0655C66.1412 59.5797 66.2089 59.5326 66.2348 59.4615L66.7476 58.0358H69.3632L69.8761 59.4615C69.902 59.5326 69.9697 59.5797 70.0453 59.5795H71.7993C71.8585 59.58 71.9142 59.5512 71.948 59.5026C71.9763 59.4515 71.9763 59.3895 71.948 59.3384L69.4555 52.3584ZM68.8452 56.4613C68.8233 56.4566 68.8005 56.4566 68.7786 56.4613H67.2708L68.0503 53.9278L68.0862 53.7021L68.1324 53.9278L68.8401 56.4921L68.8452 56.4613Z" fill="white"/>
<path d="M79.9596 53.4454C79.2029 53.4688 78.5096 53.8743 78.1184 54.5224C78.0509 54.3099 77.939 54.1141 77.7902 53.948C77.4757 53.5946 77.0161 53.4054 76.5439 53.4352C75.7905 53.4583 75.0933 53.8393 74.6669 54.4609L74.6002 53.7737C74.5899 53.6817 74.5132 53.6115 74.4207 53.6095H72.9385C72.8385 53.6095 72.7567 53.6891 72.7539 53.7891V59.3997C72.7567 59.4997 72.8385 59.5792 72.9385 59.5792H74.5694C74.6686 59.5792 74.7489 59.4989 74.7489 59.3997V55.1584H74.7951C75.0889 55.0651 75.3946 55.015 75.7028 55.0097C76.0721 55.0097 76.1439 55.1225 76.1747 55.1738C76.3023 55.5371 76.3479 55.9242 76.308 56.3072V59.3843C76.3108 59.4843 76.3926 59.5639 76.4926 59.5638H78.0312C78.1304 59.5638 78.2107 59.4835 78.2107 59.3843V55.143H78.2723C78.566 55.0403 78.8741 54.9849 79.1852 54.9789C79.3772 54.9515 79.5701 55.0228 79.698 55.1686C79.8074 55.5359 79.8491 55.9199 79.8211 56.3021V59.3792C79.8211 59.4783 79.9015 59.5587 80.0006 59.5587H81.611C81.7101 59.5587 81.7905 59.4783 81.7905 59.3792V56.0354C81.7905 54.9379 81.652 54.3122 81.3238 53.948C80.9635 53.5905 80.4657 53.4071 79.9596 53.4454Z" fill="white"/>
<path d="M85.9325 53.4559C85.104 53.4309 84.2989 53.733 83.6913 54.297C83.0923 54.933 82.7744 55.7832 82.8092 56.6562C82.8092 58.6255 83.9529 59.759 85.9428 59.759C86.9374 59.8192 87.9061 59.4272 88.5789 58.6922C88.6085 58.6525 88.6213 58.6028 88.6148 58.5537C88.6089 58.5046 88.5829 58.46 88.543 58.4307L87.4506 57.6306C87.4084 57.6025 87.357 57.5915 87.307 57.5998C87.2587 57.6112 87.2165 57.6405 87.189 57.6819C86.9091 58.0551 86.4596 58.2615 85.9941 58.2306C85.6277 58.251 85.2705 58.1122 85.014 57.8498C84.7575 57.5874 84.6268 57.2271 84.6555 56.8613L85.2709 57.0972C85.2912 57.1022 85.3123 57.1022 85.3325 57.0972H88.7225C88.771 57.0986 88.818 57.0803 88.8527 57.0465C88.8875 57.0127 88.9071 56.9662 88.9071 56.9177V56.4869C88.9763 55.6502 88.696 54.8222 88.1327 54.1996C87.5216 53.679 86.7341 53.4129 85.9325 53.4559ZM84.9581 55.2715C85.2119 55.0272 85.5624 54.9104 85.912 54.9535C86.2376 54.9114 86.5636 55.0277 86.789 55.2663C86.9586 55.4662 87.0562 55.7172 87.066 55.9792H84.676C84.6928 55.7194 84.7916 55.4716 84.9581 55.2715Z" fill="white"/>
<path d="M93.897 53.4558H93.6047C92.858 53.4957 92.2076 53.9784 91.9533 54.6815C91.8835 54.8004 91.8219 54.9237 91.7686 55.0508L91.6404 53.7994C91.6302 53.7075 91.5534 53.6373 91.4609 53.6353H90.1326C90.0335 53.6353 89.9531 53.7157 89.9531 53.8148V59.3998C89.9531 59.499 90.0335 59.5793 90.1326 59.5793H91.7327C91.8319 59.5793 91.9122 59.499 91.9122 59.3998V55.8765C92.4208 55.6524 92.9721 55.5422 93.5278 55.5534H93.897C93.997 55.5534 94.0789 55.4739 94.0816 55.3739V53.6558C94.086 53.6043 94.0684 53.5532 94.0333 53.5152C93.9982 53.4772 93.9488 53.4556 93.897 53.4558Z" fill="white"/>
<path d="M96.7634 53.625H95.1068C95.0176 53.625 94.9453 53.6973 94.9453 53.7865V59.4177C94.9453 59.507 95.0176 59.5793 95.1068 59.5793H96.7634C96.8526 59.5793 96.9249 59.507 96.9249 59.4177V53.7865C96.9249 53.6973 96.8526 53.625 96.7634 53.625Z" fill="white"/>
<path d="M96.8659 50.9839H95.035C94.935 50.9867 94.8554 51.0685 94.8555 51.1685C94.8757 51.709 94.9357 52.2472 95.035 52.7789C95.0501 52.8659 95.1262 52.9289 95.2145 52.9276H96.6966C96.7763 52.927 96.8466 52.8753 96.871 52.7994C96.9844 52.2614 97.0429 51.7132 97.0454 51.1634C97.0454 51.0643 96.965 50.9839 96.8659 50.9839Z" fill="white"/>
<path d="M103.88 57.7125L102.449 57.292C102.405 57.2716 102.355 57.2716 102.311 57.292C102.269 57.3152 102.237 57.3538 102.223 57.3997C102.085 57.9126 101.895 58.1485 101.198 58.1485C100.885 58.1649 100.58 58.0495 100.357 57.8305C100.098 57.4864 99.976 57.0591 100.013 56.6304V56.5432C99.9768 56.1114 100.095 55.6807 100.346 55.3278C100.558 55.1306 100.843 55.0319 101.131 55.0559C101.587 55.0029 102.011 55.2941 102.126 55.738C102.14 55.7854 102.174 55.8245 102.218 55.8457C102.265 55.8635 102.316 55.8635 102.362 55.8457L103.834 55.3329C103.883 55.3165 103.923 55.2789 103.942 55.2303C103.96 55.1824 103.96 55.1295 103.942 55.0816C103.443 54.0008 102.322 53.347 101.136 53.4456C100.296 53.4127 99.4816 53.7348 98.8912 54.333C98.3008 54.9311 97.9895 55.7501 98.0334 56.5894C98.0334 58.5998 99.1514 59.7486 101.111 59.7486C102.649 59.7486 103.593 59.1537 104.029 57.9331C104.046 57.8869 104.046 57.8357 104.029 57.7895C103.995 57.7401 103.939 57.7112 103.88 57.7125Z" fill="white"/>
<path d="M110.62 57.5075V55.7382C110.62 54.2663 109.63 53.4559 107.83 53.4559C106.735 53.405 105.663 53.7862 104.846 54.5176C104.809 54.5561 104.79 54.6082 104.794 54.6612C104.797 54.7142 104.823 54.7633 104.866 54.7945L106.01 55.6458C106.089 55.7011 106.197 55.6879 106.261 55.6151C106.603 55.1403 107.165 54.8748 107.748 54.9125C108.446 54.9125 108.733 55.174 108.733 55.8048V55.8715C108.31 55.9782 107.877 56.0418 107.441 56.0613L107.092 56.0972C105.487 56.2459 104.707 56.8613 104.707 57.9793C104.707 59.0974 105.446 59.759 106.687 59.759C107.576 59.8102 108.4 59.2911 108.738 58.4666C108.738 59.3897 108.892 59.4923 108.948 59.5384C108.98 59.5647 109.02 59.5791 109.061 59.5795H110.692C110.767 59.5821 110.835 59.5396 110.866 59.4718C110.894 59.4071 110.88 59.3323 110.831 59.282C110.688 58.7013 110.618 58.1054 110.62 57.5075ZM108.6 57.8409C108.309 58.1434 107.907 58.3138 107.487 58.3127C106.866 58.3127 106.794 57.9896 106.794 57.7486C106.794 57.3742 106.989 57.1742 107.43 57.087H107.523C107.934 57.0492 108.34 56.9579 108.728 56.8152V57.805C108.682 57.8001 108.636 57.8129 108.6 57.8409Z" fill="white"/>
<path d="M115.763 53.4453C114.966 53.4709 114.227 53.8651 113.763 54.512L113.696 53.7889C113.686 53.6969 113.609 53.6268 113.516 53.6248H112.034C111.934 53.6247 111.852 53.7043 111.85 53.8043V59.3996C111.852 59.4995 111.934 59.5791 112.034 59.5791H113.67C113.77 59.5791 113.852 59.4995 113.855 59.3996V55.1941H113.916C114.249 55.0937 114.594 55.0385 114.942 55.03C115.255 55.03 115.368 55.1274 115.455 55.2095C115.542 55.2916 115.563 55.589 115.563 56.3378V59.4149C115.563 59.5141 115.643 59.5944 115.742 59.5944H117.363C117.462 59.5944 117.542 59.5141 117.542 59.4149V56.0711C117.542 54.912 117.424 54.3223 117.106 53.9633C116.757 53.601 116.265 53.4114 115.763 53.4453Z" fill="white"/>
<path d="M125.76 52.3584C125.736 52.2854 125.668 52.2359 125.591 52.2354H123.391C123.315 52.2388 123.248 52.2872 123.222 52.3584L120.627 59.3333C120.598 59.3862 120.598 59.4497 120.627 59.5026C120.662 59.5493 120.717 59.5775 120.775 59.5795H122.355C122.431 59.5798 122.498 59.5326 122.524 59.4615L123.037 58.0358H125.653L126.166 59.4615C126.191 59.5326 126.259 59.5798 126.335 59.5795H128.094C128.153 59.5775 128.207 59.5493 128.243 59.5026C128.268 59.4509 128.268 59.3901 128.243 59.3384L125.76 52.3584ZM125.155 56.4613C125.132 56.4565 125.107 56.4565 125.083 56.4613H123.601L124.376 53.9278L124.417 53.7021L124.458 53.9278L125.171 56.4921L125.155 56.4613Z" fill="white"/>
<path d="M133.006 53.4556H132.714C131.97 53.4938 131.32 53.9719 131.063 54.671C130.993 54.7899 130.931 54.9132 130.878 55.0403L130.75 53.7889C130.74 53.697 130.663 53.6268 130.57 53.6248H129.242C129.143 53.6248 129.062 53.7052 129.062 53.8043V59.3996C129.062 59.4987 129.143 59.5791 129.242 59.5791H130.842C130.89 59.5791 130.935 59.5602 130.969 59.5265C131.003 59.4929 131.022 59.4472 131.022 59.3996V55.8763C131.53 55.6522 132.082 55.5419 132.637 55.5532H133.006C133.106 55.5532 133.188 55.4736 133.191 55.3737V53.6556C133.195 53.604 133.178 53.553 133.143 53.515C133.108 53.4769 133.058 53.4554 133.006 53.4556Z" fill="white"/>
<path d="M138.293 53.6251H136.631L136.842 53.22C136.849 53.1914 136.849 53.1613 136.842 53.1328V51.9122C136.842 51.8646 136.823 51.8189 136.789 51.7852C136.755 51.7516 136.71 51.7327 136.662 51.7327H135.482C135.398 51.7334 135.325 51.7932 135.308 51.8763L134.918 53.6251H134.036C133.936 53.6251 133.854 53.7047 133.852 53.8046V55.0662C133.852 55.1682 133.934 55.2509 134.036 55.2509H134.759C134.806 55.2489 134.85 55.2286 134.882 55.1945L134.954 55.138V57.7023C134.954 59.0922 135.467 59.6768 136.713 59.723C137.242 59.7339 137.767 59.6307 138.252 59.4204C138.313 59.3889 138.351 59.3252 138.349 59.2563V58.2203C138.349 58.1212 138.269 58.0408 138.17 58.0408H137.144C136.842 58.0408 136.78 57.9229 136.78 57.728V55.297C136.782 55.2766 136.782 55.2559 136.78 55.2355L136.739 55.1278L137.042 55.2355H137.103H138.283C138.383 55.2327 138.462 55.1509 138.462 55.0509V53.7892C138.455 53.7 138.382 53.6299 138.293 53.6251Z" fill="white"/>
</g>
<defs>
<clipPath id="clip0_4047_13298">
<rect width="138.462" height="60" fill="white"/>
</clipPath>
</defs>
</svg>
