<svg width="166" height="51" viewBox="0 0 166 51" fill="none" xmlns="http://www.w3.org/2000/svg">
<g clip-path="url(#clip0_4047_13337)">
<path fill-rule="evenodd" clip-rule="evenodd" d="M15.1932 0.702631C17.4265 1.55948 18.2031 2.23975 19.0057 3.0364C20.4392 4.46423 21.4219 5.54141 22.2535 8.31411L22.3526 8.65508C22.3626 8.69246 22.388 8.72385 22.4224 8.74145C22.4568 8.75905 22.4971 8.76122 22.5332 8.7474C24.7405 7.92667 25.9644 7.30059 28.5348 7.81631C31.4042 8.39223 34.7231 10.4952 35.5578 14.9581C36.3343 19.1039 34.6147 22.8664 32.7727 24.5641C29.0947 27.9513 21.9834 32.0811 19.9167 33.1607C19.6446 33.3016 19.3098 33.1956 19.1683 32.9239L17.1858 29.6249C17.072 29.4028 17.1545 29.1305 17.3724 29.0089C18.6124 28.3487 23.994 25.5213 25.8219 24.257C28.5308 22.3768 30.5133 20.7413 30.8384 18.3775C31.3139 15.0002 29.3756 13.1781 27.9469 12.823C25.5652 12.221 23.8977 13.1822 22.5453 13.9086C21.8089 14.3099 20.1194 15.1608 20.1194 15.1608C19.7281 15.3996 18.9615 15.1607 18.8833 14.7052C18.8833 14.7052 18.2933 12.6083 18.1248 11.8959C17.7279 10.0319 16.8532 8.30309 15.5865 6.87917C15.3237 6.57215 13.5519 4.76615 9.90599 5.54675C7.86378 6.00274 6.24981 7.56563 5.72831 9.59222C5.3571 10.9206 5.32702 12.6022 5.84672 14.7735C6.5751 17.8597 9.19767 21.3955 10.6785 23.7453C12.2978 26.3159 16.6379 32.1473 18.6224 35.5847C18.6585 35.6449 18.8452 35.669 18.9094 35.6429C19.5251 35.3769 21.0749 34.5061 22.7199 33.5562L23.2416 33.2542C25.5074 31.9396 27.7859 30.5805 27.9269 30.5239C28.1435 30.4295 28.3959 30.527 28.4927 30.7426L30.3247 33.8831C30.4531 34.172 30.2384 34.5092 29.9474 34.6356C29.6307 34.7738 27.6802 35.9378 25.6914 37.1318L25.1493 37.4574C23.1669 38.6486 21.2913 39.7791 21.1186 39.853C21.0855 39.8635 21.0581 39.8868 21.0423 39.9177C21.0265 39.9486 21.0236 39.9845 21.0343 40.0175C21.235 40.4831 22.156 42.1486 22.2623 44.0509C22.461 47.5987 19.4913 52.4489 13.4897 50.5887C9.33609 49.3024 8.83246 45.4255 10.2551 42.2891C11.437 39.6804 13.4656 38.4583 14.0856 37.9246C14.1626 37.8539 14.1831 37.7407 14.1358 37.6476C13.5436 36.5868 12.4323 34.9422 11.245 33.254L10.6933 32.4737C9.3085 30.5249 7.91343 28.6286 7.18907 27.6142C6.14766 26.1614 0.804248 19.4771 0.194255 13.9688C-0.0966964 11.338 -0.132819 10.1802 0.595561 8.07314C1.67308 4.92868 3.52311 2.5327 6.53495 1.15411L6.6052 1.12402C9.65718 -0.178319 12.3519 -0.389003 15.1932 0.702631ZM140.902 41.5286C141.845 41.5286 142.559 41.8175 143.045 42.3954C143.531 42.9734 143.774 43.8228 143.775 44.9439C143.775 46.0623 143.531 46.9118 143.043 47.4924C142.555 48.073 141.838 48.364 140.894 48.3653C139.966 48.3653 139.253 48.073 138.755 47.4884C138.257 46.9038 138.01 46.0529 138.012 44.9359C138.012 43.8309 138.259 42.9867 138.751 42.4035C139.243 41.8202 139.96 41.5286 140.902 41.5286ZM127.713 41.5406C128.355 41.5409 128.986 41.7024 129.549 42.0102L129.057 43.4148C128.846 43.302 128.627 43.2048 128.401 43.1239C128.172 43.0445 127.931 43.0058 127.689 43.0095C127.318 43.0059 126.975 43.2074 126.798 43.5332C126.562 43.9777 126.451 44.4776 126.477 44.98C126.477 46.259 126.911 46.8984 127.779 46.8984C128.038 46.8989 128.296 46.8576 128.542 46.776C128.793 46.6909 129.041 46.5925 129.282 46.481V47.9981C128.759 48.2493 128.185 48.3751 127.605 48.3653C126.71 48.3653 126.024 48.0743 125.548 47.4924C125.072 46.9105 124.833 46.0703 124.831 44.972C124.82 44.3523 124.938 43.7371 125.179 43.166C125.385 42.6734 125.735 42.254 126.182 41.962C126.64 41.6741 127.172 41.5275 127.713 41.5406ZM67.7109 41.6329V44.0971H69.5709V41.6329H71.1761L71.1882 48.275H69.5829V45.568H67.7109V48.275H66.1056V41.6329H67.7109ZM161.116 41.6048L163.072 48.275H161.323L161.03 47.0309H159.105L158.804 48.275H157.047L158.979 41.6048H161.116ZM154.958 41.6329V48.275H153.353V41.6329H154.958ZM57.032 41.6329V48.275H55.4267V41.6329H57.032ZM63.8181 41.6269V43.0937H62.3754V48.275H60.7702V43.0937H59.3234V41.6269H63.8181ZM114.678 41.6329L115.481 45.0001C115.609 45.5135 115.7 46.0352 115.756 46.5613C115.776 46.3606 115.812 46.0857 115.87 45.7586C115.928 45.4315 115.977 45.1907 116.019 45.0101L116.841 41.6329H118.631L116.691 48.275H114.807L112.872 41.6329H114.678ZM81.3033 41.6048L83.2616 48.275H81.5099L81.219 47.0309H79.2927L78.9937 48.275H77.2339L79.1683 41.6048H81.3033ZM95.8026 41.6329L97.9597 46.2483H97.9837C97.9463 45.5794 97.9276 45.0442 97.9276 44.6429V41.6329H99.3542L99.3562 48.275H97.2553L95.0923 43.5954H95.0542C95.1063 44.3312 95.1324 44.8931 95.1324 45.281V48.275H93.7138V41.6329H95.8026ZM135.934 41.6269V43.0937H134.491L134.497 48.275H132.892V43.0937H131.445V41.6269H135.934ZM148.228 41.6329C149.833 41.6329 150.636 42.2871 150.636 43.5954C150.653 44.3295 150.268 45.0145 149.632 45.3814L151.358 48.275H149.552L148.296 45.857H147.891V48.275H146.286V41.6329H148.228ZM122.321 41.6329V48.275H120.716V41.6329H122.321ZM46.3811 41.6329L47.0252 44.962C47.1724 45.6991 47.2727 46.2857 47.3262 46.7218C47.361 46.4128 47.4232 45.9927 47.5129 45.4616C47.6052 44.9319 47.6894 44.4944 47.7677 44.1453L48.2893 41.6329H49.7742L50.2799 44.1453C50.3662 44.5466 50.4545 45.0122 50.5428 45.5399C50.6311 46.0677 50.6912 46.461 50.7213 46.7218C50.7574 46.3847 50.8538 45.8028 51.0103 44.972L51.6664 41.6329H53.2115L51.7567 48.275H49.8645L49.2967 45.3814C49.2713 45.2596 49.2291 45.0188 49.1703 44.659C49.1121 44.2978 49.0679 43.9968 49.0419 43.754C49.0198 43.9546 48.9856 44.1954 48.9355 44.4884C48.8853 44.7814 48.8392 45.0483 48.793 45.2911L48.2031 48.271H46.3109L44.8361 41.6329H46.3811ZM87.4373 41.6329L89.5943 46.2483H89.6184C89.5851 45.6749 89.5667 45.1999 89.5629 44.8231L89.5622 41.6329H90.9869V48.275H88.888L86.725 43.5954H86.6868C86.739 44.3312 86.7651 44.8931 86.7651 45.281V48.275H85.3465V41.6329H87.4373ZM105.51 41.6048L107.467 48.275H105.717L105.424 47.0309H103.5L103.199 48.275H101.441L103.373 41.6048H105.51ZM16.8667 41.1974C16.8667 41.1974 15.7928 42.0136 15.2543 42.4695L15.1651 42.5459C14.0246 43.5497 13.6044 44.4796 13.867 45.4995L13.9171 45.6703C14.372 46.8297 15.5593 47.2693 16.5222 46.7908L16.652 46.7198C17.4986 46.1293 18.0066 45.0036 17.6925 43.6861L17.6393 43.4871C17.4853 42.8502 16.9297 41.3651 16.8716 41.2105L16.8667 41.1974ZM140.91 42.9994C140.102 42.9994 139.698 43.6476 139.698 44.9439C139.698 46.2282 140.099 46.8703 140.902 46.8703C141.266 46.8931 141.612 46.7132 141.803 46.4028C142.004 46.0917 142.098 45.6001 142.098 44.9439C142.098 44.2877 141.998 43.7921 141.799 43.475C141.613 43.1648 141.271 42.982 140.91 42.9994ZM160.057 42.7004C160.032 42.8549 159.984 43.1018 159.914 43.463C159.844 43.8242 159.683 44.5165 159.437 45.5579H160.699L160.442 44.4683C160.384 44.2255 160.311 43.9125 160.225 43.5272C160.139 43.1419 160.085 42.867 160.057 42.7004ZM104.447 42.7004C104.423 42.8549 104.375 43.1018 104.304 43.463C104.234 43.8242 104.074 44.5165 103.827 45.5579H105.093L104.832 44.4683C104.774 44.2255 104.702 43.9125 104.615 43.5272C104.529 43.1419 104.475 42.867 104.447 42.7004ZM80.2458 42.7004C80.2217 42.8549 80.1735 43.1018 80.1013 43.463C80.0291 43.8242 79.8706 44.5165 79.6258 45.5579H80.8859L80.631 44.4683C80.5708 44.2255 80.4986 43.9125 80.4143 43.5272C80.3301 43.1419 80.2719 42.867 80.2458 42.7004ZM148.208 42.9914H147.891V44.5085H148.192C148.75 44.5085 149.031 44.2315 149.031 43.6777C149.031 43.2202 148.756 42.9914 148.208 42.9914ZM120.68 3.91329C125.502 3.91329 128.136 6.89726 128.136 12.1166V29.0851C128.136 34.3025 125.504 37.2884 120.68 37.2884C115.856 37.2884 113.224 34.3045 113.224 29.0851V12.1166C113.224 6.89926 115.858 3.91329 120.68 3.91329ZM153.812 4.28655L157.562 19.1561L161.313 4.28655H166L159.794 26.1012V36.9152H154.884V26.1012L148.677 4.28655H153.812ZM58.2599 4.28655V8.94808H50.1795V18.7828H56.5183V23.4443H50.1795V36.9152H45.2675V4.28655H58.2599ZM66.2521 4.28655V36.9152H61.342V4.28655H66.2521ZM84.297 4.28655V8.94808H79.1482V36.9152H74.2442V8.94808H69.1154V4.28655H84.297ZM102.196 4.28655C107.286 4.28655 109.473 6.75679 109.473 11.7895V12.9554C109.473 16.3106 108.492 18.4537 106.303 19.5273C108.938 20.5989 109.965 23.0691 109.965 26.5186V29.1754C109.965 34.2102 107.421 36.9132 102.509 36.9132H94.7833V4.28655H102.196ZM139.79 4.28655C144.702 4.28655 147.114 7.13002 147.114 12.3514V28.8463C147.114 34.0637 144.706 36.9112 139.79 36.9112H132.023V4.28655H139.79ZM120.68 8.57885C119.117 8.57885 118.136 9.4638 118.136 11.7895V29.4102C118.136 31.742 119.119 32.6209 120.68 32.6209C122.241 32.6209 123.226 31.736 123.226 29.4102V11.7895C123.226 9.45778 122.243 8.57885 120.68 8.57885ZM101.878 22.2323H99.6954V32.2577H102.504C104.156 32.2577 105.049 31.465 105.049 29.047V26.1935C105.049 23.1654 104.112 22.2323 101.878 22.2323ZM139.706 8.94808H136.937V32.2577H139.706C141.269 32.2577 142.206 31.4189 142.206 29.0891V12.1166C142.206 9.78688 141.269 8.94808 139.706 8.94808ZM99.6954 8.94808V17.5768H101.622C103.452 17.5768 104.567 16.738 104.567 14.1273V12.3093C104.567 9.9795 103.809 8.9541 102.067 8.9541L99.6954 8.94808Z" fill="white"/>
</g>
<defs>
<clipPath id="clip0_4047_13337">
<rect width="166" height="51" fill="white"/>
</clipPath>
</defs>
</svg>
