<svg width="78" height="80" viewBox="0 0 78 80" fill="none" xmlns="http://www.w3.org/2000/svg">
<path fill-rule="evenodd" clip-rule="evenodd" d="M57.389 4.83988C50.9555 1.18305 43.4644 -0.490801 36.1389 0.124955C31.4113 0.474301 26.7616 1.7787 22.4872 3.88735C15.6102 7.30542 9.72988 12.8598 5.91608 19.6859C0.235584 29.5329 -0.861037 41.9938 2.8626 52.7733C5.2508 59.7829 9.61291 66.0359 15.252 70.6503C21.8049 76.0112 30.0929 79.1 38.4638 79.1729C44.5756 79.3111 50.7167 77.8785 56.173 75.041C63.1256 71.4923 68.9669 65.6891 72.7003 58.682C76.4312 51.7253 78.0688 43.5747 77.2378 35.6654C76.1339 22.83 68.3601 10.9371 57.389 4.83988ZM12.6592 15.5917C16.5778 9.73572 22.7456 5.72703 29.3522 3.8873C36.0537 1.9571 43.3061 2.04003 49.9345 4.2467C50.1853 4.3278 50.3861 4.50449 50.5836 4.6784C50.6126 4.70389 50.6415 4.72932 50.6705 4.75438C50.045 4.70697 49.449 4.51994 48.8524 4.33273C48.4053 4.19245 47.9579 4.05206 47.4976 3.97024C44.7877 3.41229 41.9804 3.13583 39.2339 3.55806C37.5135 3.87725 35.7077 4.56337 34.6159 6.04621C33.7947 7.14703 33.707 8.87618 34.6598 9.9217C35.7174 11.0753 37.5939 11.0125 38.7661 10.08C38.9977 9.90461 39.2283 9.72355 39.4597 9.54182C40.6105 8.63791 41.7822 7.71769 43.2208 7.39334C46.7324 6.49609 50.4146 7.21741 53.8166 8.26042C57.9009 9.40899 61.7634 11.4875 64.8973 14.4356C70.1197 19.1932 73.2584 26.0243 74.4501 33.0289C75.4882 39.0055 75.1763 45.251 73.3778 51.0416C73.3145 51.313 73.1463 51.4714 72.8734 51.5141C73.9164 47.5707 74.6913 43.3861 73.9115 39.3146C73.5021 37.3492 72.5639 35.1325 70.5583 34.4614C69.023 33.901 67.1539 34.9892 67.0296 36.7108C66.8004 38.1546 67.6474 39.2819 68.4621 40.3662C68.6869 40.6655 68.9093 40.9614 69.1059 41.2599C71.0579 44.1502 70.8166 47.8975 70.339 51.2125C69.4422 55.7012 67.9898 60.1699 65.353 63.9096C61.2833 69.934 54.8011 73.91 47.9509 75.609C41.9974 77.0767 35.6882 77.0667 29.7445 75.5562C29.5752 75.504 29.4009 75.458 29.2256 75.4118C28.5905 75.2443 27.9415 75.0731 27.466 74.5886C28.1556 74.5871 28.8144 74.7745 29.4745 74.9622C29.8991 75.083 30.3242 75.2039 30.7583 75.2747C33.7874 75.8427 36.953 76.1946 39.9796 75.4129C41.3516 75.0234 42.7407 74.3498 43.6034 73.1384C44.4027 72.0074 44.3856 70.2758 43.4035 69.2654C42.553 68.3406 41.1372 68.1495 40.0503 68.7326C39.4315 69.0782 38.8825 69.5306 38.3336 69.983C37.7368 70.4748 37.1401 70.9666 36.4534 71.3213C33.7947 72.6534 30.7095 72.4573 27.8729 71.9647C23.1697 71.0122 18.5224 69.2529 14.7306 66.159C9.69585 62.1679 6.2086 56.3471 4.50031 50.079C2.6921 43.5168 2.67992 36.4645 4.32972 29.8672C4.42038 29.6498 4.47112 29.3926 4.52245 29.1323C4.63256 28.5741 4.74538 28.0023 5.26063 27.7811C4.2956 31.5511 3.53284 35.5019 4.12015 39.4076C4.41745 41.1418 5.00719 42.979 6.39868 44.1049C7.36371 44.9268 8.87217 45.2284 9.93955 44.4392C11.0776 43.7531 11.4529 42.1245 10.9241 40.9206C10.6237 40.1868 10.1558 39.561 9.68736 38.9344C9.2894 38.402 8.89098 37.8691 8.59436 37.2688C7.19799 34.6374 7.35152 31.4958 7.72193 28.6155C8.50175 24.0011 10.02 19.442 12.6592 15.5917ZM35.1446 17.7029C33.6337 16.8534 31.7402 17.0947 30.2585 17.899C28.075 19.1129 26.5739 21.2818 25.4748 23.5187C24.3075 25.8183 23.825 28.3869 23.5959 30.9454C22.5188 30.7971 21.6512 29.9351 21.4027 28.8544C20.9978 27.5794 21.265 26.2783 21.5268 25.0038C21.5896 24.698 21.652 24.3937 21.7049 24.0917C21.7977 23.747 21.626 23.4505 21.4603 23.1643C21.4085 23.0749 21.3573 22.9865 21.3149 22.8979C20.3987 22.8401 19.4629 23.305 19.0462 24.1721C17.7985 26.5773 17.9081 29.822 19.6335 31.9558C20.6229 33.2476 22.1849 33.886 23.7373 34.0569C24.2612 35.7207 25.2847 37.3443 26.9296 37.9977C28.9426 38.8346 31.1529 37.9575 32.9026 36.8667C32.894 36.9572 32.886 37.048 32.8779 37.139C32.8265 37.7201 32.7744 38.3078 32.5785 38.8598C32.1558 39.2109 31.6696 39.4621 31.1835 39.7132C30.9634 39.8269 30.7432 39.9406 30.529 40.0636L30.3402 40.1663C27.0259 41.9675 23.6625 43.7954 20.8787 46.4172C18.8122 48.4178 17.1868 51.0794 16.8749 54.0275C16.7238 56.3447 17.6181 58.8882 19.5872 60.1624C21.6439 61.5673 24.3562 61.4894 26.5982 60.6173C29.4251 59.5064 31.533 57.0334 32.9269 54.3341C34.9886 50.5139 35.3419 46.0578 35.6417 41.7827C35.66 41.6723 35.6692 41.5518 35.6787 41.4286C35.7121 40.9937 35.7481 40.5261 36.1924 40.3577C39.5603 38.4049 42.8331 36.2786 45.9621 33.9388C46.3325 34.4087 46.6981 34.8812 47.0465 35.3663C45.4357 36.3565 43.8298 37.4247 42.6138 38.9251C38.0664 44.0547 37.9909 52.8588 42.7575 57.8653C45.1945 60.5168 48.94 61.6503 52.4078 61.12C55.5953 60.6525 58.4953 58.5841 60.1036 55.7189C62.2481 52.0696 61.8972 46.9651 59.1094 43.7808C56.5018 40.8101 51.4257 40.8679 48.8767 43.8838C46.8711 46.0603 46.8053 49.9082 48.8986 52.0395C49.7467 52.9116 51.2234 53.4394 52.2884 52.6879C52.9756 52.1777 52.9098 51.0869 52.3566 50.4963L52.3247 50.4566C51.6153 49.5735 50.7953 48.5527 51.0066 47.3245C51.221 45.7035 52.978 44.7107 54.4573 45.055C55.7245 45.2586 56.7358 46.279 57.2061 47.4753C58.3149 50.1972 57.6862 53.57 55.6952 55.6887C53.5848 57.9582 49.9148 58.3151 47.3682 56.6337C45.1067 55.1987 43.82 52.5371 43.4228 49.8956C43.0061 46.7113 43.5983 43.2756 45.5137 40.6794C46.7468 39.0357 48.4673 37.6861 50.4461 37.1985C50.7271 37.2206 51.01 37.2478 51.2938 37.2751C52.6881 37.4092 54.1063 37.5457 55.4588 37.0904C56.224 36.8215 56.9697 35.9368 56.5798 35.0723C56.1582 34.1851 55.1225 33.9187 54.2599 33.7327C53.1513 33.5057 52.0482 33.736 50.9598 33.9632C50.7825 34.0002 50.6055 34.0371 50.429 34.072C49.5493 33.7603 49.0838 32.8078 48.7573 31.9683C51.204 30.0834 53.6214 28.035 55.2834 25.3534C56.2484 23.7423 56.8771 21.7644 56.4239 19.8719C56.0656 18.6178 55.0689 17.5521 53.7969 17.3134C51.6767 16.763 49.5078 17.8663 48.0676 19.4321C45.7525 22.0233 44.5779 25.6147 44.6852 29.1183C44.6727 29.4023 44.7072 29.6917 44.7416 29.9806C44.7949 30.428 44.848 30.8743 44.7266 31.2973C43.4091 32.3927 41.9735 33.3259 40.5405 34.2573C40.0863 34.5526 39.6324 34.8476 39.1826 35.1476C38.8533 35.3448 38.5288 35.5511 38.2043 35.7575C37.4697 36.2246 36.7349 36.6919 35.9439 37.0527C35.9634 35.9368 36.0194 34.8058 36.3289 33.7302C36.6208 33.3184 36.9394 32.9257 37.2582 32.5328C37.8365 31.82 38.4155 31.1064 38.8365 30.2769C39.3141 29.3897 39.765 28.2663 39.2678 27.2861C38.8121 26.5597 37.8032 26.6301 37.1428 26.992C35.7343 27.7209 34.9618 29.259 34.394 30.7016C34.2748 30.9836 34.1879 31.2862 34.101 31.5892C33.9035 32.2773 33.7054 32.9673 33.1268 33.421C31.9668 34.4665 30.568 35.5171 28.9547 35.4568C28.0336 35.4618 27.4195 34.5671 27.2245 33.7276C29.7736 32.7072 31.901 30.8022 33.6263 28.6508C35.2225 26.5346 36.4922 24.0364 36.7066 21.3271C36.826 19.9624 36.3533 18.4167 35.1446 17.7029ZM28.5748 24.6924C29.3497 23.0864 30.2465 21.4351 31.7184 20.4022C32.3106 19.9397 33.2878 20.1358 33.568 20.8822C33.7849 21.8021 33.4559 22.7345 33.0758 23.5564C31.9962 25.8284 30.3854 27.7988 28.5431 29.4525C28.0874 29.8823 27.5561 30.2166 26.9932 30.4729C27.0687 28.4522 27.7413 26.5044 28.5748 24.6924ZM48.1306 28.7186C48.1014 25.9967 49.0469 23.2572 50.7674 21.1913C51.2913 20.568 52.193 19.9447 52.9923 20.3695C53.8696 20.9048 53.4115 22.1036 53.0654 22.8375C51.8591 25.1322 50.0704 27.0674 48.1306 28.7186ZM20.7254 53.2986C21.3395 50.9839 22.9893 49.1592 24.6806 47.5934C26.9542 45.6205 29.4765 43.9265 32.1766 42.6397C31.8915 45.7185 31.1921 48.7696 30.0638 51.6348C29.0963 53.942 27.6609 56.3171 25.2825 57.262C24.0494 57.7396 22.441 58.0387 21.3736 57.0333C20.3623 56.1084 20.4306 54.5402 20.7254 53.2986Z" fill="white"/>
</svg>
