<svg width="51" height="70" viewBox="0 0 51 70" fill="none" xmlns="http://www.w3.org/2000/svg">
<path d="M25.9665 56.6982C25.9665 56.239 26.3354 55.8673 26.7908 55.8673C27.246 55.8673 27.6151 56.2392 27.6151 56.6982C27.6151 57.1572 27.2463 57.5291 26.7908 57.5291C26.3354 57.5291 25.9665 57.1572 25.9665 56.6982Z" fill="white"/>
<path d="M19.253 56.6982C19.253 56.239 19.622 55.8673 20.0773 55.8673C20.5327 55.8673 20.9018 56.2392 20.9018 56.6982C20.9018 57.1572 20.5327 57.5291 20.0773 57.5291C19.622 57.5291 19.253 57.1572 19.253 56.6982Z" fill="white"/>
<path d="M12.5396 56.6982C12.5396 56.239 12.9087 55.8673 13.364 55.8673C13.8191 55.8673 14.1883 56.2392 14.1883 56.6982C14.1883 57.1572 13.8192 57.5291 13.364 57.5291C12.9087 57.5291 12.5396 57.1572 12.5396 56.6982Z" fill="white"/>
<path d="M5.74707 56.8776C5.74707 56.4185 6.1161 56.0467 6.57139 56.0467C7.02668 56.0467 7.39571 56.4185 7.39571 56.8776C7.39571 57.3365 7.02668 57.7085 6.57139 57.7085C6.1161 57.7085 5.74707 57.3365 5.74707 56.8776Z" fill="white"/>
<path d="M14.0155 9.74762C16.4581 9.74762 18.438 11.7435 18.438 14.2055C18.438 16.6675 16.4581 18.6632 14.0155 18.6632C11.5731 18.6632 9.59317 16.6675 9.59317 14.2055C9.59317 11.7435 11.5731 9.74762 14.0155 9.74762Z" fill="white"/>
<path fill-rule="evenodd" clip-rule="evenodd" d="M50.655 65.8922H0.755859V0.0918579H50.655V65.8922ZM4.1403 49.2707H47.2675V3.55317H27.4066V24.7589C27.4066 34.6055 19.8034 42.9293 10.9414 42.9293C10.1356 42.9294 4.1403 42.9294 4.1403 42.9294V49.2707ZM46.9181 59.3913C47.1951 59.3913 47.2054 59.256 47.2054 58.914V52.1828C47.2054 52.0294 47.1196 51.8114 46.9181 51.8114H45.7318C45.611 51.8114 45.3873 51.9764 45.3873 52.1828V58.914C45.3873 59.256 45.4453 59.3913 45.7318 59.3913H46.9181ZM43.8969 59.3913C44.174 59.3913 44.1843 59.256 44.1843 58.914V52.1828C44.1843 52.0294 44.0985 51.8114 43.8969 51.8114H42.7107C42.5898 51.8114 42.3661 51.9764 42.3661 52.1828V58.914C42.3661 59.256 42.4241 59.3913 42.7107 59.3913H43.8969ZM39.2945 52.1828V53.3388C39.2945 53.6808 39.3525 53.8161 39.6391 53.8161H40.8253C41.1024 53.8161 41.1127 53.6808 41.1127 53.3388V52.1828C41.1127 52.0294 41.0269 51.8114 40.8253 51.8114H39.6391C39.5182 51.8114 39.2945 51.9764 39.2945 52.1828ZM40.8255 59.3913C41.1025 59.3913 41.1128 59.256 41.1128 58.914V54.6443C41.1128 54.491 41.027 54.2729 40.8255 54.2729H39.6392C39.5186 54.2729 39.2947 54.438 39.2947 54.6443V58.914C39.2947 59.256 39.3527 59.3913 39.6392 59.3913H40.8255ZM37.606 59.3913C37.9965 59.3913 38.0658 59.256 38.0658 58.914V54.6537C38.0658 54.5001 38.0309 54.2824 37.9045 54.2824H36.482C36.3613 54.2824 36.2527 54.5022 36.2527 54.6537V57.1879C36.2527 57.4131 36.0856 57.5348 35.9723 57.5348H35.5506C35.4184 57.5348 35.2631 57.4035 35.2631 57.1879V54.6537C35.2631 54.5114 35.2161 54.2824 35.0596 54.2824H33.6779C33.5871 54.2824 33.4605 54.5268 33.4605 54.6537V57.1879C33.4605 57.4451 33.2723 57.5348 33.1528 57.5348H32.8006C32.6495 57.5348 32.5377 57.3907 32.5377 57.1879V54.6539C32.5377 54.5525 32.517 54.2827 32.3282 54.2827H30.9309C30.7973 54.2827 30.6921 54.4811 30.6921 54.6539V59.0443C30.6921 59.3699 30.7856 59.3913 31.154 59.3913H37.606ZM29.1311 59.3913C29.4223 59.3913 29.474 59.256 29.474 58.914V52.2808C29.474 52.0364 29.3897 51.8327 29.1311 51.8327H27.9664C27.724 51.8327 27.6179 52.0361 27.6179 52.2642V53.7907C27.6179 54.1331 27.4956 54.2696 27.2045 54.2696L24.3225 54.2699C24.0802 54.2699 23.9787 54.4665 23.9787 54.6944V59.0443C23.9787 59.3699 24.0479 59.3913 24.3225 59.3913H29.1311ZM22.3563 59.3913C22.6473 59.3913 22.7604 59.256 22.7604 58.914V54.7271C22.7604 54.4827 22.6472 54.2709 22.3886 54.2709H17.6045C17.3622 54.2709 17.2652 54.4663 17.2652 54.6944V59.0443C17.2652 59.3699 17.4753 59.3913 17.75 59.3913H22.3563ZM15.6429 59.3913C15.934 59.3913 16.0471 59.256 16.0471 58.914V54.7271C16.0471 54.4827 15.934 54.2709 15.6753 54.2709H10.8912C10.6488 54.2709 10.5518 54.4663 10.5518 54.6944V59.0443C10.5518 59.3699 10.7619 59.3913 11.0367 59.3913H15.6429ZM5.80994 63.0201C6.65828 63.0201 7.54755 62.5353 8.18773 61.8929C8.7971 61.2816 9.25465 60.7225 9.15752 58.9143V54.7273C9.15752 54.4829 9.04438 54.2711 8.78577 54.2711H4.34106C4.09861 54.2711 4.00163 54.4665 4.00163 54.6944V59.8373C4.00163 60.1633 4.25329 60.2251 4.52671 60.2251H5.07217C5.36643 60.2251 5.92761 59.9646 6.1335 59.6831C6.31749 59.4312 6.58033 59.5141 6.70541 59.6088C6.85646 59.723 6.89242 59.9109 6.70541 60.1988C6.51039 60.4991 5.8687 60.9416 5.33894 60.9416H4.34106C4.09861 60.9416 4.00163 61.1352 4.00163 61.3633V62.7085C4.00163 63.0341 4.21175 63.0558 4.48652 63.0558C4.48652 63.0558 5.20677 63.0201 5.80994 63.0201ZM6.57353 31.8026L4.14015 31.8027V39.4425H9.87519C17.5877 39.4425 24.3853 33.5396 23.9826 24.0483V3.55317H4.14015V28.3411H6.74982C7.20254 28.3411 8.48063 28.2814 10.0202 27.5297C11.6303 26.7436 12.8127 25.2981 12.8127 25.2981L15.6806 27.0225C15.6806 27.0225 14.3222 29.2541 11.7309 30.4713C10.0176 31.2761 8.57474 31.8026 6.57353 31.8026Z" fill="white"/>
<path fill-rule="evenodd" clip-rule="evenodd" d="M49.1692 67.3621H48.3759V69.1712H48.7694V68.4701H49.0881C49.1849 68.4701 49.2497 68.4799 49.2818 68.4985C49.3138 68.5169 49.3361 68.5451 49.3491 68.5824C49.362 68.6198 49.3704 68.7182 49.3748 68.8778C49.3762 68.9582 49.3796 69.015 49.3852 69.048C49.391 69.0812 49.4038 69.1222 49.4239 69.1712H49.8731C49.8318 69.1378 49.8065 69.103 49.7973 69.0664C49.7879 69.0297 49.7784 68.8994 49.7683 68.6751C49.7626 68.5574 49.7478 68.475 49.7234 68.4283C49.699 68.3815 49.6543 68.3395 49.5887 68.3024C49.6698 68.2431 49.7253 68.1833 49.7544 68.1221C49.7837 68.061 49.7982 67.9821 49.7982 67.8859C49.7982 67.7725 49.7742 67.6753 49.7265 67.5949C49.6787 67.5144 49.6157 67.4554 49.5372 67.418C49.4586 67.3807 49.336 67.3621 49.1692 67.3621ZM48.7692 68.1382V67.7091H49.1009C49.2278 67.7091 49.3117 67.7253 49.3523 67.7575C49.3928 67.79 49.4133 67.844 49.4133 67.9203C49.4133 67.9966 49.3925 68.0519 49.3512 68.0866C49.3097 68.121 49.2257 68.1382 49.099 68.1382H48.7692Z" fill="white"/>
<path fill-rule="evenodd" clip-rule="evenodd" d="M50.473 69.0858C50.6192 68.8321 50.6922 68.558 50.6922 68.2632C50.6922 67.9671 50.6192 67.6919 50.473 67.4375C50.3269 67.183 50.1272 66.9824 49.874 66.8348C49.621 66.6876 49.3475 66.6139 49.0538 66.6139C48.7598 66.6139 48.4864 66.6876 48.2333 66.8348C47.9801 66.9824 47.7805 67.183 47.6343 67.4375C47.4882 67.6919 47.4151 67.9663 47.4151 68.2611C47.4151 68.5572 47.4882 68.8321 47.6343 69.0858C47.7805 69.3394 47.9805 69.54 48.2345 69.6874C48.4884 69.8346 48.7612 69.9083 49.0538 69.9083C49.3475 69.9083 49.621 69.8346 49.874 69.6874C50.1272 69.54 50.3269 69.3394 50.473 69.0858ZM49.9745 67.3374C50.2277 67.5922 50.3543 67.9026 50.3543 68.2676C50.3543 68.496 50.2966 68.7098 50.1811 68.9088C50.0657 69.1081 49.9067 69.2653 49.7041 69.3812C49.5017 69.4969 49.2848 69.5547 49.054 69.5547C48.8215 69.5547 48.604 69.4966 48.4014 69.3802C48.1993 69.2638 48.0405 69.1057 47.9256 68.9059C47.8108 68.706 47.7534 68.4896 47.7534 68.2568C47.7534 67.8975 47.8805 67.5905 48.1352 67.3362C48.3896 67.0816 48.6972 66.9545 49.058 66.9545C49.4159 66.9545 49.7215 67.0821 49.9745 67.3374Z" fill="white"/>
</svg>
