<svg width="105" height="80" viewBox="0 0 105 80" fill="none" xmlns="http://www.w3.org/2000/svg">
<path fill-rule="evenodd" clip-rule="evenodd" d="M75.5029 3.87566C75.1722 4.9322 73.3828 7.23747 70.4776 8.19535C68.1526 8.96206 65.2984 8.77809 63.327 7.94766C58.2882 5.8243 57.6362 1.64438 57.6362 1.64438C57.6362 1.64438 57.3357 0.0801228 57.9804 0.00201271C58.2632 -0.0319035 58.6458 0.372008 58.7145 0.521034C58.7185 0.529659 58.7251 0.55122 58.7352 0.584427L58.7353 0.584599L58.7353 0.584654C58.8993 1.12199 59.9906 4.69838 66.3475 5.88288C70.0545 6.5737 71.8751 5.3804 72.7591 4.80097L72.7594 4.80084C72.8446 4.74499 72.9211 4.69484 72.9897 4.65265C73.0463 4.61774 73.1098 4.57823 73.1786 4.53535C74.056 3.9887 75.8085 2.8969 75.5029 3.87566ZM21.701 43.8495H15.0422C15.0422 43.8495 16.6539 44.7066 16.6539 47.0366V54.0336H5.18085V47.0366C5.18085 44.7066 6.79357 43.8495 6.79357 43.8495H0.134766C0.134766 43.8495 1.67677 44.8433 1.67677 47.0366V63.3174C1.67677 65.3863 0.134766 66.5045 0.134766 66.5045H6.79357C6.79357 66.5045 5.18085 65.6401 5.18085 63.3174V55.8846H16.6539V63.3174C16.6539 65.6401 15.0422 66.5045 15.0422 66.5045H21.701C21.701 66.5045 20.159 65.3863 20.159 63.3174V47.0366C20.159 44.8433 21.701 43.8495 21.701 43.8495ZM91.9921 46.0407C91.9921 46.0407 99.2716 46.0407 99.2716 51.3614C99.2716 55.086 95.3027 56.343 95.3027 56.343L100.653 62.9556L101.571 63.9998L102.555 64.9742L103.613 65.7398L104.668 66.3658H101.992C101.992 66.3658 99.675 66.3483 97.7452 64.2208C96.1304 62.4376 91.0074 55.7859 91.0074 55.7859C91.0074 55.7859 95.7717 55.7921 95.7717 51.4529C95.7717 47.919 91.7255 47.9377 91.2428 47.9399L91.2174 47.94H88.8956L88.8945 63.2331C88.8945 65.5723 90.3034 66.3658 90.3034 66.3658H84.176C84.176 66.3658 85.6556 65.3287 85.6556 63.2331V49.2432C85.6556 47.1938 84.176 46.0407 84.176 46.0407H91.9921ZM41.6993 46.1363H47.727C47.727 46.1363 46.3254 46.9729 46.3254 49.3234V63.2485C46.3254 65.3791 47.727 66.3658 47.727 66.3658H41.6993C41.6993 66.3658 43.101 65.5065 43.101 63.2485V49.3234C43.101 47.1969 41.6993 46.1363 41.6993 46.1363ZM38.2929 66.5055H24.6249C24.6249 66.5055 26.0972 65.5189 26.0972 63.3184V49.2535C26.0972 46.9277 24.6249 46.0674 24.6249 46.0674H38.2929V49.3871C38.2929 49.3871 36.9246 47.9534 35.759 47.9534H29.3216V54.0223H34.0173C37.0036 54.0223 37.7325 52.9832 37.7325 52.9832V56.9443C37.7325 56.9443 37.0764 55.9052 34.0173 55.9052H29.3216V64.6504H35.7694C37.0036 64.6504 38.9241 63.3349 38.9241 63.3349L38.2929 66.5055ZM59.0829 47.8968C59.0829 47.8968 61.7094 47.903 62.9384 48.313C63.8878 48.6296 64.6905 49.4909 64.6905 49.4909V46.0674H51.0225C51.0225 46.0674 52.4938 46.9276 52.4938 50.2237V62.3482C52.4938 65.8405 51.0225 66.5045 51.0225 66.5045H57.1894C57.1894 66.5045 55.7181 65.8385 55.7181 62.3482V55.8353H61.045C63.0694 55.8353 63.92 56.8743 63.92 56.8743V53.0469C63.92 53.0469 62.9353 54.0161 61.045 54.0161H55.7181V47.8968H59.0829ZM31.1843 38.7127C31.83 39.7898 33.2191 40.5524 33.6642 40.3417C33.8395 40.2587 34.1326 39.7954 34.5548 39.1278L34.5549 39.1277L34.5549 39.1277L34.555 39.1276L34.555 39.1276C35.2042 38.1011 36.1588 36.5918 37.4604 35.2399C39.6086 33.0097 46.8092 26.1 54.358 24.8369C64.0022 23.2235 71.199 27.4442 74.3615 29.2988C75.1555 29.7645 75.6952 30.081 75.9554 30.1186C77.2521 30.3066 78.2295 29.063 78.1057 28.1812C77.982 27.2994 70.3843 24.6077 70.3843 24.6077C70.3843 24.6077 63.1837 21.8522 55.1701 22.7711C44.1515 24.0332 35.9153 33.171 35.9153 33.171C35.9153 33.171 39.3352 23.5285 38.0833 23.0619C37.8221 23.0575 37.686 23.4254 37.4053 24.1839C37.2267 24.6666 36.9896 25.3075 36.6244 26.1113C35.2873 27.9726 30.7132 37.9265 31.1843 38.7127ZM29.3335 32.9173C29.3335 32.9173 31.7594 31.2574 32.3895 31.3365C33.4646 31.4722 28.4757 38.348 27.0211 37.5186C24.8729 36.2945 25.1702 35.0725 25.1702 35.0725L25.5414 34.351C25.5414 34.351 30.9026 26.2728 33.0383 24.6242C34.0895 23.8123 34.6635 23.4998 34.7519 24.1946C34.8392 24.8904 29.3335 32.9173 29.3335 32.9173ZM61.6585 12.0772C61.7704 11.938 61.5919 11.689 61.3937 11.4125C61.128 11.0418 60.8269 10.6218 61.1438 10.3516C61.698 9.88087 63.082 11.07 63.082 11.07C63.082 11.07 63.6518 11.5962 63.7537 11.5746C64.5273 11.4092 63.0237 9.83873 63.0237 9.83873C63.0237 9.83873 61.1168 7.99081 59.6299 8.57972C58.6296 8.97643 59.1869 10.479 59.4916 10.9189C59.9002 11.5088 61.1948 12.6507 61.6585 12.0772ZM22.6151 20.536C23.0958 21.597 23.7438 23.027 25.4047 23.2562C27.5623 23.5528 30.6577 21.3367 34.1475 18.8383C37.1023 16.7228 40.3399 14.4049 43.5303 13.2386C50.5468 10.6723 60.2782 13.2067 60.2054 14.1636C60.1337 15.1204 58.4731 14.7813 58.4731 14.7813C58.4731 14.7813 49.3365 13.2509 42.9532 15.9663C40.2299 17.125 37.5498 18.7453 35.0275 20.2701C31.3101 22.5174 27.9355 24.5575 25.2706 24.6077C22.4663 24.6612 20.2495 22.9253 19.3937 21.507C18.5359 20.0886 18.4392 17.6056 18.7907 17.6158C19.1421 17.6261 21.1915 18.1564 22.2105 19.732C22.3454 19.9406 22.4729 20.2221 22.6151 20.536L22.6151 20.536ZM73.3167 13.256C73.8855 14.0371 72.826 15.9251 72.826 15.9251C72.826 15.9251 68.7906 14.4863 68.4318 14.6589C67.8579 14.9375 66.789 16.8131 66.6621 18.2982C66.5902 18.9461 68.5137 19.9567 70.8528 21.1857C72.169 21.8773 73.6169 22.638 74.9149 23.4422C75.6498 23.8971 76.3406 24.3906 76.9712 24.8411L76.9714 24.8412C78.1475 25.6815 79.1144 26.3723 79.7676 26.3837C80.694 26.4001 81.4541 25.2747 81.5529 24.7999C81.6839 24.174 79.9215 23.1472 77.3189 21.9026C76.7077 21.6107 75.87 21.2305 74.9746 20.8241C72.5857 19.74 69.7867 18.4697 69.7867 18.1924C69.7867 17.7083 70.2899 16.807 70.4272 16.8347C71.0585 16.9623 71.7316 17.2042 72.348 17.4257C73.3754 17.7949 74.2454 18.1076 74.5021 17.7402C74.9222 17.1399 75.4629 16.1913 75.8694 13.994C76.2812 11.7678 69.9998 9.57663 69.9998 9.57663C69.9998 9.57663 69.5361 9.40294 69.4966 9.65885C69.3578 10.1798 70.19 10.7548 71.1518 11.4192C71.9412 11.9646 72.818 12.5703 73.3167 13.256ZM102.259 47.4927V48.2718H102.636C102.869 48.2718 103.02 48.1217 103.02 47.873C103.02 47.6305 102.869 47.4927 102.636 47.4927H102.259ZM102.259 49.502H101.814V47.1587H102.725C103.171 47.1587 103.473 47.4372 103.473 47.873C103.473 48.2337 103.234 48.4455 103.04 48.4948V48.5071C103.04 48.5071 103.065 48.5318 103.121 48.6376L103.574 49.502H103.084L102.643 48.5934H102.259V49.502ZM102.581 46.4927C101.581 46.4927 100.806 47.3005 100.806 48.3396C100.806 49.3766 101.581 50.1865 102.581 50.1865C103.592 50.1865 104.373 49.3766 104.373 48.3396C104.373 47.3005 103.592 46.4927 102.581 46.4927ZM102.58 50.6079C101.341 50.6079 100.347 49.6017 100.347 48.3396C100.347 47.0775 101.341 46.0703 102.58 46.0703C103.831 46.0703 104.831 47.0775 104.831 48.3396C104.831 49.6017 103.831 50.6079 102.58 50.6079ZM80.916 66.5199H67.248C67.248 66.5199 68.7203 65.5343 68.7203 63.3328V49.2678C68.7203 46.942 67.248 46.0818 67.248 46.0818H80.916V49.4025C80.916 49.4025 79.5476 47.9687 78.382 47.9687H71.9447V54.0367H76.6404C79.6266 54.0367 80.3555 52.9976 80.3555 52.9976V56.9596C80.3555 56.9596 79.6994 55.9195 76.6404 55.9195H71.9447V64.6648H78.3934C79.6266 64.6648 81.5471 63.3492 81.5471 63.3492L80.916 66.5199ZM75.6834 77.8243C76.8376 77.8243 77.7723 76.6578 77.7723 75.2179C77.7723 73.779 76.8376 72.6115 75.6834 72.6115C74.5303 72.6115 73.5945 73.779 73.5945 75.2179C73.5945 76.6578 74.5303 77.8243 75.6834 77.8243ZM75.746 71.7132C77.8245 71.7132 79.2178 73.2682 79.2178 75.0977C79.2178 77.5314 77.4055 78.7236 75.6992 78.7236C73.3732 78.7236 72.1493 77.0319 72.1493 75.369C72.1493 72.9054 74.1322 71.7132 75.746 71.7132ZM48.3002 73.4606V79.1821L43.6337 74.1512V76.9128C43.6337 78.1729 44.3729 78.7412 44.3729 78.7412H41.8504C41.8504 78.7412 42.6053 78.1318 42.6053 76.9539V73.3784C42.6053 72.8912 41.291 71.7134 41.291 71.7134H43.303L47.3311 76.0598V73.4195C47.3311 72.2417 46.4276 71.7134 46.4276 71.7134H49.2152C49.2152 71.7134 48.3002 72.2005 48.3002 73.4606ZM13.0553 79.182V73.4604C13.0553 72.2004 13.8746 71.7132 13.8746 71.7132H11.2606C11.2606 71.7132 12.0862 72.2415 12.0862 73.4193V76.0596L8.05907 71.7132H6.12715C6.12715 71.7132 7.36137 72.891 7.36137 73.3782V76.9538C7.36137 78.1316 6.83524 78.7411 6.83524 78.7411H9.05415C9.05415 78.7411 8.38868 78.1727 8.38868 76.9127V74.1511L13.0553 79.182ZM87.8676 73.4606V79.1821L83.201 74.1512V76.9128C83.201 78.1729 83.8654 78.7412 83.8654 78.7412H81.6132C81.6132 78.7412 82.1737 78.1318 82.1737 76.9539V73.3784C82.1737 72.8912 80.9395 71.7134 80.9395 71.7134H82.8714L86.8985 76.0598V73.4195C86.8985 72.2417 86.0718 71.7134 86.0718 71.7134H88.6869C88.6869 71.7134 87.8676 72.2005 87.8676 73.4606ZM25.5627 77.1974C25.5627 78.0638 24.917 78.7411 24.917 78.7411H30.3115L30.4549 77.1974C30.4549 77.1974 29.856 77.848 28.889 77.848H27.0288V75.3289H29.0731C29.5805 75.3289 29.9028 75.9384 29.9028 75.9384V74.0689C29.9028 74.0689 29.5337 74.6783 29.0731 74.6783H27.0288L27.0299 72.4851H28.8433C29.672 72.4851 30.1326 73.0945 30.1326 73.0945V71.7132H24.917C24.917 71.7132 25.5627 72.2343 25.5627 73.0945V77.1974ZM99.2197 78.7032C99.2197 78.7032 99.7947 78.2561 99.7947 77.8245V72.4811C99.7947 72.1615 99.2197 71.6743 99.2197 71.6743H101.81C101.81 71.6743 101.152 72.0803 101.152 72.4811V77.809H102.466C103.536 77.809 104.176 77.1595 104.176 77.1595L103.848 78.7032H99.2197ZM35.7712 71.7134C36.0325 71.7133 38.4891 71.7127 38.4891 73.5418C38.4891 74.8296 36.9117 75.2756 36.9117 75.2756L38.7626 77.5624L39.0786 77.9231L39.4197 78.2602L39.7847 78.5254L40.1507 78.7412H39.0818C39.0818 78.7412 38.2801 78.7351 37.6136 77.9992C37.0552 77.3836 35.2834 75.0834 35.2834 75.0834C35.2834 75.0834 37.0739 75.0855 37.0739 73.5819C37.0739 72.5263 35.8927 72.4451 35.7763 72.4451H34.9216C34.9216 72.4451 34.9195 76.8501 34.9195 77.658C34.9195 78.4668 35.4061 78.7412 35.4061 78.7412H33.0635C33.0635 78.7412 33.5751 78.3825 33.5751 77.658V72.8203C33.5751 72.1122 33.0635 71.7134 33.0635 71.7134H35.7669H35.7712ZM22.153 73.2293V71.7134H16.1836V73.2293C16.1836 73.2293 16.8449 72.6158 17.4615 72.6158H18.4555V76.9539C18.4555 78.1318 17.8795 78.7412 17.8795 78.7412H20.4696C20.4696 78.7412 19.8936 78.1318 19.8936 76.9539V72.6158H20.899C21.5156 72.6158 22.153 73.2293 22.153 73.2293ZM64.6354 71.7134V73.2293C64.6354 73.2293 63.998 72.6158 63.3815 72.6158H62.376V76.9539C62.376 78.1318 62.951 78.7412 62.951 78.7412H60.3619C60.3619 78.7412 60.938 78.1318 60.938 76.9539V72.6158H59.9439C59.3273 72.6158 58.666 73.2293 58.666 73.2293V71.7134H64.6354ZM3.29418 71.7134H0.576172C0.576172 71.7134 1.17821 72.0741 1.25099 72.6178C1.26659 72.736 1.26659 77.4432 1.25099 77.5634C1.17821 78.1061 0.576172 78.7412 0.576172 78.7412H3.29418C3.29418 78.7412 2.73789 78.1061 2.66511 77.5634C2.64951 77.4432 2.64951 72.736 2.66511 72.6178C2.73789 72.0741 3.29418 71.7134 3.29418 71.7134ZM53.1347 75.9384H54.6652L53.9706 74.1768L53.1347 75.9384ZM57.2338 77.9692C57.5415 78.4564 58.0126 78.7411 58.0126 78.7411H55.3517C55.3517 78.7411 55.6616 78.294 55.5295 77.888C55.436 77.4893 54.9556 76.5879 54.9556 76.5879H52.8126C52.8126 76.5879 52.405 77.4379 52.2386 77.8479C52.1066 78.1727 52.4154 78.7411 52.4154 78.7411H50.3379C50.3379 78.7411 50.9659 78.1727 51.1427 77.8479C51.2841 77.5879 54.1872 71.3987 54.1872 71.3987C54.1872 71.3987 56.9239 77.4574 57.2338 77.9692ZM94.0119 75.9384H92.4814L93.3163 74.1768L94.0119 75.9384ZM97.358 78.7411C97.358 78.7411 96.8881 78.4564 96.5792 77.9692C96.2694 77.4574 93.5337 71.3987 93.5337 71.3987C93.5337 71.3987 90.6296 77.5879 90.4882 77.8479C90.3124 78.1727 89.6834 78.7411 89.6834 78.7411H91.7609C91.7609 78.7411 91.452 78.1727 91.5841 77.8479C91.7515 77.4379 92.1581 76.5879 92.1581 76.5879H94.3011C94.3011 76.5879 94.7814 77.4893 94.875 77.888C95.0071 78.294 94.6983 78.7411 94.6983 78.7411H97.358ZM67.1896 71.6978H69.9076C69.9076 71.6978 69.3513 72.0585 69.2785 72.6012V77.5478C69.3513 78.0905 69.9076 78.7256 69.9076 78.7256H67.1896C67.1896 78.7256 67.7916 78.0905 67.8634 77.5478V72.6012C67.7916 72.0585 67.1896 71.6978 67.1896 71.6978Z" fill="white"/>
</svg>
