<svg width="199" height="52" viewBox="0 0 199 52" fill="none" xmlns="http://www.w3.org/2000/svg">
<g clip-path="url(#clip0_4047_13355)">
<path fill-rule="evenodd" clip-rule="evenodd" d="M47.1777 32.8788C46.6058 27.3658 45.9517 20.5166 45.2509 12.3218C44.0025 21.7313 43.1896 28.5805 42.7972 32.8788H47.1777ZM53.8811 1.48633L61.2013 50.3617H48.2298L47.5477 41.5745H42.9037L42.1842 50.3617H29.0781L35.5667 1.48633H53.8811Z" fill="white"/>
<path fill-rule="evenodd" clip-rule="evenodd" d="M168.078 1.48633V40.6101L173.137 40.6324L173.051 50.3523L155.342 50.3614V1.48633H168.078Z" fill="white"/>
<path fill-rule="evenodd" clip-rule="evenodd" d="M197.529 1.56327V11.3236L188.106 40.6813H197.529V50.44H174.167V43.363L183.9 11.3236L173.203 11.303V1.56079L197.529 1.56327Z" fill="white"/>
<path fill-rule="evenodd" clip-rule="evenodd" d="M75.4911 28.3395V41.9594C77.2422 41.8959 78.343 41.6193 78.8232 41.1166C79.3054 40.6101 79.5465 39.3842 79.5465 37.4219V32.8788C79.5465 30.7951 79.3278 29.5336 78.9073 29.0963C78.4719 28.6478 77.3319 28.4049 75.4911 28.3395ZM75.4911 9.89043V20.7147C76.0181 20.6922 76.433 20.681 76.7208 20.681C77.9449 20.681 78.713 20.3745 79.0438 19.7616C79.3895 19.1579 79.5465 17.4068 79.5465 14.5232C79.5465 13.002 79.4138 11.9368 79.1316 11.3238C78.8644 10.7108 78.513 10.3259 78.057 10.1633C77.6178 10.0007 76.7638 9.91286 75.4911 9.89043ZM62.7383 1.48633H75.3827C79.3708 1.48633 82.3946 1.80217 84.454 2.42635C86.5134 3.05054 88.1786 4.31199 89.4288 6.20885C90.6996 8.10384 91.3331 11.1706 91.3331 15.3885C91.3331 18.2385 90.8771 20.2306 89.9951 21.3519C89.098 22.4788 87.3264 23.3441 84.6951 23.9458C87.6553 24.6149 89.668 25.7119 90.7202 27.2555C91.7723 28.7992 92.2993 31.1576 92.2993 34.3421V38.8796C92.2993 42.18 91.9256 44.6318 91.1612 46.2203C90.4137 47.8126 89.2083 48.9059 87.5656 49.4852C85.921 50.0701 82.5441 50.3617 77.4216 50.3617H62.7383V1.48633ZM140.859 14.1289C140.859 11.8508 140.73 10.395 140.487 9.75961C140.246 9.13169 139.743 8.81399 138.994 8.81399C138.34 8.81399 137.856 9.06815 137.506 9.58208C137.159 10.096 137.002 11.6097 137.002 14.1289V36.9435C137.002 39.7785 137.11 41.5333 137.332 42.2005C137.553 42.8677 138.076 43.1966 138.906 43.1966C139.741 43.1966 140.268 42.8135 140.507 42.0473C140.749 41.2811 140.859 39.4627 140.859 36.5791V14.1289ZM153.612 30.1915C153.612 35.1102 153.501 38.5937 153.262 40.6326C153.023 42.6827 152.3 44.5459 151.092 46.2428C149.868 47.9303 148.224 49.2348 146.163 50.143C144.083 51.0438 141.672 51.5016 138.93 51.5016C136.321 51.5016 133.959 51.0756 131.894 50.2215C129.812 49.3581 128.128 48.0742 126.859 46.3643C125.605 44.6449 124.841 42.7836 124.6 40.7671C124.361 38.76 124.247 35.2317 124.247 30.1915V21.821C124.247 16.9023 124.359 13.4188 124.598 11.3705C124.821 9.32979 125.542 7.45722 126.768 5.76781C127.975 4.07092 129.62 2.77769 131.698 1.86944C133.761 0.959327 136.17 0.501465 138.93 0.501465C141.539 0.501465 143.884 0.936901 145.966 1.79282C148.046 2.64687 149.715 3.93076 150.984 5.6482C152.253 7.35818 153.001 9.22139 153.242 11.2379C153.485 13.2524 153.612 16.7808 153.612 21.821V30.1915Z" fill="white"/>
<path fill-rule="evenodd" clip-rule="evenodd" d="M122.408 1.3313V50.1989H109.656L109.569 30.8153H105.953L105.995 50.1989H93.2422V1.3313H105.995L105.953 19.958H109.569L109.656 1.3313H122.408Z" fill="white"/>
<path fill-rule="evenodd" clip-rule="evenodd" d="M28.3966 1.48633V50.3614H17.1803L10.6259 28.145V50.3614H-0.00195312V1.48633H10.6259L17.7688 23.4972V1.48633H28.3966Z" fill="white"/>
</g>
<defs>
<clipPath id="clip0_4047_13355">
<rect width="198.095" height="52" fill="white"/>
</clipPath>
</defs>
</svg>
