<svg width="112" height="49" viewBox="0 0 112 49" fill="none" xmlns="http://www.w3.org/2000/svg">
<path fill-rule="evenodd" clip-rule="evenodd" d="M30.4799 4.71535C32.7228 4.71535 38.9639 5.01436 34.9423 16.8162C30.7196 29.2059 21.3718 26.6565 21.3718 26.6565L28.2601 4.71535H30.4799ZM47.206 17.6101C52.4701 4.60955 42.6196 1.08556 36.19 1.08826H14.9298C16.7032 2.30766 16.4093 3.91625 16.0641 4.90856L3.67686 44.5035C3.17951 46.0707 1.33093 47.7159 0.335938 47.9762L17.5514 47.9709C16.6055 47.7983 15.2468 46.4551 15.7367 44.6144L20.2353 30.2937C20.2353 30.2937 40.9388 33.0881 47.206 17.6101Z" fill="white"/>
<path fill-rule="evenodd" clip-rule="evenodd" d="M54.1656 41.8852C53.4825 42.3131 50.8013 43.6718 48.2724 43.9139C45.9393 44.1305 42.057 43.2257 42.0672 38.5467C42.0699 34.5508 46.419 31.63 48.7649 30.6143C49.7419 34.4888 51.879 38.8559 54.1656 41.8852ZM60.964 16.6678C60.3636 20.4443 55.4809 24.2469 54.2849 24.7653C54.0734 22.6434 54.1662 19.2998 55.9501 16.562C57.1258 14.7524 58.675 13.953 59.9358 14.3913C60.9386 14.7344 61.0596 15.6701 60.964 16.6678ZM60.966 47.9768L72.5387 47.9717C68.834 46.7832 63.3533 43.2823 61.1775 40.7868C62.9407 38.8586 65.1216 36.4404 65.5188 31.5164H59.5123C59.5123 31.5164 60.667 32.1764 60.667 33.5843C60.667 34.8912 60.149 36.6852 59.1333 37.9615C57.3776 35.3526 55.4958 32.3775 54.8384 28.0182C57.1868 26.8401 60.5019 25.577 63.1367 23.2724C65.6297 21.0835 66.207 19.0239 66.2457 17.6781V17.5079C66.2457 16.1055 65.6965 14.7803 64.6835 13.7748C62.9461 12.0503 60.1954 11.3465 57.3234 11.8852C55.0083 12.3211 53.0363 13.5507 52.0491 14.4711C48.5455 17.7398 48.097 23.1486 48.097 25.5898C48.097 26.1852 48.1227 26.6364 48.1461 26.8994L47.5864 27.116C45.0371 28.0544 38.2183 29.8793 35.7744 35.4838C35.4625 36.1903 35.0215 37.727 35.0215 39.5183C35.0215 41.0577 35.3463 42.7744 36.344 44.342C38.0634 47.0256 40.987 48.727 45.6507 48.647C50.729 48.562 55.7253 45.0949 56.6223 44.4603C57.5064 45.2777 59.7775 47.4124 60.966 47.9768Z" fill="white"/>
<path fill-rule="evenodd" clip-rule="evenodd" d="M96.1561 4.76383C103.034 3.11659 108.711 8.49664 109.221 8.86516L111.191 2.61624C108.466 1.79921 88.724 -4.88803 74.7773 11.0487C66.2031 20.8504 64.0966 40.9274 74.9783 46.3128C86.6334 52.0719 99.4895 45.426 100.436 44.9646L105.762 28.0275C106.334 25.9805 107.636 24.6449 109.93 23.7943H91.4361C94.1376 24.9184 93.9393 26.9549 93.7203 27.7848L88.4095 44.7219C87.7006 44.8639 72.8385 48.571 81.1577 22.5593C82.9548 16.9782 87.9687 6.73315 96.1561 4.76383Z" fill="white"/>
</svg>
