<svg width="144" height="51" viewBox="0 0 144 51" fill="none" xmlns="http://www.w3.org/2000/svg">
<path d="M81.716 42.0156C81.716 42.0156 82.0471 41.6466 82.0471 40.9088C82.0471 39.9879 81.3761 38.9973 80.1647 38.9973C79.0347 38.9973 78.1981 39.9037 78.1981 41.0976C78.1981 42.7011 79.7958 43.5842 81.4749 43.5842C84.3943 43.5842 86.2825 41.7163 87.9558 37.7569L93.1905 25.3673H94.8405V23.3193H88.7953V25.3673H90.9217L87.1744 34.8491L83.427 25.3673H85.9543V23.3193H77.7188V25.3673H79.7319L85.4314 38.2856C84.3217 41.0889 83.5054 41.7803 81.716 42.0156ZM131.382 23.3193H125.822V25.3673H128.122V35.95H125.822V38.0009H133.534V35.95H131.542V29.9281C131.542 27.1306 133.441 25.3673 135.196 25.3673C136.805 25.3673 137.842 26.5467 137.842 28.6586V35.95H135.823V38.0009H143.562V35.95H141.235V27.7465C141.235 24.7602 139.71 22.9766 137.157 22.9766C134.908 22.9766 132.799 23.848 131.382 26.4218V23.3193ZM113.543 30.6601C113.543 26.294 114.719 24.5801 117.363 24.5801C120.006 24.5801 121.183 26.294 121.183 30.6601C121.183 35.0175 120.006 36.7402 117.363 36.7402C114.719 36.7402 113.543 35.0175 113.543 30.6601ZM124.962 30.6601C124.962 26.0936 121.874 22.9766 117.363 22.9766C112.851 22.9766 109.76 26.0936 109.76 30.6601C109.76 35.218 112.851 38.3437 117.363 38.3437C121.874 38.3437 124.962 35.218 124.962 30.6601ZM101.153 22.9766C98.1638 22.9766 95.9996 24.9432 95.9996 27.5083C95.9996 29.8235 97.3736 31.0581 101.069 32.0545C103.878 32.7866 105.133 33.3646 105.133 34.8491C105.133 36.1388 104.232 36.8796 102.652 36.8796C100.688 36.8796 98.7447 35.3923 97.667 33.0916H95.7701V38.3437H97.5682L98.0388 36.0837C99.0062 37.3328 100.488 38.3437 102.754 38.3437C106.225 38.3437 108.102 35.9733 108.102 33.7074C108.102 31.0436 106.208 30.0123 102.931 29.1408C100.325 28.4553 98.9975 27.8511 98.9975 26.4334C98.9975 25.2831 99.93 24.4058 101.316 24.4058C103.457 24.4058 104.648 26.1139 105.609 27.8714H107.48V22.9766H105.65L105.2 25.0391C104.444 23.8539 103.175 22.9766 101.153 22.9766ZM58.5287 16.2836V21.8814H60.1381C60.7104 18.6947 61.3611 18.3403 64.6524 18.3345H67.1826V35.95H62.8716V38.0009H74.9823V35.95H70.6743V18.3345H73.2016C76.4958 18.3403 77.1494 18.6947 77.7188 21.8814H79.331V16.2836H58.5287ZM22.3506 26.5613H19.5938C18.917 26.5613 18.3621 26.0093 18.3621 25.3267H16.6424C16.6424 25.8989 16.8051 26.4276 17.0897 26.8808H16.808C15.951 26.8808 15.2538 26.1836 15.2538 25.3267H13.5341C13.5341 26.1778 13.8914 26.9447 14.4695 27.4792C13.8914 28.0166 13.5341 28.7835 13.5341 29.6347H15.2538C15.2538 28.7777 15.951 28.0805 16.808 28.0805H17.0897C16.8051 28.525 16.6424 29.0624 16.6424 29.6347H18.3621C18.3621 28.952 18.917 28.4001 19.5938 28.4001H22.3506V26.5613ZM32.9972 39.5841V37.1585H27.6928V16.2836H30.8795C34.7315 16.2836 35.5507 16.7077 36.2275 20.4812H38.139V13.8492H13.5341V20.4812H15.4426C16.1195 16.7077 16.9416 16.2836 20.7906 16.2836H23.9774V37.1585H18.6729V39.5841H32.9972ZM35.876 25.0884H34.5572V26.5613H29.3166V28.4001H34.5572V29.8729H35.876C36.2043 28.9375 37.0961 28.2752 38.139 28.2752V26.6862C37.0961 26.6862 36.2043 26.0238 35.876 25.0884ZM25.8336 3.15615C13.4469 3.15615 3.40457 13.2014 3.40457 25.591C3.40457 37.9806 13.4469 48.0259 25.8336 48.0259C38.2261 48.0259 48.2656 37.9806 48.2656 25.591C48.2656 13.2014 38.2261 3.15615 25.8336 3.15615ZM50.9846 25.591C50.9846 39.4795 39.7221 50.7391 25.8336 50.7391C11.948 50.7391 0.685547 39.4795 0.685547 25.591C0.685547 11.7025 11.948 0.442932 25.8336 0.442932C39.7221 0.442932 50.9846 11.7025 50.9846 25.591ZM47.5539 48.0259L46.97 49.8327L46.3541 48.0259H45.6395V50.4602H46.084V48.5081L46.7666 50.4602H47.1385L47.8211 48.4878V50.4602H48.2656V48.0259H47.5539ZM43.2981 48.0259H45.2822V48.418H44.5298V50.4602H44.0505V48.418H43.2981" fill="white"/>
</svg>
