<svg width="120" height="56" viewBox="0 0 120 56" fill="none" xmlns="http://www.w3.org/2000/svg">
<path fill-rule="evenodd" clip-rule="evenodd" d="M103.37 28.2945C104.241 28.2945 104.934 27.6017 104.934 26.7307C104.934 25.8597 104.222 25.1668 103.37 25.1668C102.499 25.1668 101.807 25.8794 101.807 26.7307C101.807 27.6017 102.519 28.2945 103.37 28.2945ZM104.696 26.7309C104.696 25.9985 104.103 25.4046 103.37 25.4046C102.638 25.4046 102.064 25.9985 102.044 26.7309C102.044 27.4633 102.638 28.0572 103.37 28.0572C104.103 28.0572 104.696 27.4633 104.696 26.7309ZM103.351 27.4433H103.272C103.173 27.4433 103.153 27.4037 103.153 27.3048V26.7703H103.213C103.292 26.7703 103.371 26.7703 103.43 26.8297C103.467 26.8758 103.517 26.9909 103.57 27.1126C103.63 27.2518 103.694 27.3997 103.747 27.4631L103.886 27.5423H104.202V27.4631C104.123 27.4631 104.103 27.4433 104.064 27.4037C104.023 27.3496 103.992 27.277 103.964 27.2112L103.963 27.211L103.963 27.2107L103.963 27.2104L103.963 27.2101C103.95 27.18 103.938 27.1514 103.925 27.1266L103.904 27.0831C103.831 26.934 103.749 26.7667 103.569 26.7307C103.807 26.6911 104.005 26.5327 104.005 26.2754C104.005 26.1566 103.925 25.9982 103.826 25.9389C103.688 25.8597 103.49 25.8597 103.331 25.8597H102.639V25.9587H102.698C102.817 25.9587 102.817 25.9785 102.817 26.0774V27.3443C102.817 27.4631 102.777 27.4631 102.678 27.4631H102.639V27.5423H103.351V27.4433ZM103.232 25.9588H103.331C103.569 25.9588 103.708 26.0776 103.708 26.3151C103.708 26.6121 103.51 26.6714 103.252 26.6714H103.173V26.137C103.153 26.0578 103.153 25.9588 103.232 25.9588ZM29.3754 52.9796C29.4942 52.5045 29.6129 51.9502 29.6525 51.3959L29.8703 49.6539H30.6621L30.6501 49.7332L30.6501 49.7333L30.6501 49.7333C30.5523 50.377 30.4246 51.2178 30.4246 52.168V54.7414C29.7837 54.8553 28.7844 54.8668 27.7212 54.879H27.7212H27.721C27.3064 54.8838 26.882 54.8886 26.4655 54.8997C25.06 54.8008 23.6149 54.7414 22.1698 54.7414C20.705 54.7414 19.2995 54.8008 17.8544 54.8997V53.9694C19.0421 53.91 19.8934 53.2567 19.8934 51.1782V36.965L19.8934 36.8443C19.894 34.5426 19.8941 34.3295 17.6367 34.1739V33.2435C19.0817 33.3424 20.507 33.4018 21.9917 33.4018C23.4565 33.4018 24.9214 33.3424 26.3467 33.2435C26.7684 33.2546 27.2009 33.2594 27.623 33.2642C28.7069 33.2764 29.7217 33.2879 30.3058 33.4018C30.0484 34.4312 29.9495 35.421 29.9297 36.4107C29.9297 36.7374 29.9099 37.0294 29.8901 37.3213C29.8703 37.6133 29.8505 37.9053 29.8505 38.2319H29.1181C29.1 37.1335 28.9674 36.3299 28.8244 35.4636L28.8241 35.4623C28.81 35.3767 28.7958 35.2904 28.7815 35.2032C27.6532 34.7281 26.4259 34.6687 25.2381 34.6687C24.189 34.6687 23.0804 34.6687 22.2886 34.8271C22.1896 35.5991 22.1698 36.3118 22.1698 37.4005V43.2006C22.7335 43.2071 23.2399 43.2173 23.6948 43.2264C27.4257 43.3015 27.6949 43.307 27.7126 40.6074H28.5044V47.7536H27.7126C27.7126 44.4122 27.5686 44.4193 22.8855 44.6503C22.6579 44.6616 22.4195 44.6733 22.1698 44.6853V50.6635C22.1698 51.7919 22.1896 52.5243 22.2886 53.3359C23.1794 53.4943 24.3869 53.4943 25.5351 53.4943C26.8218 53.4943 28.1283 53.4349 29.3754 52.9796ZM65.8388 51.1977V36.3115C65.8388 34.5101 66.2743 34.233 67.6995 34.2132H68.0558V33.2828C67.3234 33.3818 66.5514 33.4412 65.7992 33.4412C65.0271 33.4412 64.2749 33.3818 63.5425 33.2828C63.2257 34.6487 62.7704 35.975 62.2558 37.4003L57.3465 50.5247L51.0515 33.263C50.3191 33.362 49.5471 33.4214 48.7948 33.4214C48.0228 33.4214 47.2706 33.362 46.5381 33.263V34.1934L46.9142 34.233C48.3593 34.233 48.7948 34.5101 48.7948 36.3115V51.8906C48.7948 53.692 48.3593 53.9691 46.9142 53.9691L46.6965 53.9889C46.2412 53.8899 45.7661 53.692 45.39 53.1377L39.9858 43.9724C42.3019 43.3785 44.6378 41.3792 44.6378 37.9941C44.6378 35.4009 43.1135 33.065 39.8275 33.2828C38.4418 33.3818 37.0561 33.4412 35.6506 33.4412C34.2451 33.4412 32.8594 33.3818 31.5331 33.2828V34.2132C33.79 34.3702 33.79 34.5856 33.7898 36.9424V37.0043V51.2175V51.2794C33.79 53.6363 33.79 53.8517 31.5331 54.0087V54.9391C32.6021 54.8401 33.7304 54.7807 34.8984 54.7807C36.0663 54.7807 37.1749 54.8401 38.323 54.9391V54.0087C36.0656 53.853 36.0656 53.6399 36.0663 51.3382L36.0663 51.2175V37.0043C36.0663 36.0344 36.0663 35.4009 36.2049 34.8664C36.8581 34.6091 37.7489 34.4705 38.5803 34.4705C40.3421 34.4705 42.2425 35.4603 42.2425 38.8057C42.2425 41.102 40.8172 42.7648 39.1346 43.141C38.422 43.2993 37.6895 43.3191 36.9373 43.2597L36.8383 43.7348L42.4999 53.2169C42.6937 53.5248 42.8613 53.8393 43.0405 54.1754C43.1723 54.4228 43.3104 54.682 43.4698 54.9589C44.0241 54.8599 44.5388 54.8005 45.0931 54.8005C45.5682 54.8005 46.0432 54.8401 46.4985 54.9193V54.9589C46.5381 54.9589 46.5975 54.9589 46.6371 54.9391C46.6569 54.9391 46.6965 54.9391 46.7163 54.9589V54.9391C47.6071 54.8599 48.4781 54.8005 49.3491 54.8005C50.2993 54.8005 51.2495 54.8599 52.1799 54.9589V54.0285L51.8037 53.9889C50.2993 53.9889 49.844 53.7118 49.844 51.9104V37.0043L56.4953 55.1964H56.9704L63.5425 37.0043V51.2175V51.2794C63.5426 53.6363 63.5427 53.8517 61.2858 54.0087V54.9391C62.3547 54.8599 63.4831 54.7807 64.651 54.7807C65.819 54.7807 66.9275 54.8401 68.0756 54.9391V54.0087C65.8386 53.8321 65.8386 53.6166 65.8388 51.2602V51.1977ZM71.0049 42.9629C71.0049 48.3869 72.9646 54.0484 77.676 54.0484C81.6549 53.7119 83.575 50.0497 83.5948 44.3486C83.5948 38.2318 81.4767 34.1341 77.0425 34.1341C72.8854 34.1341 71.0049 37.8755 71.0049 42.9629ZM77.419 32.8078C71.896 32.7088 68.4714 37.6775 68.4714 43.9923C68.4714 51.0593 72.094 55.3945 76.9241 55.3945C82.1303 55.3945 86.1488 50.0695 86.1488 43.4182C86.129 36.5294 82.5064 32.8078 77.419 32.8078ZM105.726 33.2631C107.983 33.3621 110.24 33.4215 112.576 33.4215C114.892 33.4215 117.148 33.3621 119.464 33.2631C119.385 34.4112 119.365 35.5 119.346 36.5888C119.326 37.1826 119.326 37.7567 119.326 38.3308H118.613C118.598 37.6778 118.509 37.0493 118.423 36.4452C118.4 36.2801 118.377 36.1168 118.356 35.9553C118.316 35.1437 118.019 35.0645 117.524 35.0249L113.803 34.8665C113.738 35.632 113.726 36.4377 113.713 37.3497C113.71 37.5462 113.707 37.7476 113.704 37.9546V51.2176V51.2795C113.704 53.6364 113.704 53.8518 115.961 54.0088V54.9392C114.812 54.8402 113.704 54.7808 112.536 54.7808C111.368 54.7808 110.24 54.8402 109.171 54.9392V54.0088C111.428 53.8518 111.428 53.6364 111.427 51.2796V51.2176V37.9546C111.424 37.7484 111.421 37.5478 111.418 37.3521L111.418 37.3499V37.3498V37.3497C111.405 36.4377 111.394 35.632 111.328 34.8665L107.666 35.0249C107.171 35.0645 106.874 35.1437 106.835 35.9553C106.816 36.0933 106.796 36.2342 106.776 36.3775L106.776 36.3783L106.776 36.3786L106.776 36.3787C106.688 36.9953 106.594 37.6565 106.577 38.3308H105.865C105.865 37.7369 105.865 37.1826 105.845 36.5888V36.5883C105.825 35.4997 105.805 34.4111 105.726 33.2631ZM99.5704 33.263V34.1934L99.9465 34.233C101.392 34.233 101.827 34.5101 101.827 36.3115V51.7124L90.5832 33.2828C89.8904 33.3818 89.2173 33.4412 88.5245 33.4412C87.8118 33.4412 87.1388 33.3818 86.4459 33.2828V34.2132H86.7825C88.1088 34.2528 88.5047 34.5299 88.5047 36.3115V51.8906C88.5047 53.692 88.0692 53.9691 86.6241 53.9691L86.248 54.0087V54.9391C87.1982 54.8401 88.1484 54.7807 89.1183 54.7807C90.0685 54.7807 91.0187 54.8401 91.9491 54.9391V54.0087L91.573 53.9691C90.0685 53.9691 89.6132 53.692 89.6132 51.8906V36.7668L101.114 54.9589L102.995 55.3944L102.916 54.2462V36.3115C102.916 34.5101 103.371 34.233 104.876 34.233L105.252 34.1934V33.263C104.321 33.362 103.371 33.4214 102.421 33.4214C101.471 33.4214 100.521 33.362 99.5704 33.263ZM12.1728 34.1935V33.2631C13.024 33.3621 13.8554 33.4215 14.7264 33.4413C15.6172 33.4413 16.4486 33.3819 17.2998 33.2829V34.2133C16.0094 34.096 15.7831 34.9008 15.4798 35.9793C15.4248 36.1747 15.3673 36.3792 15.3005 36.5888L11.3216 49.3173L9.63897 55.0382H8.45124L7.93656 53.019L7.10515 50.2081L2.78973 36.272C2.7141 36.0277 2.65343 35.8167 2.60081 35.6337C2.29535 34.5713 2.26122 34.4526 1.1467 34.2331L0.691406 34.1935V33.2631C1.74057 33.3621 2.78973 33.4215 3.85869 33.4215C4.92764 33.4215 5.9768 33.3621 7.02597 33.2631V34.1935C4.74948 34.1341 4.88805 34.728 5.04642 35.3416L5.93721 38.7663L9.65877 50.9999L12.7865 40.9042L13.8158 37.1628C13.8651 36.9842 13.9171 36.8094 13.9677 36.6398C14.4043 35.1733 14.7277 34.087 12.1728 34.1935Z" fill="white"/>
<path fill-rule="evenodd" clip-rule="evenodd" d="M66.8084 7.05383C66.9074 7.11322 67.1054 7.2122 67.2242 7.23199C67.2432 7.30819 67.276 7.33856 67.3093 7.36941C67.3452 7.40267 67.3818 7.43649 67.4023 7.52892C67.5607 7.56851 67.6794 7.6477 67.7784 7.74667L68.0754 7.92483L68.3327 8.18218L68.6296 8.32074L68.887 8.4989L69.6392 8.57809L70.1143 8.73645H70.9655L71.4802 8.69686C71.5156 8.68271 71.5484 8.6812 71.5814 8.67969C71.6408 8.67696 71.7008 8.67421 71.7771 8.59788L72.1928 8.45931L72.4898 8.4989L72.9055 8.45931L73.2024 8.10299L73.4597 7.80606C73.5599 7.7504 73.6914 7.75108 73.826 7.75178C73.9308 7.75232 74.0375 7.75287 74.1328 7.72688C74.2114 7.70068 74.2784 7.66294 74.3509 7.62213C74.4427 7.57042 74.5432 7.51379 74.6871 7.46954L75.1423 7.11322L75.3601 6.81629C75.3997 6.7569 75.5383 6.71731 75.6174 6.69751L75.7758 6.36099L76.1519 6.18283L76.5676 6.00467L76.7458 5.66815C76.825 5.56917 76.9042 5.50978 77.0823 5.48999C77.0877 5.4629 77.0991 5.42248 77.1119 5.37682L77.1119 5.37679C77.1459 5.25562 77.1902 5.09762 77.1615 5.05449V4.71796C77.3695 3.64834 77.1538 3.39258 76.7989 2.97177C76.681 2.83185 76.5476 2.67368 76.4093 2.46128L76.2509 2.06537C76.2311 2.02577 75.9936 1.907 75.9144 1.88721C75.8946 1.74864 75.8352 1.66946 75.657 1.61007L75.2215 1.23395C74.5552 0.801766 74.0036 0.844646 73.2835 0.900622C73.212 0.906178 73.1389 0.911864 73.0638 0.917227L72.6877 0.956818C72.6797 0.956818 72.6724 0.954365 72.6634 0.951286C72.6278 0.939219 72.5639 0.917549 72.3116 0.996409L72.0543 0.877636C72.0392 0.867597 72.0229 0.861377 72.003 0.853811C71.9445 0.831538 71.8555 0.797608 71.6781 0.620294C71.5792 0.580703 71.1239 0.620294 71.0051 0.758863C70.9599 0.781469 70.9118 0.778259 70.8532 0.774347C70.7579 0.767983 70.6347 0.75976 70.4508 0.85784L70.1539 1.036L69.7778 1.21416L69.4412 1.25375L69.1443 1.64966L68.689 1.94659L68.3129 2.04557C68.3003 2.1965 68.2238 2.26752 68.124 2.36017C68.0667 2.41334 68.0017 2.47364 67.9368 2.56025C67.7928 2.59624 67.7143 2.69768 67.493 2.98353L67.4221 3.07494L67.1252 3.2531C66.9913 3.28284 66.9692 3.35729 66.9413 3.45124L66.9413 3.45128C66.9321 3.48236 66.9222 3.51558 66.9074 3.55003L66.7887 3.88655C66.7827 3.89838 66.7609 3.9102 66.7274 3.92836C66.6488 3.97099 66.5059 4.04851 66.3531 4.24287L66.2344 4.63878C66.3027 4.96328 66.3121 5.26567 66.3213 5.56344C66.3335 5.95595 66.3454 6.34042 66.4917 6.7569L66.8084 7.05383ZM67.0065 4.93543L66.8482 5.27195C66.7492 5.4699 66.868 5.62827 66.9471 5.66786L66.9867 5.9252L67.4024 6.28152C67.5813 6.32622 67.6142 6.40458 67.6365 6.45748C67.6438 6.47486 67.65 6.48948 67.6598 6.49927L67.9567 6.63784C68.9663 7.09314 71.0844 7.52864 72.0544 6.77641L72.4305 6.67743C72.5794 6.62425 72.6655 6.57106 72.7316 6.53016C72.7886 6.49495 72.8308 6.46884 72.8858 6.45968L73.0639 6.06377C73.1709 6.02098 73.2651 5.98847 73.3482 5.95975C73.4958 5.90876 73.6088 5.86975 73.6974 5.80643C73.8406 5.69502 73.8943 5.68598 73.951 5.67643C73.9648 5.6741 73.9788 5.67174 73.9943 5.66786C74.0118 5.6199 74.0292 5.56618 74.0473 5.5105C74.1113 5.31339 74.1832 5.09179 74.2913 5.01461L74.509 4.75727C74.4496 4.65829 74.4298 4.46033 74.4694 4.36136C74.4803 4.34505 74.4986 4.33322 74.5183 4.32055C74.5702 4.28705 74.6313 4.24762 74.5882 4.10401L74.509 3.7477C74.3272 3.61782 74.3243 3.55612 74.3215 3.49549C74.32 3.46371 74.3185 3.43223 74.2913 3.39138L74.0339 3.17363L73.4797 2.95588L73.1827 2.77772L72.9254 2.69853L72.5097 2.65894L71.124 2.52037L71.0448 2.44119L70.3322 2.55997L70.0352 2.63915L69.1444 2.75792L69.0653 3.09444C68.9947 3.14381 68.9418 3.17811 68.9011 3.20448C68.8275 3.25214 68.7938 3.27397 68.7683 3.31219C68.6814 3.31219 68.6369 3.3228 68.5804 3.33625C68.5598 3.34118 68.5375 3.34648 68.511 3.35179C68.511 3.50113 68.471 3.5438 68.4258 3.59201C68.3931 3.62687 68.3577 3.66462 68.3328 3.7477C68.2808 3.75926 68.2405 3.77083 68.2037 3.78142C68.1146 3.80704 68.0457 3.82688 67.8775 3.82688C67.8181 3.92586 67.7983 3.96545 67.7983 4.12381C67.7822 4.12785 67.766 4.13271 67.7494 4.13772C67.6844 4.15728 67.6117 4.17916 67.5014 4.1634L67.1253 4.42074L67.0065 4.93543ZM98.6599 26.2356L98.9173 26.493C99.1746 26.7305 99.333 26.9285 99.333 26.9681C99.4517 27.0868 99.5111 27.1462 99.5309 27.265L99.4879 27.2591C99.0941 27.2055 99.075 27.2029 99.0558 27.1264C98.8958 27.0578 98.7886 27.0487 98.7075 27.0417C98.6481 27.0366 98.6028 27.0327 98.5609 27.0077L98.264 26.8295L97.9671 26.6117L97.8483 26.3544L97.3336 25.8793L96.9971 25.4438L96.7398 25.2261C96.7068 25.2063 96.6716 25.1887 96.6364 25.1711L96.6364 25.1711C96.566 25.1359 96.4956 25.1007 96.4428 25.0479C96.2004 24.7731 96.1955 24.7095 96.1911 24.6523C96.1901 24.6395 96.1891 24.6269 96.1855 24.6124C96.0469 24.3946 95.9479 24.3353 95.849 24.2759C95.4919 24.0438 95.4569 24.0049 95.4389 23.985L95.4333 23.9789C95.263 23.8619 95.1843 23.7792 95.1294 23.7216C95.0822 23.672 95.0527 23.6409 94.9977 23.6226L94.5029 23.4841L94.2851 23.1871C93.9475 22.8683 93.9298 22.8693 93.912 22.8703L93.909 22.8704L93.8298 22.6328C93.6912 22.6328 93.6517 22.6328 93.5725 22.5735L93.1964 22.4943C92.9638 22.3438 92.8825 22.354 92.8218 22.3616C92.7947 22.3651 92.7717 22.3679 92.7411 22.3557L92.4837 22.2369L92.2264 22.138C92.1017 22.0008 92.0713 21.9422 92.0559 21.9126C92.0469 21.8953 92.0431 21.8879 92.0284 21.8806L91.6523 21.8014L91.2366 21.7025L90.9001 21.5837L90.4448 21.3263C90.3982 21.2664 90.3784 21.2132 90.3615 21.1675C90.328 21.0772 90.3053 21.0161 90.1083 20.9898C89.9431 21.0999 89.88 21.0739 89.7928 21.038L89.7717 21.0294L89.0591 20.5147H88.8018C88.7424 20.4355 88.4058 20.4355 88.2475 20.4355L87.911 20.5147C87.8884 20.456 87.8751 20.4025 87.8633 20.355L87.8633 20.3549C87.8234 20.1944 87.8008 20.1035 87.4953 20.1188L87.0796 19.7625L86.8222 19.6239C86.6638 19.4656 86.5847 19.3864 86.4461 19.327L86.1096 19.2874L85.8522 19.1092L85.3969 19.0301L84.8427 18.9905L84.13 18.5946C83.9065 18.5258 83.7577 18.6213 83.6965 18.6605C83.6872 18.6665 83.6799 18.6711 83.6747 18.6737H83.3382C83.3116 18.6791 83.2763 18.6901 83.2363 18.7027C83.1277 18.7368 82.9842 18.7819 82.8829 18.7529L82.586 18.6342L81.8337 18.5946H81.3191L81.0221 18.555L80.7648 18.6737L80.844 18.9905L80.547 19.0301H80.2105C80.1313 18.9509 80.0719 18.9509 79.9532 18.9509L79.9352 18.9747C79.8788 19.0493 79.8127 19.1368 79.7948 19.2082C79.6562 19.525 79.5573 19.6635 79.2801 19.6833C79.1266 19.782 79.0217 19.8807 78.9418 19.9558C78.8775 20.0163 78.8294 20.0616 78.7852 20.0792L78.3101 20.3762C78.2151 20.4379 78.1441 20.4791 78.0909 20.51C78.0104 20.5567 77.971 20.5796 77.9518 20.6138C77.9335 20.6465 77.9336 20.6896 77.9339 20.774L77.934 20.8117C78.033 20.8908 78.0528 21.2076 78.0528 21.3857C77.6173 21.4649 77.5381 21.5243 77.5381 21.5243C77.5007 21.8235 77.3573 21.8224 77.2247 21.8214L77.2016 21.8212C77.1224 21.7223 76.9838 21.7025 76.8255 21.6827L76.5681 21.6431C76.3041 21.5272 75.9982 21.4238 75.6831 21.3174C75.0296 21.0966 74.3365 20.8625 73.8957 20.4751L73.6384 20.1782C73.5534 20.1145 73.4969 20.0792 73.4567 20.0541C73.422 20.0325 73.3994 20.0184 73.3811 20C73.3601 19.9731 73.3419 19.9485 73.3253 19.926C73.232 19.7998 73.1898 19.7427 73.0049 19.7427L71.8568 19.6041L71.5995 19.4854L70.966 19.2676L70.7087 19.0499L70.3721 18.8915L69.8773 18.4164L69.5803 18.3768L69.0854 18.1987L68.8281 18.0601L68.1155 17.8819C67.9932 17.8028 67.8736 17.7499 67.768 17.7031C67.5828 17.6211 67.4406 17.5581 67.4028 17.4068L66.6308 17.2683C66.5714 17.2485 66.5186 17.2353 66.4717 17.2235C66.3779 17.2001 66.3075 17.1825 66.2547 17.1297L65.9973 16.9119L65.2451 16.6942L64.9482 16.516L64.4533 16.2191L64.0376 15.9222L63.5823 15.7836L63.0676 15.4273L62.3946 15.3085C62.104 15.1371 61.8835 15.0499 61.6783 14.9687C61.3382 14.8341 61.0399 14.7161 60.5338 14.2593L60.1973 14.1406L59.8211 14.0812C59.7515 14.0255 59.6844 13.9894 59.6249 13.9574C59.515 13.8984 59.4311 13.8532 59.4054 13.7249C59.2913 13.6923 59.204 13.6194 59.1215 13.5504C59.1038 13.5357 59.0864 13.5211 59.0689 13.5071C58.7324 13.2894 58.673 13.131 58.6532 13.0716C58.6232 13.0716 58.5897 13.0723 58.5544 13.0731C58.4031 13.0763 58.2188 13.0802 58.1385 13.032L57.802 12.8539C57.703 12.7351 57.6436 12.6955 57.5447 12.6757C57.5091 12.6223 57.4877 12.5761 57.4694 12.5364C57.4265 12.4436 57.4002 12.3867 57.2477 12.359L56.9904 12.1412L56.733 11.8245L56.3965 11.4286L56.1788 11.1713L55.8027 10.7357L55.5057 10.5576L55.387 10.2013L55.09 10.0231C55.0012 9.9121 54.956 9.83221 54.9264 9.77996L54.9264 9.77993C54.9032 9.73903 54.8897 9.71508 54.8723 9.70638C54.6743 9.647 54.516 9.33027 54.4962 9.27088C54.1596 9.01354 53.9419 9.01354 53.7835 9.01354C53.7439 9.1719 53.6054 9.33027 53.4866 9.40945H52.5166C52.4176 9.58761 52.4968 9.72618 52.5166 9.74597L52.6552 10.1023L52.1801 10.0033L51.7248 9.92413L52.1009 10.2409L52.5364 10.5774C52.3269 10.9802 52.0781 10.9371 51.8434 10.8965C51.7897 10.8872 51.7368 10.878 51.6852 10.8743C51.5664 10.9535 51.4279 10.9535 51.2299 10.9535C51.2119 10.9896 51.1975 11.0092 51.1862 11.0246C51.1603 11.0599 51.1507 11.073 51.1507 11.2108C51.304 11.3223 51.2709 11.4631 51.231 11.6334C51.2142 11.7051 51.1962 11.782 51.1903 11.8641L51.0121 12.2996C50.9547 12.3242 50.9067 12.3446 50.8653 12.3621C50.707 12.4291 50.6469 12.4546 50.5371 12.5173L50.2005 12.6559C49.963 12.8539 49.9036 12.8935 49.8046 12.9133C49.7993 12.9398 49.794 12.962 49.7891 12.9827L49.7891 12.9827C49.7756 13.0391 49.765 13.0836 49.765 13.1706C49.8411 13.3418 49.8076 13.3668 49.7346 13.4211L49.7254 13.4279C49.3691 13.6457 49.1316 13.6853 48.9336 13.6853L48.6763 13.7645L48.4189 13.5863C48.3793 13.5566 48.3249 13.5517 48.2705 13.5467C48.216 13.5418 48.1616 13.5368 48.122 13.5071C48.0561 13.7709 48.0588 13.7738 48.0958 13.8132C48.1033 13.8211 48.1121 13.8304 48.122 13.8436C48.1829 13.8924 48.1839 13.9561 48.1848 14.021C48.1854 14.0615 48.186 14.1025 48.2012 14.1406C48.2258 14.1899 48.2445 14.2264 48.2585 14.2537L48.2587 14.2542L48.2588 14.2543C48.2917 14.3185 48.2981 14.331 48.2944 14.3388C48.294 14.3398 48.2933 14.3407 48.2925 14.3417L48.2903 14.3442C48.2875 14.3473 48.2839 14.3512 48.2804 14.3583L48.023 14.4771C47.8636 14.5768 47.7944 14.6012 47.7524 14.616C47.711 14.6306 47.6961 14.6359 47.6469 14.6948C47.7229 15.0367 47.5984 15.1599 47.5183 15.2393L47.5083 15.2491L47.35 15.5065L47.053 15.6846L46.6769 15.8232C46.4984 15.9468 46.3866 15.9656 46.3084 15.9787C46.2738 15.9845 46.2459 15.9892 46.2216 16.0014L46.0039 16.2587L45.4892 16.3577C45.3308 16.516 45.1527 16.5754 45.0141 16.5754L44.638 16.8328L44.0441 16.8724C43.9398 16.8202 43.8507 16.8444 43.7769 16.8645L43.7601 16.869L43.7472 16.8724C43.5781 17.0752 43.454 17.0984 43.3528 17.1173C43.2763 17.1316 43.213 17.1434 43.1533 17.2287C43.1168 17.2798 43.1099 17.3255 43.1039 17.3659C43.0935 17.4349 43.0855 17.4881 42.9356 17.5256L42.4803 17.8621L42.2625 18.2976C42.1459 18.391 42.0773 18.4362 42.0326 18.4657L42.0326 18.4657L42.0326 18.4657C42.0014 18.4862 41.9819 18.4991 41.9656 18.5154C41.9047 18.5154 41.8438 18.4962 41.7862 18.4782C41.7128 18.4551 41.645 18.4338 41.5895 18.456C41.4806 18.5253 41.3767 18.5253 41.2827 18.5253C41.1886 18.5253 41.1045 18.5253 41.0352 18.5946L41.0748 18.9509L40.9956 19.2082H40.4018L39.9663 19.525C39.8603 19.6621 39.7858 19.756 39.7327 19.8228L39.7326 19.8229C39.6173 19.9683 39.6037 19.9854 39.5901 20.0396L38.8379 20.0792C38.776 20.1164 38.7257 20.1477 38.6828 20.1744L38.6828 20.1744C38.5885 20.2332 38.5298 20.2698 38.4618 20.297L38.7191 20.4751C38.7337 20.4855 38.7473 20.495 38.7601 20.5039C38.8697 20.5802 38.9192 20.6146 38.9369 20.7919L38.6796 20.9106L38.6737 20.8823L38.6685 20.8581C38.653 20.7865 38.64 20.7262 38.64 20.6137H38.3826L37.9273 20.7919L37.67 20.9304C37.5732 20.9869 37.5093 21.0006 37.4635 21.0105C37.3969 21.0248 37.3687 21.0309 37.3335 21.1482C37.2766 21.2192 37.3116 21.3107 37.3432 21.3933C37.3556 21.4257 37.3675 21.4568 37.3731 21.4847L37.5314 21.7421L36.9969 21.7025H36.7C36.3833 21.8291 36.3326 21.9305 36.3047 21.9862C36.2978 22.0002 36.2922 22.0113 36.2843 22.0192L36.2382 22.0552C36.0978 22.1651 36.0519 22.201 35.9082 22.2369C35.7746 22.3706 35.7634 22.404 35.7495 22.4457C35.7449 22.4596 35.7399 22.4745 35.73 22.4943L35.2747 22.7912C35.0588 22.9146 34.951 22.9058 34.8297 22.8959H34.8297H34.8296H34.8296C34.7952 22.8931 34.7598 22.8902 34.7205 22.8902L34.8392 23.1871L34.3839 23.5434C33.9682 23.8404 33.889 23.88 33.7505 23.88L33.7244 23.8484C33.6467 23.7539 33.6186 23.7197 33.4931 23.7018L33.018 23.9987L32.6419 24.1769L32.6023 24.5332L32.3846 24.7906C32.344 24.8253 32.3102 24.8482 32.2822 24.8672C32.2146 24.913 32.1808 24.9359 32.1668 25.0479C32.3545 25.2543 32.3465 25.3006 32.3283 25.406L32.3252 25.424L32.0679 25.4636C32.0626 25.4371 32.0573 25.4149 32.0524 25.3943L32.0523 25.3942L32.0523 25.3942C32.0389 25.3377 32.0283 25.2932 32.0283 25.2063C31.9331 25.1587 31.7615 25.1619 31.5953 25.1651H31.5952H31.5951H31.595C31.554 25.1659 31.5132 25.1667 31.474 25.1667C31.3948 25.3052 31.2364 25.424 31.0583 25.4636C30.7784 25.6941 30.6628 25.8562 30.6205 25.9155L30.6204 25.9156L30.6204 25.9156C30.6119 25.9276 30.6063 25.9354 30.603 25.9387C30.3654 26.2158 30.3061 26.2554 30.2269 26.2356C30.1921 26.2287 30.1475 26.2046 30.0982 26.178C30.0075 26.1289 29.901 26.0714 29.8112 26.0971L29.5538 26.2356L29.2173 26.196V26.4534L28.8016 26.5326L28.5443 26.5722L27.99 26.6513H27.7326L27.5545 26.9087C27.4238 26.9631 27.3291 26.9696 27.2604 26.9744C27.2042 26.9783 27.1655 26.9809 27.1388 27.0077C27.0076 27.1388 26.8852 27.1222 26.7772 27.1076C26.7221 27.1002 26.6709 27.0933 26.6241 27.1066L25.8323 27.1858H25.5353L25.0998 27.2254L25.079 27.2318L25.079 27.2318L25.0789 27.2318C24.8359 27.3067 24.7177 27.3431 24.506 27.3046C24.4268 27.1462 24.3278 27.0274 24.2486 27.0868L23.9121 26.9483L23.3974 26.9087C23.2871 26.7861 23.2679 26.7015 23.2551 26.6454C23.2473 26.6109 23.2419 26.5872 23.2193 26.5722L22.764 26.6117L22.4274 26.3544C22.3914 26.2463 22.2569 26.2038 22.1883 26.1821L22.1701 26.1762L21.5367 26.2554L21.2793 26.0773L21.022 25.8991C20.8801 25.7856 20.7834 25.7625 20.7124 25.7455C20.635 25.727 20.5882 25.7159 20.5469 25.6022C20.614 25.3741 20.6538 25.3733 20.7341 25.3719C20.7723 25.3712 20.8196 25.3703 20.8834 25.3448L21.3387 25.2063L21.5169 24.8697L21.8534 24.4342L22.3483 24.0779L22.467 23.8206L22.6254 23.5632C22.7285 23.4945 22.7868 23.4296 22.836 23.3748C22.9002 23.3033 22.9488 23.2491 23.0609 23.2267L23.5756 22.7912L23.9121 22.3557C23.9715 22.3095 24.0243 22.2656 24.0726 22.2252L24.0727 22.2252L24.0727 22.2252L24.0727 22.2252L24.0727 22.2252L24.0727 22.2252L24.0728 22.2251C24.1695 22.1445 24.2487 22.0786 24.3278 22.039L25.0009 21.8212C24.9798 21.7055 24.9644 21.6345 24.9515 21.5755C24.9402 21.5236 24.931 21.481 24.9217 21.4253L25.377 21.1284C25.4474 21.1206 25.5054 21.1189 25.5609 21.1174H25.5609H25.5609C25.6458 21.115 25.7245 21.1127 25.8323 21.0888L26.1292 20.6533C26.2831 20.5302 26.3466 20.4921 26.3831 20.4703C26.417 20.45 26.4276 20.4436 26.4657 20.396L26.9606 19.8813C26.9973 19.7988 27.0212 19.7545 27.0383 19.7229C27.0581 19.6862 27.0688 19.6665 27.0794 19.6239L27.7524 19.7031L27.792 19.1884L28.3463 18.7925L28.5641 18.4758L28.8214 18.357C29.0193 18.1789 29.1777 18.1789 29.3757 18.1789V17.8819L29.7914 17.6642C29.8155 17.6401 29.837 17.6183 29.8564 17.5986C29.9962 17.4569 30.0284 17.4242 30.1675 17.4068C30.2269 17.2287 30.3259 17.1297 30.3852 17.1099L30.7614 16.8724L30.7218 16.5754C30.8603 16.5556 30.9395 16.4764 31.0187 16.3973L31.4344 16.1795L31.8105 15.7836L31.9887 15.5263C32.0648 15.412 32.1227 15.3664 32.1688 15.3301C32.2186 15.2909 32.2548 15.2624 32.2856 15.1699L32.8399 15.0512C32.8589 14.9752 32.8915 14.9357 32.9247 14.8955C32.9607 14.8519 32.9974 14.8074 33.018 14.7146L33.2754 14.5959C33.6713 14.4573 33.7703 14.4573 33.9088 14.4573C33.9206 14.2926 33.9533 14.2608 33.9904 14.2246C34.0157 14.1999 34.0431 14.1733 34.0672 14.101C34.2157 14.0267 34.3244 13.9979 34.3995 13.9781C34.4644 13.9609 34.5041 13.9504 34.5225 13.9228L34.7798 13.5863L35.0768 13.4477L35.3341 13.0914L35.8488 12.8737C36.1552 12.4867 36.1726 12.4806 36.2327 12.4595C36.2464 12.4547 36.2623 12.4492 36.2843 12.4382L36.8782 12.26L37.1751 11.7057C37.3335 11.7057 37.4324 11.7057 37.5116 11.6265L38.4816 11.1515L38.7785 10.9733L39.2338 10.7951C39.3515 10.6382 39.3742 10.5677 39.3874 10.5265C39.3942 10.5053 39.3986 10.4918 39.412 10.4784L39.6693 10.3992C39.7289 10.3763 39.781 10.3545 39.8277 10.3349C39.9827 10.27 40.0775 10.2302 40.184 10.2607C40.2592 10.3036 40.3169 10.2941 40.3666 10.2859C40.4085 10.2791 40.4447 10.2731 40.4809 10.3002C40.5481 10.3613 40.5983 10.3978 40.6356 10.425C40.7193 10.486 40.7383 10.4998 40.7383 10.6368L40.3028 10.5972L40.184 10.9139C40.1246 10.9931 40.0454 11.0129 39.9267 11.0327L39.511 11.1713C39.2817 11.4005 39.1704 11.4292 39.0952 11.4485C39.073 11.4543 39.0539 11.4592 39.0359 11.4682L38.7389 11.7849L38.4816 11.9631C38.3628 12.1016 38.3034 12.161 38.1451 12.1808C37.9471 12.0818 37.8877 12.0818 37.769 12.0818L37.2147 12.26V12.5173C37.1576 12.5459 37.1056 12.5822 37.0532 12.6188C36.9603 12.6836 36.8662 12.7494 36.7396 12.7747V13.1112C36.6802 13.2894 36.4427 13.3686 36.1457 13.329L35.73 13.8436C35.6429 13.8561 35.587 13.892 35.533 13.9269C35.5011 13.9474 35.4698 13.9675 35.4331 13.9822L35.0174 14.0218L34.9382 14.3187C34.8665 14.4981 34.6972 14.4824 34.4893 14.4632C34.4678 14.4612 34.4458 14.4592 34.4235 14.4573C34.2627 14.6539 34.2632 14.673 34.2648 14.7331C34.265 14.7396 34.2652 14.7465 34.2652 14.7542C33.889 15.2293 33.6119 15.3085 33.4931 15.3283L33.4139 15.6648C33.2259 15.7484 33.1096 15.7658 33.0271 15.7782C32.9532 15.7892 32.9064 15.7962 32.8597 15.843L32.444 16.1795L32.2658 16.4369C32.1834 16.4986 32.1225 16.5485 32.073 16.589C31.9799 16.6652 31.9277 16.7079 31.8501 16.7338L32.1866 16.8526C32.4015 16.8372 32.4855 16.81 32.5492 16.7893L32.5493 16.7893C32.5678 16.7833 32.5846 16.7778 32.6023 16.7734L32.8993 16.4566L33.1566 16.3577L33.8692 16.3181C33.845 16.2765 33.8226 16.2398 33.8021 16.2062L33.802 16.2062L33.802 16.2061C33.7054 16.0479 33.6515 15.9597 33.6515 15.7638L34.0672 15.6648C34.1743 15.5577 34.2481 15.4767 34.3038 15.4155L34.3038 15.4155C34.4542 15.2504 34.4733 15.2293 34.6611 15.2293C34.7007 15.2689 34.9184 15.3085 34.9976 15.3085L35.0372 14.9918C35.1166 14.9464 35.209 14.953 35.2994 14.9595H35.2995C35.3669 14.9643 35.4333 14.9691 35.4925 14.9522C35.5726 14.9362 35.63 14.9104 35.6857 14.8855C35.7676 14.8487 35.8459 14.8136 35.9874 14.8136C35.9645 14.7527 35.9358 14.7211 35.9091 14.6917C35.8665 14.6447 35.829 14.6034 35.829 14.4573L36.3437 14.0614L36.8584 13.6655H37.2345C37.2741 13.5071 37.3225 13.5071 37.409 13.5071C37.4522 13.5071 37.505 13.5071 37.571 13.4873C37.7492 13.2894 37.769 13.23 37.7888 13.131C37.8445 13.0892 37.9199 12.9688 37.9666 12.8943L37.9666 12.8943L37.9667 12.8941L37.9667 12.8941C37.9862 12.863 38.0007 12.8399 38.0065 12.8341L38.5212 12.6163C38.5993 12.4758 38.665 12.4215 38.7088 12.3853C38.7205 12.3757 38.7306 12.3673 38.7389 12.359H39.0755C39.2441 12.1903 39.323 12.1314 39.3687 12.0973C39.3874 12.0833 39.4005 12.0735 39.412 12.062C39.5475 11.9903 39.6316 11.9411 39.6928 11.9052L39.6929 11.9052C39.7837 11.852 39.8241 11.8284 39.9069 11.8047C39.9465 11.6265 40.2236 11.5078 40.5007 11.587C40.6341 11.5556 40.7177 11.5273 40.7848 11.5046C40.8871 11.47 40.9512 11.4484 41.0946 11.4484L41.055 11.1515L41.3124 11.0525L41.5103 10.6962L41.7677 10.6566L42.1042 10.518C42.2663 10.3559 42.3823 10.3229 42.4648 10.2993C42.5032 10.2884 42.5343 10.2795 42.5595 10.2607C42.7142 10.191 42.8084 10.1214 42.8883 10.0625L42.8883 10.0624C43.0128 9.97047 43.1023 9.90434 43.3315 9.90434L43.7076 9.60741C44.1368 9.5161 44.5027 9.30686 44.8677 9.0982C45.294 8.85449 45.7189 8.61157 46.2414 8.55824L47.251 8.47906V8.22172C47.3093 8.18935 47.3548 8.15274 47.3988 8.11744C47.4892 8.04481 47.5727 7.9777 47.7459 7.96438L47.3698 7.82581L46.2612 7.92479L45.8455 8.26131C45.6992 8.44017 45.4727 8.49883 45.2868 8.54698C45.2464 8.55746 45.2078 8.56743 45.1725 8.57804C45.0528 8.61794 44.9482 8.59752 44.8459 8.57758C44.7453 8.55794 44.647 8.53876 44.539 8.57804L44.2817 8.69681L43.8264 9.1719C43.7531 9.2138 43.713 9.20028 43.6651 9.18411C43.6225 9.16973 43.5737 9.15326 43.4899 9.1719L43.0148 9.13231C43.0148 9.29068 42.896 9.60741 42.797 9.66679L42.4605 9.74597C42.2823 9.92413 42.1834 9.96373 41.9854 9.96373L41.5499 10.2607L41.2926 10.3002L40.7779 10.2607C40.7247 10.1145 40.734 10.0843 40.7519 10.0263C40.7606 9.99792 40.7714 9.96289 40.7779 9.90434C40.9501 9.83976 41.0696 9.77519 41.1715 9.72015C41.257 9.67397 41.33 9.6345 41.4113 9.60741H41.6687L41.926 9.82516C42.042 9.77877 42.1172 9.73918 42.1795 9.70638L42.1795 9.70637L42.1795 9.70636C42.2236 9.68318 42.2611 9.66339 42.3021 9.647C42.2625 9.56781 42.2625 9.50843 42.2625 9.38966C42.3904 9.26175 42.4522 9.1917 42.496 9.14211L42.496 9.14207L42.4961 9.14198L42.4961 9.14194C42.52 9.11487 42.5385 9.0939 42.5595 9.07293L42.7772 8.69681C42.9356 8.63743 43.1533 8.59784 43.2523 8.63743L43.9254 8.47906L44.2619 8.3009L44.5192 8.12274L44.9943 7.8654L45.509 7.68724C45.5423 7.66134 45.5715 7.63683 45.5986 7.61395C45.717 7.51444 45.7983 7.446 46.0237 7.4299L46.479 7.25174C46.7703 7.08789 47.0281 7.22542 47.1292 7.27937C47.138 7.28408 47.1457 7.28815 47.152 7.29133L47.6073 7.03399L47.8647 6.77665H48.2012L48.6961 6.67767C48.7621 6.63053 48.8191 6.59686 48.8714 6.56597C48.9289 6.532 48.9808 6.50139 49.0326 6.45992C49.1605 6.34799 49.2626 6.40397 49.3284 6.44006C49.3441 6.44865 49.3577 6.45612 49.3691 6.45992L49.8838 6.38074L50.1411 6.26197L50.8538 6.22237C51.1739 6.3542 51.2433 6.30687 51.3004 6.26786L51.3091 6.26197C51.4368 6.18214 51.6546 6.24395 51.7861 6.28124L51.7861 6.28124C51.8176 6.29019 51.8442 6.29773 51.8634 6.30156C52.0217 6.38074 52.1405 6.38074 52.378 6.38074C52.4222 6.44263 52.4822 6.46503 52.5404 6.48674C52.6125 6.51365 52.6817 6.53949 52.7146 6.63808L52.7937 6.9746L53.2886 7.05379L53.546 7.19235L53.8429 7.23195L54.3576 7.56847L54.7337 7.74663L54.991 7.82581L55.4463 8.22172L55.7829 8.3009L55.9214 8.55824L56.1788 8.63743L56.2778 8.89477L56.733 9.03334L57.4457 9.2115L58.0791 9.42925C58.0946 9.46782 58.113 9.49738 58.1309 9.52612C58.159 9.57112 58.1858 9.61411 58.1979 9.68659L58.7522 9.647L59.0095 9.76577C59.2019 9.88333 59.3135 9.97781 59.3941 10.0461C59.4629 10.1043 59.5092 10.1435 59.5638 10.1617L59.9003 10.2013L60.2369 10.2805L60.7317 10.5774L61.286 10.7555L61.5829 11.0525L61.9195 11.1515L62.2164 11.29L62.8894 11.4682L63.3447 11.8047L63.9386 11.9829L64.3939 12.1214L64.6908 12.4184L65.1065 12.8539L65.3639 12.9331L65.6212 12.9726C65.6848 13.015 65.7426 13.0177 65.7948 13.0201C65.8402 13.0223 65.8813 13.0242 65.9182 13.0518L66.1755 13.1904C66.5336 13.3623 66.7829 13.5031 67.0087 13.6306C67.4069 13.8555 67.7319 14.0391 68.452 14.2791L69.0063 14.4177C69.0063 14.4033 69.006 14.3873 69.0056 14.3704L69.0049 14.343L69.0048 14.3428C69.0016 14.2234 68.9975 14.0701 69.0458 14.0218C69.0854 13.8832 69.1448 13.8832 69.3428 13.8832L69.8179 14.101L70.0752 14.2198L70.5503 14.4375C70.6706 14.5492 70.735 14.6311 70.7822 14.6912C70.8438 14.7696 70.8764 14.811 70.966 14.8334L71.3025 14.9126H71.6786L71.936 14.7344L72.2329 14.6553L72.6684 14.4771L73.48 14.2593C73.4899 14.2569 73.5025 14.2535 73.5173 14.2495C73.6211 14.2217 73.8313 14.1653 73.9353 14.2L74.2719 14.2396L74.7667 14.3781C75.1429 14.0218 75.6378 13.8436 75.6971 13.8634C75.7565 13.9228 75.8555 13.9624 75.9545 13.9426L76.4692 13.903L76.9443 14.1604C77.1026 14.2989 77.1422 14.2989 77.2412 14.2989L77.5777 13.9624C77.5922 13.9576 77.6101 13.9493 77.6308 13.9397C77.6949 13.9099 77.7848 13.8683 77.8746 13.8832L78.2508 13.9228L78.5477 13.9624C78.5848 13.973 78.6148 13.9836 78.6427 13.9935C78.7188 14.0204 78.7789 14.0416 78.9238 14.0416C78.6863 13.8436 78.6665 13.903 78.6665 13.903L78.0726 13.6853L77.4787 13.6061L77.2214 13.5071L76.8453 13.4675L77.2214 13.2498L77.6371 13.2894L78.4289 13.4279L78.805 13.5665L79.3593 13.6457L79.8344 13.9822H80.3293L80.7054 14.1208L80.9627 14.2593L81.2993 14.3781L81.6358 14.5167C81.7007 14.5698 81.7551 14.6053 81.801 14.6353C81.9091 14.7059 81.9702 14.7459 82.0119 14.9126L82.5266 15.0512C83.3313 15.2892 83.7142 15.5921 84.0617 15.867C84.3212 16.0723 84.5609 16.2619 84.9416 16.3973L85.4563 16.7536C86.1096 16.9119 86.3273 16.9713 86.3867 17.2287C86.442 17.2379 86.4802 17.2514 86.5192 17.2652C86.5639 17.2811 86.6096 17.2973 86.6836 17.3079C86.8557 17.4608 86.8616 17.4845 86.8796 17.5573L86.8816 17.5652C86.9227 17.5703 86.9773 17.5741 87.0375 17.5784C87.2091 17.5903 87.4271 17.6056 87.515 17.6642L87.7328 17.9215C88.6413 18.2338 89.0408 18.5054 89.5738 18.8676C89.784 19.0106 90.015 19.1676 90.3062 19.3468L90.5636 19.4656C90.7021 19.5781 90.8141 19.6187 90.9013 19.6503C91.0134 19.691 91.0844 19.7167 91.1178 19.8615C91.3593 19.9454 91.5283 20.0406 91.6752 20.1232C91.8053 20.1964 91.918 20.2598 92.0482 20.297L92.5233 20.6533L92.939 20.9106L93.236 21.0888L93.6912 21.5639L94.2455 21.9004L94.6612 22.3359L94.9186 22.4547L95.3541 22.8308L95.7698 23.1475L95.9875 23.5434L96.2449 23.6226L96.5022 23.7612C96.6763 23.962 96.6783 24.0814 96.6797 24.1682C96.6804 24.2098 96.6809 24.2438 96.7002 24.2759C96.7913 24.367 96.8103 24.3598 96.8402 24.3486C96.8623 24.3403 96.8902 24.3298 96.9575 24.3551L97.2544 24.454L97.5118 24.751C97.6701 25.0083 97.7493 25.1469 97.7691 25.3646L98.2838 25.7605L98.4026 26.0179L98.6599 26.2356ZM73.5987 13.7055C73.4997 13.844 73.4007 13.8836 73.2621 13.8836C73.221 13.7876 73.2559 13.6916 73.2812 13.6219C73.2924 13.591 73.3017 13.5653 73.3017 13.5471L73.2621 13.3689L73.5987 13.7055ZM81.9333 18.3772L82.2302 18.298L83.0022 18.4762L82.7449 18.2188L82.448 18.1792L82.151 18.0605L81.7353 17.9417C81.7035 17.9973 81.6654 18.0242 81.6298 18.0493C81.5767 18.0867 81.5294 18.1201 81.5176 18.2386C81.5752 18.2642 81.608 18.2878 81.636 18.3079C81.6946 18.35 81.7324 18.3772 81.9333 18.3772ZM82.4868 17.6247L82.566 17.882L82.4076 17.9216L82.4868 17.6247ZM46.9462 15.1695C46.9647 15.2004 46.9702 15.2096 47.1321 15.2096V15.0711C47.1123 15.0711 47.0926 15.0686 47.0728 15.0661C47.0134 15.0587 46.954 15.0513 46.8946 15.1106C46.9261 15.1358 46.9375 15.155 46.9462 15.1695ZM36.126 16.8131L35.8291 16.5161C35.8345 16.5143 35.8402 16.5122 35.8464 16.5099C35.9072 16.4873 36.0037 16.4514 36.1656 16.5953L36.4229 16.7735L36.126 16.8131ZM31.2562 17.7633L31.5136 17.6247C31.5696 17.5738 31.6191 17.5359 31.662 17.5031C31.7859 17.4084 31.8552 17.3554 31.8699 17.1496L31.6125 17.1892L31.3552 17.2288L31.177 17.2882C31.122 17.3982 31.1037 17.4654 31.0915 17.5102C31.0817 17.546 31.0759 17.5675 31.0583 17.5851L30.504 17.8029L30.2071 18.1592C30.1279 18.3374 30.0685 18.4363 29.9101 18.4759L29.9214 18.5175C29.9699 18.6964 29.9749 18.7148 30.0487 18.7333L30.3456 18.5947L30.7613 18.278C31.1572 17.8425 31.177 17.8227 31.2562 17.7633ZM28.6437 19.8613L28.4656 20.079L27.8717 20.7323C27.86 20.744 27.843 20.7523 27.8151 20.7659L27.8151 20.7659L27.815 20.7659C27.7489 20.7981 27.6215 20.8601 27.357 21.0688H27.0205C27.0403 20.7125 27.2778 20.4947 27.5352 20.376L28.1291 19.9801C28.1667 19.9518 28.2179 19.946 28.2782 19.9391C28.3446 19.9315 28.4222 19.9226 28.5052 19.8811C28.5181 19.8595 28.5226 19.837 28.5274 19.8127C28.5448 19.7256 28.5666 19.6159 29.0001 19.4456C28.9673 19.6206 28.8801 19.6626 28.7986 19.7019C28.7326 19.7338 28.6703 19.7638 28.6437 19.8613ZM74.2713 13.2102L74.2317 13.3488C74.2176 13.37 74.1733 13.3886 74.116 13.4128C74.0122 13.4565 73.8656 13.5183 73.7764 13.6457C73.8358 13.7447 74.1327 13.8239 74.3702 13.6457C74.4108 13.6295 74.4614 13.6266 74.5179 13.6233C74.5991 13.6186 74.6925 13.6133 74.7859 13.5666L74.6078 13.2696C74.5661 13.2627 74.5317 13.2533 74.4978 13.244C74.4351 13.2269 74.3741 13.2102 74.2713 13.2102ZM75.5597 13.2764C75.567 13.2532 75.5739 13.2313 75.5781 13.2102L75.7562 13.0716L76.1324 13.428C76.0806 13.6177 75.8486 13.6121 75.6588 13.6075C75.6307 13.6068 75.6036 13.6061 75.5781 13.6061C75.5002 13.4659 75.5327 13.3624 75.5597 13.2764Z" fill="white"/>
</svg>
