<svg width="300" height="50" viewBox="0 0 300 50" fill="none" xmlns="http://www.w3.org/2000/svg">
<g clip-path="url(#clip0_4047_13287)">
<path d="M30.9506 48.1055L50.5125 1.21094H34.903L25.2562 26.4668L15.6091 1.21094H0L19.5619 48.1055H30.9506Z" fill="white"/>
<path d="M135.797 35.1092H117.709V1.21094H103.641V48.1055H135.797V35.1092Z" fill="white"/>
<path d="M143.368 48.1055H157.437V13.9396H169.763V1.21094H131.041V13.9396H143.368V48.1055Z" fill="white"/>
<path d="M183.766 1.21094L164.338 48.1059H179.21L181.689 42.0094H197.499L199.978 48.1059H214.85L195.422 1.21094H183.766ZM185.441 31.0222L189.594 20.3038L193.748 31.0222H185.441Z" fill="white"/>
<path d="M240.309 22.2466L246.941 31.0221C245.132 34.1713 241.984 36.047 237.897 36.047C230.997 36.047 227.044 30.8883 227.044 24.658C227.044 18.4276 230.997 13.2697 237.897 13.2697C241.18 13.2697 243.792 14.3413 245.735 16.4181L256.186 7.23975C251.63 2.68436 245.199 0.00466252 237.897 0.00466252C223.36 -0.263341 212.507 11.0584 212.708 24.658C212.507 38.2576 223.36 49.5793 237.897 49.3113C252.032 49.5793 263.019 38.2576 262.751 24.658C262.751 23.9212 262.684 23.1175 262.617 22.2466H240.309Z" fill="white"/>
<path d="M300 14.2073V1.21094H266.771V48.1055H300V35.1092H280.84V30.0844H297.856V19.2317H280.84V14.2073H300Z" fill="white"/>
<path d="M98.7482 24.658C98.9005 14.3483 92.6972 5.353 83.3549 1.71839L79.3479 14.5504H85.4331L72.248 38.3713V20.4037H71.813L64.5679 20.403L67.3289 0.632324C56.0333 3.16916 48.199 13.0863 48.3699 24.658C48.1689 38.2575 59.0218 49.5793 73.5593 49.3113C88.0964 49.5793 98.949 38.2575 98.7482 24.658Z" fill="white"/>
</g>
<defs>
<clipPath id="clip0_4047_13287">
<rect width="300" height="50" fill="white"/>
</clipPath>
</defs>
</svg>
