<svg width="120" height="53" viewBox="0 0 120 53" fill="none" xmlns="http://www.w3.org/2000/svg">
<path fill-rule="evenodd" clip-rule="evenodd" d="M119.336 15.0985C119.336 19.6993 115.859 21.3556 110.711 21.3556C107.609 21.3556 104.623 19.5194 103.968 18.8834L103.314 20.983H101.349V12.9025H103.594C104.21 16.757 106.697 18.4273 110.241 18.5954C113.292 18.7324 115.457 17.8877 115.699 15.6928C115.931 13.5922 114.137 13.3408 112.239 13.0749C111.84 13.0189 111.436 12.9622 111.045 12.8876L107.726 12.2526C102.779 11.3554 101.187 9.8618 101.067 6.5052C100.934 2.84452 104.129 0.455819 108.424 0.414062C110.511 0.414062 113.211 0.758824 115.297 2.50083L116.273 0.840196H117.985V7.85855H115.819C115.349 3.96446 111.66 2.77707 108.506 2.85844C106.215 2.93981 104.703 4.30815 104.703 5.92596C104.703 7.36899 106.016 7.6056 107.727 7.91375L107.954 7.95491L112.006 8.68833C116.14 9.40569 119.336 10.2911 119.336 15.0568V15.0985ZM78.9888 21.3556V19.1549H79.2875C81.0029 19.1549 81.7521 18.9927 81.7521 17.3173L81.7102 5.76124C81.7102 4.09945 80.9085 3.92364 79.2466 3.92364H77.9933V1.72293H89.8732V3.92364L88.4564 3.96446C86.5325 3.96446 86.2087 4.14026 86.2087 5.76124V19.0346H90.9902C93.3312 19.0346 94.707 18.7353 95.3326 17.5748C95.9058 16.5346 96.1636 15.3594 96.1636 13.4423H98.4522V21.3556H78.9888ZM56.9741 21.3556V19.1549H58.1037C59.8076 19.1549 60.5568 18.9927 60.5568 17.3173L60.516 5.76124C60.516 4.09945 59.5215 3.92364 57.846 3.92364H56.8107V1.72293H68.6737V3.92364L67.258 3.96446C65.3498 3.96446 65.0103 4.14026 65.0103 5.76124V19.0346H69.8075C72.137 19.0346 73.5118 18.7353 74.1384 17.5748C74.7242 16.5346 74.9694 15.3594 74.9694 13.4423H77.2569V21.3556H56.9741ZM33.624 21.3556V19.1549L34.7819 19.1141C36.4994 19.1141 37.4529 18.9519 37.4529 17.3173V5.72042C37.4529 4.09945 36.4994 3.92364 34.7819 3.92364H34.4515L34.4688 3.92362H35.218V1.72291L54.8614 1.72293V9.33805H52.6147C52.4921 4.76186 51.4149 4.04399 47.4099 4.04399H41.9064V9.87802H43.3232C45.8297 9.87802 46.1577 9.0419 46.362 6.08459H48.6233V16.0354H46.3211C46.1577 12.6616 45.8297 12.1991 43.364 12.1991H41.9064V19.0346H48.2409C51.8246 19.0346 52.6818 17.3456 52.9951 13.4423H55.2428V21.3556H33.624ZM35.218 1.72291L33.624 1.72293V3.92364H34.4515C32.8449 3.92806 32.3015 4.55161 31.6342 6.342L26.0103 21.3556H22.4674L17.9709 10.4577L13.6809 21.3556H10.0165L4.14625 6.58269C3.47666 4.88218 2.48431 3.92362 1.02462 3.92362H0.5625V1.72291H10.5624V3.92362H9.59418C8.47714 3.92362 7.97311 4.21977 8.01398 4.84137C8.01398 4.86307 8.01269 4.88774 8.01126 4.91521C8.00463 5.04268 7.99484 5.23051 8.09571 5.46297C8.09571 5.46297 10.3843 10.8502 12.1961 16.1704C12.3857 16.1976 12.4675 16.1976 12.4675 16.1976L16.3918 6.38281C16.2273 4.76184 15.6834 3.92362 13.9806 3.92362H12.6456V1.72291H23.1758V3.92362H21.5138C20.5194 3.92362 20.139 4.14024 20.139 4.72103C20.139 4.96381 20.1799 5.25996 20.3025 5.54459C20.3025 5.54459 22.6728 11.2551 24.4018 16.2258C24.6334 16.2258 24.6334 16.2384 24.6334 16.2384L28.434 6.30119C28.6792 5.63877 28.6792 5.13961 28.6792 4.80056C28.6792 4.17896 28.1343 3.92362 27.0173 3.92362H25.6425V1.72291H35.218ZM22.2093 36.1391C22.7711 37.22 23.0244 38.5573 23.0244 40.0694H25.3613V32.4808H4.47815V34.6825H5.64716C7.4061 34.6825 8.01009 34.8583 8.01009 36.4781V48.0754C8.01009 49.7099 7.4061 49.8711 5.64716 49.8711L4.47815 49.9098V52.1135H17.0018V49.9098H14.6378C12.8788 49.9098 12.6104 49.7507 12.6104 48.1162V42.9983H14.2156C16.7485 42.9983 17.1014 43.6721 17.1436 46.9547L19.0714 46.9955V37.1792H17.1858C17.1858 40.219 16.7907 40.6763 14.2156 40.6763H12.6104V34.8028H17.6913C20.1116 34.8028 21.5198 34.9786 22.2093 36.1391ZM34.495 52.1135V49.9098H36.648C37.7951 49.9098 38.3474 49.7895 38.3474 49.1156C38.3474 48.8718 38.2083 48.5348 38.0426 48.1686L37.2003 45.8759H29.4265L28.4186 48.3329C28.2529 48.7106 28.17 48.9942 28.17 49.2506C28.17 49.8711 28.7085 49.9098 29.7707 49.9098H31.844V52.1135H21.4456V49.9098H22.3569C23.9172 49.9098 24.3878 49.3709 24.9815 47.9928L31.6506 32.4808H36.5386L42.9167 47.9928C43.4977 49.4933 44.1456 49.9098 45.2779 49.9098H46.2444V52.1135H34.495ZM33.4032 36.0187L30.408 43.5518H36.4409L33.4032 36.0187ZM68.2912 52.7679C70.6517 52.7679 72.3075 51.2869 72.3075 47.5511H72.3483C72.3483 47.2133 72.3483 46.8592 72.3075 46.5073H70.4356C70.5296 48.9468 70.4356 49.8649 69.2412 49.948C68.6576 49.9906 68.1972 49.4255 68.1158 48.2123C68.1158 48.0659 68.1204 47.9049 68.125 47.7455V47.7453C68.134 47.431 68.1428 47.1228 68.1158 46.9445C67.9112 44.165 67.4508 42.8698 63.9637 41.9944C67.7076 41.473 69.9053 39.6521 69.9053 36.6934C69.9053 33.3937 67.5854 31.8263 62.5491 31.8263H49.0729V34.126H50.688C52.3845 34.126 52.6413 34.3096 52.6413 36.0015V48.1151C52.6413 49.6092 51.7205 50.0311 50.593 50.0311H48.8547V52.3329H60.8129V50.0311H59.0339C57.3259 50.0311 57.0805 49.8649 57.0805 48.1577V42.6436H59.0746C62.4666 42.6436 63.5148 43.3344 63.638 46.774L63.7194 49.1589C63.8416 51.993 65.5914 52.7679 68.2912 52.7679ZM61.2754 34.1686C64.0577 34.1686 65.3867 34.8725 65.3867 37.2573V37.3C65.3867 39.428 64.0984 40.3439 61.3568 40.3439L57.0805 40.3866V34.1686H61.2754ZM89.5656 38.6828C88.5956 35.6635 86.5616 34.2511 83.2065 34.2511C79.9032 34.2511 77.2784 36.9386 77.3205 42.0616C77.3205 47.2693 79.4258 50.0825 83.2065 50.1222C85.9578 50.1222 88.4012 48.7655 88.4012 46.4514V45.3448C88.4012 43.9882 88.0631 43.9882 86.1273 43.9882H85.1141V41.6763H94.5367V43.9882H93.7644C93.6569 43.9882 93.5562 43.9874 93.4618 43.9867L93.4609 43.9867C92.2721 43.9778 92.0803 43.9764 92.0803 45.567V52.3107H90.4222L89.355 50.6363C87.5024 52.0906 84.8484 52.7679 82.473 52.7679C79.6958 52.7679 77.3205 51.7976 75.4388 49.915C73.4598 47.9068 72.3083 45.2214 72.3494 42.0616C72.3494 38.9468 73.3756 36.4685 75.3966 34.4732C77.152 32.7559 79.819 31.7878 82.5735 31.8275C84.8484 31.8275 87.5024 32.4232 89.005 34.0042L90.0431 31.9112H91.658V38.6699L89.5656 38.6828ZM95.8413 42.2551C95.8413 48.5903 101.009 52.7677 107.676 52.7677C114.292 52.7677 119.335 48.5903 119.335 42.2969C119.335 35.9489 114.292 31.8262 107.634 31.8262C101.009 31.8262 95.8413 35.9489 95.8413 42.2551ZM107.592 34.3013C111.541 34.3013 114.418 37.0562 114.418 42.3387H114.376C114.376 47.6084 111.482 50.4308 107.592 50.4308C103.689 50.4308 100.716 47.6084 100.716 42.3387C100.716 37.0562 103.689 34.3013 107.592 34.3013Z" fill="white"/>
</svg>
